<svg width="18" height="14" viewBox="0 0 18 14" fill="none" xmlns="http://www.w3.org/2000/svg">
<path d="M12.401 11.8599C12.401 12.1623 12.2809 12.4523 12.0671 12.6661C11.8532 12.8799 11.5633 13 11.2609 13H2.1401C1.83773 13 1.54774 12.8799 1.33393 12.6661C1.12012 12.4523 1 12.1623 1 11.8599V3.87923C1 3.57686 1.12012 3.28687 1.33393 3.07306C1.54774 2.85925 1.83773 2.73914 2.1401 2.73914H4.99035L6.13044 4.44928H11.2609C11.5633 4.44928 11.8532 4.5694 12.0671 4.78321C12.2809 4.99702 12.401 5.28701 12.401 5.58938V11.8599Z" stroke="#CECECE" stroke-width="1.5" stroke-linecap="round" stroke-linejoin="round"/>
<path d="M14.8833 1V4.4203" stroke="#CECECE" stroke-width="1.5" stroke-linecap="round" stroke-linejoin="round"/>
<path d="M13.1743 2.71008H16.5946" stroke="#CECECE" stroke-width="1.5" stroke-linecap="round" stroke-linejoin="round"/>
</svg>
