<svg width="16" height="15" viewBox="0 0 16 15" fill="none" xmlns="http://www.w3.org/2000/svg">
<path d="M1.09299 15.0003H9.73475C10.3375 15.0003 10.8277 14.5106 10.8277 13.9073V5.1043C10.8277 4.50151 10.3375 4.0113 9.73475 4.0113H7.82201V3.44786C7.82201 3.1462 7.57773 2.90137 7.27551 2.90137C6.9733 2.90137 6.72902 3.1462 6.72902 3.44786V4.0113H4.47417V3.44786C4.47417 3.1462 4.22989 2.90137 3.92767 2.90137C3.62546 2.90137 3.38118 3.1462 3.38118 3.44786V4.0113H1.09299C0.490208 4.0113 0 4.50151 0 5.1043V13.9073C0 14.5106 0.490208 15.0003 1.09299 15.0003ZM1.09299 5.1043H3.38172V5.66773C3.38172 5.9694 3.62601 6.21423 3.92822 6.21423C4.23043 6.21423 4.47472 5.9694 4.47472 5.66773V5.1043H6.72902V5.66773C6.72902 5.9694 6.9733 6.21423 7.27551 6.21423C7.57773 6.21423 7.82201 5.9694 7.82201 5.66773V5.1043H9.73475L9.7353 13.9073H1.09299V5.1043Z" fill="#88305F"/>
<path d="M7.58265 7.87169L4.41023 11.0436L3.26969 9.73305C3.07132 9.50462 2.72593 9.48112 2.49859 9.67895C2.2707 9.87678 2.24665 10.2222 2.44448 10.4501L3.96976 12.2038C4.06977 12.318 4.21185 12.3852 4.36323 12.3907C4.36979 12.3918 4.3758 12.3918 4.38236 12.3918C4.52718 12.3918 4.66654 12.3344 4.76873 12.2316L8.35539 8.64443C8.56907 8.43075 8.56907 8.08537 8.35539 7.87169C8.14171 7.65801 7.79633 7.65801 7.58265 7.87169Z" fill="#88305F"/>
<path d="M12.9199 1V4.71575" stroke="#88305F" stroke-width="1.5" stroke-linecap="round" stroke-linejoin="round"/>
<path d="M11.0625 2.85791H14.7783" stroke="#88305F" stroke-width="1.5" stroke-linecap="round" stroke-linejoin="round"/>
</svg>
