<svg width="37" height="37" viewBox="0 0 37 37" fill="none" xmlns="http://www.w3.org/2000/svg">
<path d="M36 18.5C36 28.165 28.165 36 18.5 36C8.83502 36 1 28.165 1 18.5C1 8.83502 8.83502 1 18.5 1C28.165 1 36 8.83502 36 18.5Z" fill="#842B5B"/>
<path d="M19.5 12C19.5 11.5858 19.1642 11.25 18.75 11.25C18.3358 11.25 18 11.5858 18 12H19.5ZM18 25.5C18 25.9142 18.3358 26.25 18.75 26.25C19.1642 26.25 19.5 25.9142 19.5 25.5H18ZM12 18C11.5858 18 11.25 18.3358 11.25 18.75C11.25 19.1642 11.5858 19.5 12 19.5V18ZM25.5 19.5C25.9142 19.5 26.25 19.1642 26.25 18.75C26.25 18.3358 25.9142 18 25.5 18V19.5ZM35.25 18.5C35.25 27.7508 27.7508 35.25 18.5 35.25V36.75C28.5792 36.75 36.75 28.5792 36.75 18.5H35.25ZM18.5 35.25C9.24923 35.25 1.75 27.7508 1.75 18.5H0.25C0.25 28.5792 8.4208 36.75 18.5 36.75V35.25ZM1.75 18.5C1.75 9.24923 9.24923 1.75 18.5 1.75V0.25C8.4208 0.25 0.25 8.4208 0.25 18.5H1.75ZM18.5 1.75C27.7508 1.75 35.25 9.24923 35.25 18.5H36.75C36.75 8.4208 28.5792 0.25 18.5 0.25V1.75ZM18 12V25.5H19.5V12H18ZM12 19.5H25.5V18H12V19.5Z" fill="white"/>
</svg>
