<svg width="20" height="21" viewBox="0 0 20 21" fill="none" xmlns="http://www.w3.org/2000/svg">
<path d="M7.00549 15.657C6.90411 15.3967 6.80192 15.1344 6.70054 14.8742C6.45804 14.2517 6.21636 13.6313 5.97386 13.0089C5.67946 12.2532 5.38587 11.4995 5.09146 10.7438C4.84004 10.0985 4.58863 9.45309 4.33721 8.80772C4.21636 8.49753 4.0928 8.1896 3.97549 7.87923C3.9672 7.85488 3.95892 7.83053 3.95271 7.80537C3.96593 7.85777 3.97915 7.91018 3.99237 7.96258C3.9842 7.9262 3.98036 7.89172 3.97987 7.85353C3.97834 7.90809 3.97827 7.96329 3.97674 8.01785C3.97816 7.97532 3.98455 7.93325 3.99446 7.89101C3.97947 7.94483 3.96383 8.0001 3.94739 8.05329C3.9602 8.01231 3.97671 7.97469 3.9982 7.93752C3.96874 7.985 3.93864 8.03392 3.91063 8.08204C3.93356 8.0455 3.95956 8.01376 3.99198 7.98312C3.95286 8.02118 3.91229 8.0586 3.87317 8.09666C3.90097 8.07262 3.92958 8.05065 3.96189 8.03204C3.91437 8.05779 3.86686 8.08353 3.81934 8.10928C3.91437 8.05779 4.02168 8.02549 4.12158 7.98649C4.35051 7.89711 4.57737 7.80854 4.80631 7.71916C5.56388 7.42339 6.31936 7.12843 7.07694 6.83266C7.9906 6.47595 8.90634 6.11843 9.82001 5.76172C10.615 5.45132 11.4122 5.14011 12.2072 4.82972C12.5943 4.67858 12.9832 4.53514 13.3664 4.37713C13.3712 4.37405 13.3768 4.37306 13.3831 4.37062C13.2224 4.36741 13.0602 4.36356 12.8995 4.36034C13.0731 4.4365 13.248 4.51329 13.4216 4.58945C13.8381 4.77222 14.256 4.95564 14.6718 5.13986C15.1708 5.35881 15.6697 5.57776 16.168 5.79816C16.596 5.98601 17.0226 6.17323 17.45 6.36253C17.6453 6.44821 17.8411 6.53244 18.0357 6.61956C18.0762 6.63733 18.1169 6.65863 18.1548 6.68219C18.1074 6.65274 18.0585 6.62266 18.0104 6.59465C18.0834 6.6405 18.1483 6.69313 18.2073 6.75525C18.1693 6.71613 18.1319 6.67556 18.0939 6.63644C18.1499 6.69729 18.1979 6.76493 18.2383 6.83789C18.2126 6.79037 18.1869 6.74284 18.1611 6.69531C18.197 6.76284 18.2232 6.83299 18.2431 6.90558C18.2298 6.85318 18.2166 6.80077 18.2034 6.74837C18.223 6.82946 18.2335 6.91172 18.2334 6.99452C18.2349 6.93995 18.235 6.88476 18.2365 6.8302C18.2351 6.91589 18.2229 6.99858 18.2002 7.0818C18.2152 7.02798 18.2309 6.97271 18.2473 6.91952C18.1874 7.12278 18.0826 7.31841 17.9975 7.51233C17.8184 7.92044 17.6399 8.3271 17.4608 8.73521C17.2423 9.23304 17.0232 9.73233 16.8062 10.2308C16.615 10.6664 16.4232 11.1035 16.2335 11.5397C16.1402 11.7524 16.0425 11.9633 15.9534 12.1779C15.9522 12.1808 15.9509 12.1837 15.9496 12.1866C16.0657 12.0753 16.1825 11.9626 16.2986 11.8513C15.9801 11.9756 15.6638 12.0991 15.3453 12.2234C14.5836 12.5208 13.8219 12.8182 13.0601 13.1156C12.1465 13.4723 11.2307 13.8299 10.3171 14.1866C9.52621 14.4953 8.73325 14.8049 7.94238 15.1137C7.5636 15.2616 7.18771 15.4107 6.80811 15.5565C6.78314 15.5663 6.75735 15.5739 6.73156 15.5816C6.78395 15.5684 6.83633 15.5551 6.88871 15.5418C6.85234 15.5501 6.81788 15.5539 6.77971 15.5544C6.83425 15.5559 6.88941 15.556 6.94395 15.5575C6.90144 15.5561 6.8594 15.5497 6.81718 15.5398C6.87097 15.5548 6.9262 15.5704 6.97936 15.5868C6.93841 15.574 6.90081 15.5575 6.86367 15.536C6.91111 15.5655 6.95999 15.5956 7.00807 15.6236C6.97156 15.6006 6.93985 15.5746 6.90924 15.5422C6.94726 15.5813 6.98464 15.6219 7.02267 15.661C6.99865 15.6332 6.97671 15.6046 6.95813 15.5723C6.98383 15.6198 7.00954 15.6674 7.03525 15.7149C7.02379 15.6978 7.0136 15.6778 7.00549 15.657C6.94276 15.5052 6.82238 15.3747 6.67054 15.308C6.52882 15.2458 6.33168 15.2353 6.18698 15.2977C5.87902 15.4336 5.69167 15.7897 5.82751 16.1169C6.06204 16.6789 6.68324 16.9532 7.25547 16.7418C7.28669 16.7296 7.31791 16.7174 7.34705 16.706C7.5302 16.6345 7.71335 16.563 7.8965 16.4915C8.61036 16.2128 9.32214 15.9349 10.036 15.6562C10.9684 15.2922 11.8987 14.929 12.8311 14.565C13.6698 14.2375 14.5107 13.9092 15.3494 13.5818C15.801 13.4055 16.2527 13.2291 16.7043 13.0528C16.877 12.9854 17.0207 12.8741 17.1032 12.698C17.1249 12.6523 17.1438 12.6054 17.1641 12.5591C17.2867 12.2798 17.4093 12.0005 17.5319 11.7212C17.9212 10.834 18.3091 9.94626 18.6984 9.05913C18.8553 8.70167 19.0121 8.34421 19.169 7.98676C19.2376 7.83046 19.3126 7.67526 19.374 7.51579C19.5685 7.00572 19.51 6.44331 19.1986 5.99768C19.0294 5.75431 18.7869 5.57195 18.5171 5.45183C18.3089 5.36044 18.0992 5.26842 17.891 5.17703C17.0378 4.80259 16.1837 4.42607 15.3305 4.05164C14.7029 3.7762 14.0759 3.49932 13.4468 3.22325C13.2762 3.14837 13.0922 3.13147 12.913 3.19782C12.8741 3.21181 12.8381 3.22707 12.7985 3.24251C12.6029 3.31889 12.4073 3.39527 12.2137 3.47083C11.4853 3.75523 10.7589 4.03881 10.0305 4.3232C9.09601 4.68804 8.16154 5.05288 7.22706 5.41771C6.39873 5.74111 5.56831 6.06532 4.73998 6.38871C4.31125 6.5561 3.88251 6.72349 3.4517 6.89168C3.2519 6.96969 3.0656 7.09159 2.93937 7.26919C2.71146 7.59202 2.65882 7.98314 2.80093 8.35099C2.8595 8.50441 2.92015 8.65702 2.97935 8.80899C3.26646 9.54596 3.55356 10.2829 3.84067 11.0199C4.20157 11.9463 4.56248 12.8727 4.92339 13.7991C5.18616 14.4737 5.44812 15.1461 5.71089 15.8206C5.74901 15.9184 5.78794 16.0184 5.82606 16.1162C5.94609 16.4243 6.33245 16.6129 6.64457 16.4754C6.95877 16.3372 7.13363 15.9859 7.00549 15.657Z" fill="#88305F"/>
<path d="M14.0768 7.63537C14.0545 7.64286 14.0343 7.64954 14.0113 7.65495C14.0636 7.64169 14.116 7.62844 14.1684 7.61518C14.132 7.62338 14.0961 7.62661 14.058 7.62712C14.1125 7.62861 14.1677 7.62866 14.2222 7.63016C14.1783 7.62813 14.1362 7.62176 14.0932 7.60978C14.147 7.62475 14.2022 7.64036 14.2554 7.65679C14.2208 7.64508 14.189 7.63112 14.157 7.61363C14.2045 7.64308 14.2533 7.67316 14.3014 7.70116C14.2635 7.67761 14.2303 7.65097 14.1991 7.62C14.2371 7.65912 14.2745 7.69969 14.3125 7.73882C14.287 7.71038 14.2651 7.68177 14.2465 7.64945C14.2722 7.69698 14.2979 7.7445 14.3236 7.79203C14.3018 7.75138 14.2856 7.70975 14.2742 7.66504C14.2874 7.71744 14.3006 7.76984 14.3138 7.82224C14.3056 7.78586 14.3024 7.74994 14.3019 7.71175C14.3004 7.76631 14.3003 7.82151 14.2988 7.87607C14.3009 7.83209 14.3073 7.79002 14.3193 7.74696C14.3043 7.80079 14.2886 7.85606 14.2722 7.90925C14.2839 7.8747 14.2979 7.84286 14.3154 7.81084C14.2859 7.85832 14.2558 7.90725 14.2278 7.95536C14.2514 7.91738 14.278 7.88419 14.309 7.85291C14.2699 7.89097 14.2293 7.9284 14.1902 7.96646C14.2186 7.94097 14.2472 7.919 14.2795 7.90039C14.232 7.92614 14.1845 7.95188 14.137 7.97763C14.1776 7.95577 14.2192 7.93952 14.2639 7.92807C14.2115 7.94132 14.1592 7.95458 14.1068 7.96783C14.1431 7.95963 14.1791 7.9564 14.2172 7.95589C14.1627 7.9544 14.1075 7.95435 14.053 7.95286C14.0969 7.95488 14.139 7.96126 14.182 7.97324C14.1282 7.95826 14.073 7.94265 14.0198 7.92623C14.0544 7.93793 14.0862 7.95189 14.1182 7.96938C14.0707 7.93993 14.0218 7.90985 13.9738 7.88185C14.0117 7.90541 14.0449 7.93204 14.0761 7.96301C14.0381 7.92389 14.0007 7.88332 13.9627 7.8442C13.9882 7.87263 14.0101 7.90124 14.0287 7.93356C14.003 7.88604 13.9773 7.83851 13.9516 7.79098C13.9734 7.83163 13.9896 7.87327 14.001 7.91797C13.9878 7.86557 13.9746 7.81317 13.9614 7.76077C13.9696 7.79715 13.9728 7.83308 13.9732 7.87126C13.9748 7.8167 13.9748 7.76151 13.9764 7.70694C13.9743 7.75092 13.9679 7.79299 13.9559 7.83605C13.9709 7.78222 13.9866 7.72695 14.003 7.67376C13.9913 7.70832 13.9773 7.74015 13.9598 7.77217C13.9893 7.72469 14.0194 7.67577 14.0474 7.62765C14.0238 7.66563 13.9972 7.69882 13.9662 7.7301C14.0053 7.69204 14.0459 7.65461 14.085 7.61656C14.0566 7.64205 14.028 7.66401 13.9957 7.68262C14.0432 7.65687 14.0907 7.63113 14.1382 7.60538C14.1176 7.61704 14.0976 7.62724 14.0768 7.63537C13.925 7.69821 13.7945 7.81872 13.7278 7.97067C13.6656 8.1125 13.6549 8.30974 13.7173 8.45448C13.8514 8.76188 14.2102 8.9504 14.5358 8.81369C14.7215 8.73639 14.9035 8.61259 15.0174 8.44339C15.1702 8.21704 15.2386 7.98646 15.23 7.71518C15.2237 7.51738 15.1394 7.30087 15.0211 7.14196C14.8991 6.97971 14.7221 6.83297 14.5279 6.76847C14.2769 6.68419 14.0374 6.67575 13.7833 6.75579C13.5917 6.81498 13.4074 6.94811 13.2836 7.10436C12.9822 7.48467 12.9739 7.99879 13.2289 8.40411C13.3404 8.58246 13.5385 8.74016 13.7365 8.81155C14.0022 8.9057 14.2676 8.91 14.5344 8.81305C14.8463 8.69967 15.0294 8.30197 14.8938 7.99394C14.7527 7.67486 14.4088 7.51531 14.0768 7.63537Z" fill="#88305F"/>
</svg>
