<svg width="18" height="14" viewBox="0 0 18 14" fill="none" xmlns="http://www.w3.org/2000/svg">
<path d="M12.401 11.8598C12.401 12.1622 12.2809 12.4522 12.0671 12.666C11.8532 12.8798 11.5633 12.9999 11.2609 12.9999H2.1401C1.83773 12.9999 1.54774 12.8798 1.33393 12.666C1.12012 12.4522 1 12.1622 1 11.8598V3.87911C1 3.57674 1.12012 3.28675 1.33393 3.07294C1.54774 2.85913 1.83773 2.73901 2.1401 2.73901H4.99035L6.13044 4.44916H11.2609C11.5633 4.44916 11.8532 4.56928 12.0671 4.78309C12.2809 4.9969 12.401 5.28689 12.401 5.58926V11.8598Z" stroke="#88305F" stroke-width="1.5" stroke-linecap="round" stroke-linejoin="round"/>
<path d="M14.8833 1V4.4203" stroke="#88305F" stroke-width="1.5" stroke-linecap="round" stroke-linejoin="round"/>
<path d="M13.1743 2.71021H16.5946" stroke="#88305F" stroke-width="1.5" stroke-linecap="round" stroke-linejoin="round"/>
</svg>
