<svg width="49" height="49" viewBox="0 0 49 49" fill="none" xmlns="http://www.w3.org/2000/svg">
<g filter="url(#filter0_d)">
<circle cx="23.5" cy="20.5" r="14.5" fill="url(#paint0_linear)"/>
</g>
<path d="M19.1383 26.6222L24.6599 21.1006L26.8636 23.3043L21.3421 28.8259C21.0383 29.1297 20.6392 29.2816 20.2402 29.2816C19.8412 29.2816 19.4421 29.1297 19.1383 28.8259C18.5307 28.2183 18.5307 27.2297 19.1383 26.6222Z" fill="#4C4C4C"/>
<path d="M24.6523 19.6284L28.3267 15.954L32.0072 19.6345L28.3328 23.3089L24.6523 19.6284Z" fill="#4C4C4C"/>
<path d="M33.8437 19.9979L34.5824 20.7366C34.7847 20.9388 34.7847 21.2668 34.5824 21.4691L30.1688 25.8827C30.0676 25.9838 29.9351 26.0344 29.8025 26.0344C29.67 26.0344 29.5374 25.9839 29.4363 25.8827L28.6976 25.144C28.4953 24.9418 28.4953 24.6138 28.6976 24.4115L33.1112 19.9979C33.3135 19.7956 33.6414 19.7956 33.8437 19.9979Z" fill="#4C4C4C"/>
<path d="M23.5526 19.266C23.3503 19.4683 23.0223 19.4683 22.8201 19.266L22.0814 18.5273C21.8791 18.325 21.8791 17.9971 22.0814 17.7948L26.495 13.3812C26.6972 13.1789 27.0252 13.1789 27.2275 13.3812L27.9662 14.1198C28.1685 14.3221 28.1685 14.6501 27.9662 14.8524L23.5526 19.266Z" fill="#4C4C4C"/>
<path d="M17.1211 11V17.2426" stroke="#4C4C4C" stroke-linecap="round" stroke-linejoin="round"/>
<path d="M14 14.1216H20.2426" stroke="#4C4C4C" stroke-linecap="round" stroke-linejoin="round"/>
<defs>
<filter id="filter0_d" x="0" y="0" width="49" height="49" filterUnits="userSpaceOnUse" color-interpolation-filters="sRGB">
<feFlood flood-opacity="0" result="BackgroundImageFix"/>
<feColorMatrix in="SourceAlpha" type="matrix" values="0 0 0 0 0 0 0 0 0 0 0 0 0 0 0 0 0 0 127 0"/>
<feOffset dx="1" dy="4"/>
<feGaussianBlur stdDeviation="5"/>
<feColorMatrix type="matrix" values="0 0 0 0 0.983333 0 0 0 0 0.807562 0 0 0 0 0.184375 0 0 0 0.4 0"/>
<feBlend mode="normal" in2="BackgroundImageFix" result="effect1_dropShadow"/>
<feBlend mode="normal" in="SourceGraphic" in2="effect1_dropShadow" result="shape"/>
</filter>
<linearGradient id="paint0_linear" x1="23.5" y1="6" x2="23.5" y2="35" gradientUnits="userSpaceOnUse">
<stop stop-color="#FFEF5A"/>
<stop offset="1" stop-color="#FBCE2F"/>
</linearGradient>
</defs>
</svg>
