<svg width="76" height="64" viewBox="0 0 76 64" fill="none" xmlns="http://www.w3.org/2000/svg">
<g filter="url(#filter0_d)">
<path d="M67.9304 48.172H16.5297C14.8348 48.172 13.4609 46.7981 13.4609 45.1033V7.06875C13.4609 5.37391 14.8348 4 16.5297 4H31.0399C32.1485 4 33.1711 4.598 33.7146 5.56436L35.4069 8.57302C35.9503 9.53938 36.9728 10.1374 38.0816 10.1374H67.9306C69.6255 10.1374 70.9994 11.5113 70.9994 13.2061V45.1033C70.9992 46.7981 69.6252 48.172 67.9304 48.172Z" fill="#FFF383"/>
<path d="M16.5297 48.1722H67.9304C69.6252 48.1722 70.9991 46.7983 70.9991 45.1035V13.2064C70.9991 11.5116 69.6252 10.1377 67.9304 10.1377H45.7484C44.6398 10.1377 43.6173 10.7357 43.0737 11.702L41.3815 14.7107C40.838 15.6771 39.8155 16.2751 38.7067 16.2751H16.5297C14.8348 16.2751 13.4609 17.649 13.4609 19.3438V45.1035C13.4609 46.7983 14.8348 48.1722 16.5297 48.1722Z" fill="url(#paint0_linear)"/>
<path d="M69.1888 10.4131C69.3626 10.7979 69.4647 11.2218 69.4647 11.6715V43.5685C69.4647 45.2632 68.0907 46.6373 66.3959 46.6373H14.9953C14.5456 46.6373 14.1217 46.5352 13.7369 46.3614C14.2181 47.4268 15.2847 48.1716 16.5297 48.1716H67.9304C69.6252 48.1716 70.9992 46.7977 70.9992 45.1029V13.2059C70.9992 11.9607 70.2545 10.8942 69.1888 10.4131Z" fill="#FEE750"/>
<path d="M30.0066 46.6572C29.8907 47.34 29.7067 47.9996 29.4587 48.6304L31.6834 50.5715C31.3715 51.2037 31.0162 51.8113 30.6062 52.3819L27.7499 51.4952C27.2994 52.0255 26.795 52.5106 26.2443 52.9444L27.1652 55.6949C26.5726 56.0897 25.9416 56.4311 25.2851 56.7322L23.2693 54.5899C22.6142 54.8287 21.93 55.0059 21.2202 55.1174L20.5857 57.9473C20.2269 57.9747 19.8666 58 19.5 58C19.1334 58 18.7731 57.9747 18.4136 57.9473L17.7791 55.1174C17.07 55.0059 16.3851 54.8287 15.7299 54.5899L13.7142 56.7322C13.0577 56.4318 12.4267 56.0897 11.8341 55.6949L12.755 52.9444C12.2043 52.5106 11.7006 52.0248 11.2501 51.4952L8.39376 52.3819C7.98379 51.8113 7.62924 51.2037 7.31661 50.5715L9.54126 48.6304C9.29329 47.9996 9.10926 47.3407 8.99345 46.6572L6.05471 46.0462C6.02629 45.6999 6 45.3531 6 45C6 44.6469 6.02629 44.3001 6.05471 43.9538L8.99345 43.3428C9.10926 42.66 9.29329 42.0004 9.54126 41.3696L7.31661 39.4285C7.62853 38.7963 7.98379 38.1887 8.39376 37.6181L11.2501 38.5048C11.7006 37.9745 12.205 37.4894 12.7557 37.0556L11.8348 34.3051C12.4274 33.9103 13.0584 33.5689 13.7149 33.2678L15.7307 35.4101C16.3858 35.1713 17.07 34.9941 17.7798 34.8826L18.4143 32.0527C18.7731 32.0253 19.1334 32 19.5 32C19.8666 32 20.2269 32.0253 20.5864 32.0527L21.2209 34.8826C21.93 34.9941 22.6149 35.1713 23.2701 35.4101L25.2858 33.2678C25.9423 33.5682 26.5733 33.9103 27.1659 34.3051L26.245 37.0556C26.7957 37.4894 27.2994 37.9752 27.7499 38.5055L30.6062 37.6187C31.0162 38.1894 31.3708 38.7969 31.6834 39.4292L29.4587 41.3703C29.7067 42.0011 29.8907 42.66 30.0066 43.3435L32.9453 43.9545C32.9737 44.3001 33 44.6469 33 45C33 45.3531 32.9737 45.6999 32.9453 46.0462L30.0066 46.6572ZM19.5 38.1579C15.5758 38.1579 12.3947 41.2211 12.3947 45C12.3947 48.7789 15.5758 51.8421 19.5 51.8421C23.4242 51.8421 26.6053 48.7789 26.6053 45C26.6053 41.2211 23.4242 38.1579 19.5 38.1579Z" fill="url(#paint1_linear)"/>
<path d="M43.5702 32.0716C43.4567 32.4241 43.3084 32.7623 43.1258 33.0807L44.2742 35.1439C43.8865 35.6034 43.4444 36.018 42.9542 36.3814L40.7535 35.3048C40.4138 35.4766 40.0531 35.6157 39.6771 35.7214L38.9324 37.9441C38.6255 37.9782 38.3156 38 38 38C37.6844 38 37.3745 37.9782 37.0684 37.9448L36.3236 35.722C35.9476 35.6164 35.5869 35.4766 35.2473 35.3055L33.0465 36.382C32.5564 36.0186 32.1142 35.6041 31.7265 35.1445L32.8749 33.0814C32.6916 32.763 32.5433 32.4248 32.4305 32.0723L30.0596 31.3741C30.0233 31.0864 30 30.7959 30 30.5C30 30.2041 30.0233 29.9136 30.0589 29.6266L32.4298 28.9284C32.5425 28.5759 32.6916 28.2377 32.8742 27.9193L31.7258 25.8561C32.1135 25.3966 32.5556 24.982 33.0458 24.6186L35.2465 25.6952C35.5862 25.5234 35.9469 25.3843 36.3229 25.2786L37.0676 23.0559C37.3745 23.0218 37.6844 23 38 23C38.3156 23 38.6255 23.0218 38.9316 23.0552L39.6764 25.278C40.0524 25.3836 40.4131 25.5234 40.7527 25.6945L42.9535 24.618C43.4436 24.9814 43.8858 25.3959 44.2735 25.8555L43.1251 27.9186C43.3084 28.237 43.4567 28.5752 43.5695 28.9277L45.9404 29.6259C45.9767 29.9136 46 30.2041 46 30.5C46 30.7959 45.9767 31.0864 45.9411 31.3734L43.5702 32.0716ZM38 27.7727C36.3935 27.7727 35.0909 28.9939 35.0909 30.5C35.0909 32.0061 36.3935 33.2273 38 33.2273C39.6065 33.2273 40.9091 32.0061 40.9091 30.5C40.9091 28.9939 39.6065 27.7727 38 27.7727Z" fill="url(#paint2_linear)"/>
<path d="M49.2414 45.8513C49.1217 46.2521 48.9529 46.632 48.7367 46.9866L49.5106 48.4989C49.159 48.9157 48.7553 49.2905 48.3066 49.6169L46.6779 48.8983C46.2968 49.0991 45.8869 49.2558 45.4552 49.3671L44.8501 50.9473C44.5709 50.9791 44.2886 51 44 51C43.7114 51 43.4291 50.9791 43.1499 50.9473L42.5448 49.3671C42.1131 49.2558 41.704 49.0991 41.3221 48.8983L39.6934 49.6169C39.2447 49.2905 38.841 48.9157 38.4894 48.4989L39.2633 46.9866C39.0471 46.6327 38.8783 46.2521 38.7586 45.852L37.0568 45.2901C37.0226 45.0301 37 44.7679 37 44.5C37 44.2321 37.0226 43.9699 37.0568 43.7106L38.7586 43.1487C38.8783 42.7479 39.0471 42.368 39.2633 42.0141L38.4894 40.5018C38.841 40.0851 39.2447 39.7102 39.6934 39.3838L41.3221 40.1024C41.7032 39.9016 42.1131 39.7449 42.5448 39.6337L43.1499 38.0534C43.4291 38.0209 43.7114 38 44 38C44.2886 38 44.5709 38.0209 44.8501 38.0527L45.4552 39.6329C45.8869 39.7442 46.296 39.9009 46.6779 40.1017L48.3066 39.3831C48.7553 39.7095 49.159 40.0843 49.5106 40.5011L48.7367 42.0134C48.9529 42.3673 49.1217 42.7479 49.2414 43.1487L50.9432 43.7106C50.9774 43.9699 51 44.2321 51 44.5C51 44.7679 50.9774 45.0301 50.9432 45.2894L49.2414 45.8513ZM44 42.3333C42.7112 42.3333 41.6667 43.3033 41.6667 44.5C41.6667 45.6967 42.7112 46.6667 44 46.6667C45.2888 46.6667 46.3333 45.6967 46.3333 44.5C46.3333 43.3033 45.2888 42.3333 44 42.3333Z" fill="url(#paint3_linear)"/>
<path d="M57.5454 38.6661L53.2448 37.8062L52.3848 42.1061L53.7948 42.3887L54.1824 40.453C54.8792 41.9026 55.2473 43.5004 55.2473 45.1233C55.2473 47.6026 54.429 49.9338 52.8816 51.8645L54.0041 52.764C55.7334 50.6061 56.6855 47.8931 56.6855 45.1233C56.6855 43.2401 56.2504 41.3835 55.4228 39.7081L57.2636 40.0762L57.5454 38.6661Z" fill="url(#paint4_linear)"/>
<path d="M20.5928 22.6152L19.576 23.632L20.5532 24.6092C20.1578 24.584 19.7616 24.5617 19.3654 24.5617C13.8027 24.5617 8.56653 27.0144 5 31.2914L6.10447 32.2125C9.39704 28.2642 14.2298 25.9998 19.3654 25.9998C19.7314 25.9998 20.0966 26.0207 20.4619 26.0437L19.576 26.9296L20.5928 27.9463L23.2583 25.2808L20.5928 22.6152Z" fill="url(#paint5_linear)"/>
</g>
<defs>
<filter id="filter0_d" x="0" y="0" width="75.9994" height="64" filterUnits="userSpaceOnUse" color-interpolation-filters="sRGB">
<feFlood flood-opacity="0" result="BackgroundImageFix"/>
<feColorMatrix in="SourceAlpha" type="matrix" values="0 0 0 0 0 0 0 0 0 0 0 0 0 0 0 0 0 0 127 0"/>
<feOffset dy="1"/>
<feGaussianBlur stdDeviation="2.5"/>
<feColorMatrix type="matrix" values="0 0 0 0 0 0 0 0 0 0 0 0 0 0 0 0 0 0 0.15 0"/>
<feBlend mode="normal" in2="BackgroundImageFix" result="effect1_dropShadow"/>
<feBlend mode="normal" in="SourceGraphic" in2="effect1_dropShadow" result="shape"/>
</filter>
<linearGradient id="paint0_linear" x1="42.23" y1="10.1377" x2="42.23" y2="48.1722" gradientUnits="userSpaceOnUse">
<stop stop-color="#FFEF5A"/>
<stop offset="1" stop-color="#FBCE2F"/>
</linearGradient>
<linearGradient id="paint1_linear" x1="6" y1="45.0001" x2="33.0103" y2="44.9461" gradientUnits="userSpaceOnUse">
<stop stop-color="#996C84"/>
<stop offset="1" stop-color="#882F5E"/>
</linearGradient>
<linearGradient id="paint2_linear" x1="30" y1="30.5" x2="46.0061" y2="30.4672" gradientUnits="userSpaceOnUse">
<stop stop-color="#996C84"/>
<stop offset="1" stop-color="#882F5E"/>
</linearGradient>
<linearGradient id="paint3_linear" x1="37" y1="44.5" x2="51.0053" y2="44.471" gradientUnits="userSpaceOnUse">
<stop stop-color="#996C84"/>
<stop offset="1" stop-color="#882F5E"/>
</linearGradient>
<linearGradient id="paint4_linear" x1="52.3848" y1="45.2851" x2="57.5474" y2="45.2817" gradientUnits="userSpaceOnUse">
<stop stop-color="#996C84"/>
<stop offset="1" stop-color="#882F5E"/>
</linearGradient>
<linearGradient id="paint5_linear" x1="5" y1="27.4139" x2="23.2651" y2="27.3471" gradientUnits="userSpaceOnUse">
<stop stop-color="#996C84"/>
<stop offset="1" stop-color="#882F5E"/>
</linearGradient>
</defs>
</svg>
