<svg width="18" height="18" viewBox="0 0 18 18" fill="none" xmlns="http://www.w3.org/2000/svg">
<path fill-rule="evenodd" clip-rule="evenodd" d="M12.25 11.9363V13.5C12.25 15.1569 10.9069 16.5 9.25 16.5C7.59315 16.5 6.25 15.1569 6.25 13.5V11.9363C6.25 11.7898 6.19812 11.63 6.0756 11.4196C5.99687 11.2845 5.89388 11.136 5.7385 10.9305L5.68617 10.8622L5.68609 10.8621C5.58227 10.7268 5.35584 10.4317 5.27223 10.3187C4.42483 9.17417 4 8.1524 4 6.75C4 3.85051 6.35051 1.5 9.25 1.5C12.1495 1.5 14.5 3.85051 14.5 6.75C14.5 8.18307 14.0694 9.24362 13.2292 10.386C13.1401 10.5071 12.9155 10.799 12.7824 10.9719L12.7824 10.972L12.7824 10.972C12.7303 11.0397 12.6923 11.0891 12.6819 11.1029C12.5121 11.3287 12.4067 11.4889 12.3381 11.6279C12.276 11.7538 12.25 11.851 12.25 11.9363ZM10.8186 11.4206C10.8594 11.2676 10.9179 11.1161 10.9929 10.9642C11.1112 10.7242 11.2618 10.4956 11.4828 10.2015C11.498 10.1813 11.5469 10.1177 11.6101 10.0356L11.6101 10.0355C11.7452 9.85995 11.9454 9.59958 12.0208 9.49715C12.6873 8.59098 13 7.82081 13 6.74989C13 4.67882 11.321 2.99989 9.24997 2.99989C7.1789 2.99989 5.49997 4.67882 5.49997 6.74989C5.49997 7.7838 5.80497 8.51735 6.47774 9.42604C6.54998 9.52361 6.754 9.78962 6.86416 9.93324L6.93508 10.0258C7.12353 10.2751 7.25685 10.4673 7.37173 10.6646C7.57811 11.0189 7.70448 11.3629 7.73978 11.7255C8.13089 11.9094 8.54857 12.0001 9 12.0001C9.66658 12.0001 10.2596 11.8024 10.8021 11.3985L10.8186 11.4206ZM10.75 13.4999V13.1494C10.2028 13.3825 9.61758 13.5001 9 13.5001C8.56673 13.5001 8.14942 13.4422 7.74997 13.3272V13.4999C7.74997 14.3283 8.42154 14.9999 9.24997 14.9999C10.0784 14.9999 10.75 14.3283 10.75 13.4999Z" fill="#996C84"/>
</svg>
