<svg width="146" height="51" viewBox="0 0 146 51" fill="none" xmlns="http://www.w3.org/2000/svg">
<g filter="url(#filter0_d)">
<path d="M134.241 6H9.75939C8.23542 6 7 7.84518 7 10.1213V36.8787C7 39.1548 8.23542 41 9.75939 41H134.241C135.765 41 137 39.1548 137 36.8787V10.1213C137 7.84518 135.765 6 134.241 6Z" fill="url(#paint0_linear)"/>
<path d="M9.75939 6.5H134.241C134.784 6.5 135.337 6.82915 135.776 7.48529C136.213 8.13812 136.5 9.06864 136.5 10.1213V36.8787C136.5 37.9314 136.213 38.8619 135.776 39.5147C135.337 40.1709 134.784 40.5 134.241 40.5H9.75939C9.21559 40.5 8.66299 40.1709 8.22368 39.5147C7.78658 38.8619 7.5 37.9314 7.5 36.8787V10.1213C7.5 9.06864 7.78658 8.13812 8.22368 7.48529C8.66299 6.82915 9.21559 6.5 9.75939 6.5Z" stroke="#FBCE2F"/>
</g>
<path d="M52.1265 27.2168H47.6587L46.6553 30H45.2051L49.2773 19.3359H50.5078L54.5874 30H53.1445L52.1265 27.2168ZM48.0835 26.0596H51.709L49.8926 21.0718L48.0835 26.0596ZM57.0923 22.0752L57.1362 23.0713C57.7417 22.3096 58.5327 21.9287 59.5093 21.9287C61.1841 21.9287 62.0288 22.8735 62.0435 24.7632V30H60.6885V24.7559C60.6836 24.1846 60.5518 23.7622 60.293 23.4888C60.0391 23.2153 59.6411 23.0786 59.0991 23.0786C58.6597 23.0786 58.2739 23.1958 57.9419 23.4302C57.6099 23.6646 57.3511 23.9722 57.1655 24.353V30H55.8105V22.0752H57.0923ZM68.9795 30C68.9014 29.8438 68.8379 29.5654 68.7891 29.165C68.1592 29.8193 67.4072 30.1465 66.5332 30.1465C65.752 30.1465 65.1099 29.9268 64.6069 29.4873C64.1089 29.043 63.8599 28.4814 63.8599 27.8027C63.8599 26.9775 64.1724 26.3379 64.7974 25.8838C65.4272 25.4248 66.311 25.1953 67.4487 25.1953H68.7671V24.5728C68.7671 24.0991 68.6255 23.7231 68.3423 23.4448C68.0591 23.1616 67.6416 23.02 67.0898 23.02C66.6064 23.02 66.2012 23.1421 65.874 23.3862C65.5469 23.6304 65.3833 23.9258 65.3833 24.2725H64.021C64.021 23.877 64.1602 23.4961 64.4385 23.1299C64.7217 22.7588 65.1025 22.4658 65.5811 22.251C66.0645 22.0361 66.5942 21.9287 67.1704 21.9287C68.0835 21.9287 68.7988 22.1582 69.3164 22.6172C69.834 23.0713 70.1025 23.6987 70.1221 24.4995V28.147C70.1221 28.8745 70.2148 29.4531 70.4004 29.8828V30H68.9795ZM66.731 28.9673C67.1558 28.9673 67.5586 28.8574 67.9395 28.6377C68.3203 28.418 68.5962 28.1323 68.7671 27.7808V26.1548H67.7051C66.0449 26.1548 65.2148 26.6406 65.2148 27.6123C65.2148 28.0371 65.3564 28.3691 65.6396 28.6084C65.9229 28.8477 66.2866 28.9673 66.731 28.9673ZM73.7183 30H72.3633V18.75H73.7183V30ZM78.4863 28.0151L80.332 22.0752H81.7822L78.5962 31.2231C78.103 32.5415 77.3193 33.2007 76.2451 33.2007L75.9888 33.1787L75.4834 33.0835V31.9849L75.8496 32.0142C76.3086 32.0142 76.665 31.9214 76.9189 31.7358C77.1777 31.5503 77.3901 31.2109 77.5562 30.7178L77.8564 29.9121L75.0293 22.0752H76.5088L78.4863 28.0151ZM87.6123 27.8979C87.6123 27.5317 87.4731 27.2485 87.1948 27.0483C86.9214 26.8433 86.4404 26.6675 85.752 26.521C85.0684 26.3745 84.5239 26.1987 84.1187 25.9937C83.7183 25.7886 83.4204 25.5444 83.2251 25.2612C83.0347 24.978 82.9395 24.6411 82.9395 24.2505C82.9395 23.6011 83.2129 23.0518 83.7598 22.6025C84.3115 22.1533 85.0146 21.9287 85.8691 21.9287C86.7676 21.9287 87.4951 22.1606 88.0518 22.6245C88.6133 23.0884 88.894 23.6816 88.894 24.4043H87.5317C87.5317 24.0332 87.373 23.7134 87.0557 23.4448C86.7432 23.1763 86.3477 23.042 85.8691 23.042C85.376 23.042 84.9902 23.1494 84.7119 23.3643C84.4336 23.5791 84.2944 23.8599 84.2944 24.2065C84.2944 24.5337 84.4238 24.7803 84.6826 24.9463C84.9414 25.1123 85.4077 25.271 86.0815 25.4224C86.7603 25.5737 87.3096 25.7544 87.7295 25.9644C88.1494 26.1743 88.4595 26.4282 88.6597 26.7261C88.8647 27.019 88.9673 27.3779 88.9673 27.8027C88.9673 28.5107 88.6841 29.0796 88.1177 29.5093C87.5513 29.9341 86.8164 30.1465 85.9131 30.1465C85.2783 30.1465 84.7168 30.0342 84.2285 29.8096C83.7402 29.585 83.3569 29.2725 83.0786 28.8721C82.8052 28.4668 82.6685 28.0298 82.6685 27.561H84.0234C84.0479 28.0151 84.2285 28.3765 84.5654 28.645C84.9072 28.9087 85.3564 29.0405 85.9131 29.0405C86.4258 29.0405 86.8359 28.938 87.1436 28.7329C87.4561 28.5229 87.6123 28.2446 87.6123 27.8979ZM94.021 30.1465C92.9468 30.1465 92.0728 29.7949 91.3989 29.0918C90.7251 28.3838 90.3882 27.439 90.3882 26.2573V26.0083C90.3882 25.2222 90.5371 24.5215 90.835 23.9062C91.1377 23.2861 91.5576 22.8027 92.0947 22.4561C92.6367 22.1045 93.2227 21.9287 93.8525 21.9287C94.8828 21.9287 95.6836 22.2681 96.2549 22.9468C96.8262 23.6255 97.1118 24.5972 97.1118 25.8618V26.4258H91.7432C91.7627 27.207 91.9897 27.8394 92.4243 28.3228C92.8638 28.8013 93.4204 29.0405 94.0942 29.0405C94.5728 29.0405 94.978 28.9429 95.3101 28.7476C95.6421 28.5522 95.9326 28.2935 96.1816 27.9712L97.0093 28.6157C96.3452 29.6362 95.3491 30.1465 94.021 30.1465ZM93.8525 23.042C93.3057 23.042 92.8467 23.2422 92.4756 23.6426C92.1045 24.0381 91.875 24.5947 91.7871 25.3125H95.7568V25.21C95.7178 24.5215 95.5322 23.9893 95.2002 23.6133C94.8682 23.2324 94.4189 23.042 93.8525 23.042Z" fill="#4B4B4B"/>
<defs>
<filter id="filter0_d" x="0" y="0" width="146" height="51" filterUnits="userSpaceOnUse" color-interpolation-filters="sRGB">
<feFlood flood-opacity="0" result="BackgroundImageFix"/>
<feColorMatrix in="SourceAlpha" type="matrix" values="0 0 0 0 0 0 0 0 0 0 0 0 0 0 0 0 0 0 127 0"/>
<feOffset dx="1" dy="2"/>
<feGaussianBlur stdDeviation="4"/>
<feColorMatrix type="matrix" values="0 0 0 0 0.0216884 0 0 0 0 0.00234374 0 0 0 0 0.1875 0 0 0 0.15 0"/>
<feBlend mode="normal" in2="BackgroundImageFix" result="effect1_dropShadow"/>
<feBlend mode="normal" in="SourceGraphic" in2="effect1_dropShadow" result="shape"/>
</filter>
<linearGradient id="paint0_linear" x1="72" y1="6" x2="72" y2="41" gradientUnits="userSpaceOnUse">
<stop stop-color="#FEFEFE" stop-opacity="0.95"/>
<stop offset="1" stop-color="#FFF8DF"/>
</linearGradient>
</defs>
</svg>
