<svg width="20" height="20" viewBox="0 0 20 20" fill="none" xmlns="http://www.w3.org/2000/svg">
<path d="M8.00049 11.1404C8.39601 11.6728 8.90063 12.1134 9.48012 12.4322C10.0596 12.7511 10.7004 12.9407 11.359 12.9882C12.0177 13.0357 12.6788 12.94 13.2975 12.7076C13.9162 12.4751 14.478 12.1115 14.9448 11.6412L17.7078 8.85882C18.5466 7.98423 19.0108 6.81284 19.0003 5.59697C18.9898 4.38109 18.5055 3.21801 17.6517 2.35822C16.7979 1.49844 15.6429 1.01074 14.4355 1.00018C13.2281 0.98961 12.0649 1.45702 11.1964 2.30173L9.61224 3.88768" stroke="#424242" stroke-width="2" stroke-linecap="round" stroke-linejoin="round"/>
<path d="M12 8.85964C11.6045 8.32717 11.0999 7.88658 10.5204 7.56776C9.94088 7.24894 9.30009 7.05935 8.64144 7.01185C7.98279 6.96435 7.32171 7.06004 6.70302 7.29245C6.08433 7.52486 5.52251 7.88853 5.05567 8.35882L2.29268 11.1412C1.45384 12.0158 0.989682 13.1872 1.00017 14.403C1.01067 15.6189 1.49497 16.782 2.34877 17.6418C3.20257 18.5016 4.35756 18.9893 5.56498 18.9998C6.77239 19.0104 7.93562 18.543 8.80413 17.6983L10.379 16.1123" stroke="#424242" stroke-width="2" stroke-linecap="round" stroke-linejoin="round"/>
</svg>
