<svg width="20" height="16" viewBox="0 0 20 16" fill="none" xmlns="http://www.w3.org/2000/svg">
<path d="M13.4444 14.9999V13.4444C13.4444 12.6192 13.1166 11.8279 12.5332 11.2445C11.9497 10.661 11.1584 10.3333 10.3333 10.3333H4.1111C3.28599 10.3333 2.49466 10.661 1.91122 11.2445C1.32778 11.8279 1 12.6192 1 13.4444V14.9999" stroke="#88305F" stroke-width="1.5" stroke-linecap="round" stroke-linejoin="round"/>
<path d="M7.22218 7.2222C8.9404 7.2222 10.3333 5.82931 10.3333 4.1111C10.3333 2.39289 8.9404 1 7.22218 1C5.50397 1 4.11108 2.39289 4.11108 4.1111C4.11108 5.82931 5.50397 7.2222 7.22218 7.2222Z" stroke="#88305F" stroke-width="1.5" stroke-linecap="round" stroke-linejoin="round"/>
<path d="M14.0393 5.918L15.6104 7.50585L18.7861 4.36356" stroke="#88305F" stroke-width="1.5" stroke-linecap="round" stroke-linejoin="round"/>
</svg>
