<svg width="20" height="18" viewBox="0 0 20 18" fill="none" xmlns="http://www.w3.org/2000/svg">
<path d="M3.7 13.6H2.8C2.32261 13.6 1.86477 13.4104 1.52721 13.0728C1.18964 12.7352 1 12.2774 1 11.8V2.8C1 2.32261 1.18964 1.86477 1.52721 1.52721C1.86477 1.18964 2.32261 1 2.8 1H17.2C17.6774 1 18.1352 1.18964 18.4728 1.52721C18.8104 1.86477 19 2.32261 19 2.8V11.8C19 12.2774 18.8104 12.7352 18.4728 13.0728C18.1352 13.4104 17.6774 13.6 17.2 13.6H16.3" stroke="url(#paint0_linear)" stroke-width="1.5" stroke-linecap="round" stroke-linejoin="round"/>
<path d="M10 11.8L14.5 17.2H5.5L10 11.8Z" stroke="url(#paint1_linear)" stroke-width="1.5" stroke-linecap="round" stroke-linejoin="round"/>
<defs>
<linearGradient id="paint0_linear" x1="10" y1="1" x2="10" y2="13.6" gradientUnits="userSpaceOnUse">
<stop stop-color="#1B286E"/>
<stop offset="1" stop-color="#2040EB"/>
</linearGradient>
<linearGradient id="paint1_linear" x1="10" y1="11.8" x2="10" y2="17.2" gradientUnits="userSpaceOnUse">
<stop stop-color="#1B286E"/>
<stop offset="1" stop-color="#2040EB"/>
</linearGradient>
</defs>
</svg>
