<svg width="15" height="17" viewBox="0 0 15 17" fill="none" xmlns="http://www.w3.org/2000/svg">
<path d="M12.142 15.4975H0.934001V2.11013H10.5853V1.19342H0.726445C0.32863 1.19342 0 1.52205 0 1.91987V15.705C0 16.1201 0.32863 16.4315 0.726445 16.4315H12.3496C12.7474 16.4315 13.076 16.1028 13.076 15.705V10.101C12.7474 10.101 12.4188 9.99725 12.142 9.78969V15.4975Z" fill="#88305F"/>
<path d="M14.7366 0.743742C14.7366 0.553482 14.6675 0.363223 14.5118 0.224852C14.3561 0.0864816 14.1832 0 13.9929 0H12.1768C11.9865 0 11.7963 0.0691853 11.6579 0.224852C11.5195 0.363223 11.433 0.553482 11.433 0.743742V7.48931C11.433 7.66227 11.5022 7.85253 11.6233 7.9736L12.54 9.01138C12.6784 9.16705 12.8859 9.27083 13.0935 9.27083C13.2838 9.27083 13.474 9.18435 13.6124 9.04598C13.6297 9.02868 13.6297 9.02868 13.647 9.01138L14.5637 7.9736C14.6848 7.83523 14.7539 7.66227 14.7539 7.48931L14.7366 0.743742ZM13.8026 0.934001V1.74693H12.3498V0.934001H13.8026ZM13.8026 2.66363V6.03642H12.3498V2.66363H13.8026ZM13.0762 8.23305L12.3498 7.40283V6.97042H13.8026V7.42012L13.0762 8.23305Z" fill="#88305F"/>
<path d="M9.87597 4.16846H5.44811C5.18867 4.16846 4.98111 4.37601 4.98111 4.63546C4.98111 4.8949 5.18867 5.10246 5.44811 5.10246H9.87597C10.1354 5.10246 10.343 4.8949 10.343 4.63546C10.343 4.37601 10.1354 4.16846 9.87597 4.16846Z" fill="#88305F"/>
<path d="M9.87606 8.10254H5.4482C5.18876 8.10254 4.9812 8.3101 4.9812 8.56954C4.9812 8.82898 5.18876 9.03654 5.4482 9.03654H9.87606C10.1355 9.03654 10.3431 8.82898 10.3431 8.56954C10.3431 8.3101 10.1355 8.10254 9.87606 8.10254Z" fill="#88305F"/>
<path d="M9.87606 12.0366H5.4482C5.18876 12.0366 4.9812 12.2442 4.9812 12.5036C4.9812 12.7631 5.18876 12.9706 5.4482 12.9706H9.87606C10.1355 12.9706 10.3431 12.7631 10.3431 12.5036C10.3431 12.2442 10.1355 12.0366 9.87606 12.0366Z" fill="#88305F"/>
<path d="M3.59757 4.16846H3.19976C2.94031 4.16846 2.73276 4.37601 2.73276 4.63546C2.73276 4.8949 2.94031 5.10246 3.19976 5.10246H3.59757C3.85702 5.10246 4.06457 4.8949 4.06457 4.63546C4.06457 4.37601 3.85702 4.16846 3.59757 4.16846Z" fill="#88305F"/>
<path d="M3.59748 8.10254H3.19967C2.94022 8.10254 2.73267 8.3101 2.73267 8.56954C2.73267 8.82898 2.94022 9.03654 3.19967 9.03654H3.59748C3.85693 9.03654 4.06448 8.82898 4.06448 8.56954C4.06448 8.3101 3.85693 8.10254 3.59748 8.10254Z" fill="#88305F"/>
<path d="M3.59748 12.0366H3.19967C2.94022 12.0366 2.73267 12.2442 2.73267 12.5036C2.73267 12.7631 2.94022 12.9706 3.19967 12.9706H3.59748C3.85693 12.9706 4.06448 12.7631 4.06448 12.5036C4.06448 12.2442 3.85693 12.0366 3.59748 12.0366Z" fill="#88305F"/>
</svg>
