<svg width="15" height="14" viewBox="0 0 15 14" fill="none" xmlns="http://www.w3.org/2000/svg">
<path d="M14.1111 11.4889C14.1111 11.8366 13.973 12.1701 13.7271 12.416C13.4812 12.6619 13.1477 12.8 12.8 12.8H2.31111C1.96338 12.8 1.6299 12.6619 1.38402 12.416C1.13813 12.1701 1 11.8366 1 11.4889V2.31111C1 1.96338 1.13813 1.6299 1.38402 1.38402C1.6299 1.13813 1.96338 1 2.31111 1H5.58889L6.9 2.96667H12.8C13.1477 2.96667 13.4812 3.1048 13.7271 3.35068C13.973 3.59656 14.1111 3.93005 14.1111 4.27778V11.4889Z" stroke="#88305F" stroke-width="1.5" stroke-linecap="round" stroke-linejoin="round"/>
<path d="M7.55566 6.24438V10.1777" stroke="#88305F" stroke-width="1.5" stroke-linecap="round" stroke-linejoin="round"/>
<path d="M5.58887 8.21118H9.5222" stroke="#88305F" stroke-width="1.5" stroke-linecap="round" stroke-linejoin="round"/>
</svg>
