<svg width="13" height="15" viewBox="0 0 13 15" fill="none" xmlns="http://www.w3.org/2000/svg">
<path d="M2.5119 9.8879C2.97194 10.5136 3.84564 10.6432 4.4604 10.1693C4.86983 9.85364 5.0603 9.34949 5.0045 8.86242C5.4033 8.79291 5.7887 8.67924 6.15514 8.526L10.4976 14.4326C10.9577 15.0587 11.8315 15.1877 12.4461 14.714C13.0589 14.2414 13.1822 13.3463 12.7207 12.7186L8.37841 6.81196C8.62334 6.49371 8.83652 6.14603 9.012 5.77287C9.459 5.96483 9.98402 5.91054 10.3889 5.59835C11.0018 5.12575 11.1251 4.23064 10.6636 3.60293L8.43191 0.567313C7.97042 -0.0603919 7.09636 -0.186551 6.48341 0.286052C6.07398 0.601698 5.88351 1.10572 5.93931 1.59279C4.19167 1.89768 2.70164 3.04635 1.93205 4.68184C1.4859 4.49025 0.963171 4.5422 0.554944 4.85686C-0.0594493 5.33057 -0.1824 6.22309 0.280176 6.85228L2.5119 9.8879ZM7.73382 7.51462L8.35317 8.35704L7.61208 8.92834L6.99273 8.08604C7.25518 7.91746 7.50302 7.72624 7.73382 7.51462ZM11.8881 13.9551C11.6837 14.1126 11.3924 14.0706 11.2385 13.8613L8.16995 9.68728L8.91104 9.11598L11.9796 13.2899C12.1335 13.4992 12.0923 13.7975 11.8881 13.9551ZM7.0414 1.04499C7.24636 0.886917 7.53756 0.930207 7.69094 1.13874L9.92254 4.17436C10.0764 4.38351 10.0353 4.68197 9.831 4.83942C9.62628 4.99736 9.33581 4.95544 9.18158 4.74566L6.94986 1.71005C6.79599 1.50077 6.83705 1.20244 7.0414 1.04499ZM6.36276 2.49075C6.56361 2.7641 8.08226 4.82989 8.2865 5.10757C7.6535 6.68332 6.23534 7.77708 4.58117 7.96446L2.65743 5.34752C3.29115 3.76991 4.70702 2.67838 6.36276 2.49075ZM1.11294 5.61579C1.31717 5.45822 1.60788 5.4994 1.76235 5.70955L3.99408 8.74517C3.99408 8.74517 3.99408 8.74517 3.99408 8.74529C4.14782 8.95444 4.10676 9.25277 3.90253 9.41035C3.69817 9.5678 3.40686 9.52575 3.25299 9.31659L1.02127 6.28097C0.867153 6.0712 0.908097 5.77374 1.11294 5.61579Z" fill="#88305F"/>
</svg>
