<svg width="14" height="14" viewBox="0 0 14 14" fill="none" xmlns="http://www.w3.org/2000/svg">
<path d="M11.5007 5.08325H6.25065C5.60632 5.08325 5.08398 5.60559 5.08398 6.24992V11.4999C5.08398 12.1443 5.60632 12.6666 6.25065 12.6666H11.5007C12.145 12.6666 12.6673 12.1443 12.6673 11.4999V6.24992C12.6673 5.60559 12.145 5.08325 11.5007 5.08325Z" stroke="#88305F" stroke-width="1.5" stroke-linecap="round" stroke-linejoin="round"/>
<path d="M2.75 8.58333H2.16667C1.85725 8.58333 1.5605 8.46042 1.34171 8.24162C1.12292 8.02283 1 7.72609 1 7.41667V2.16667C1 1.85725 1.12292 1.5605 1.34171 1.34171C1.5605 1.12292 1.85725 1 2.16667 1H7.41667C7.72609 1 8.02283 1.12292 8.24162 1.34171C8.46042 1.5605 8.58333 1.85725 8.58333 2.16667V2.75" stroke="#88305F" stroke-width="1.5" stroke-linecap="round" stroke-linejoin="round"/>
</svg>
