<svg width="14" height="14" viewBox="0 0 14 14" fill="none" xmlns="http://www.w3.org/2000/svg">
<path d="M1.75 3.5H2.91667H12.25" stroke="#BDBDBD" stroke-width="1.5" stroke-linecap="round" stroke-linejoin="round"/>
<path d="M4.66602 3.50008V2.33341C4.66602 2.024 4.78893 1.72725 5.00772 1.50846C5.22652 1.28966 5.52326 1.16675 5.83268 1.16675H8.16602C8.47544 1.16675 8.77218 1.28966 8.99097 1.50846C9.20977 1.72725 9.33268 2.024 9.33268 2.33341V3.50008M11.0827 3.50008V11.6667C11.0827 11.9762 10.9598 12.2729 10.741 12.4917C10.5222 12.7105 10.2254 12.8334 9.91602 12.8334H4.08268C3.77326 12.8334 3.47652 12.7105 3.25772 12.4917C3.03893 12.2729 2.91602 11.9762 2.91602 11.6667V3.50008H11.0827Z" stroke="#BDBDBD" stroke-width="1.5" stroke-linecap="round" stroke-linejoin="round"/>
</svg>
