<svg width="12" height="10" viewBox="0 0 12 10" fill="none" xmlns="http://www.w3.org/2000/svg">
<path d="M5.2212 0.905815V0.474662C5.2212 0.212523 5.0087 0 4.74654 0H0.474662C0.212498 0 0 0.212498 0 0.474662V3.2683H11.8664V1.69692C11.8664 1.43478 11.6539 1.22226 11.3917 1.22226H5.53764C5.36288 1.22226 5.2212 1.08058 5.2212 0.905815Z" fill="#EBBA16"/>
<path d="M11.2335 9.99999H0.632882C0.283348 9.99999 0 9.71664 0 9.36711V3.15535H5.23891C5.3724 3.15535 5.49973 3.09915 5.58966 3.0005L6.17281 2.36091C6.26274 2.26226 6.39007 2.20605 6.52356 2.20605H11.8664V9.36711C11.8664 9.71664 11.583 9.99999 11.2335 9.99999Z" fill="#FCD462"/>
</svg>
