<svg width="13" height="14" viewBox="0 0 13 14" fill="none" xmlns="http://www.w3.org/2000/svg">
<path d="M1 3.16675H2.16667H11.5" stroke="#88305F" stroke-width="1.5" stroke-linecap="round" stroke-linejoin="round"/>
<path d="M3.9165 3.16683V2.00016C3.9165 1.69074 4.03942 1.394 4.25821 1.1752C4.47701 0.956412 4.77375 0.833496 5.08317 0.833496H7.4165C7.72592 0.833496 8.02267 0.956412 8.24146 1.1752C8.46026 1.394 8.58317 1.69074 8.58317 2.00016V3.16683M10.3332 3.16683V11.3335C10.3332 11.6429 10.2103 11.9397 9.99146 12.1585C9.77267 12.3772 9.47592 12.5002 9.16651 12.5002H3.33317C3.02375 12.5002 2.72701 12.3772 2.50821 12.1585C2.28942 11.9397 2.1665 11.6429 2.1665 11.3335V3.16683H10.3332Z" stroke="#88305F" stroke-width="1.5" stroke-linecap="round" stroke-linejoin="round"/>
</svg>
