<svg width="11" height="11" viewBox="0 0 11 11" fill="none" xmlns="http://www.w3.org/2000/svg">
<path d="M0.31226 9.17761L4.09607 5.3938L5.60624 6.90396L1.82245 10.6878C1.61427 10.896 1.34081 11.0001 1.06737 11.0001C0.793924 11.0001 0.520459 10.896 0.312284 10.6878C-0.104091 10.2714 -0.104091 9.59396 0.31226 9.17761Z" fill="#88305F"/>
<path d="M4.09131 4.38586L6.60928 1.86789L9.13143 4.39005L6.61346 6.90802L4.09131 4.38586Z" fill="#88305F"/>
<path d="M10.3898 4.63863L10.8959 5.14481C11.0346 5.28344 11.0346 5.50818 10.8959 5.64681L7.8714 8.67135C7.80208 8.74066 7.71124 8.77533 7.62041 8.77533C7.52959 8.77533 7.43872 8.74068 7.36943 8.67135L6.86325 8.16517C6.72462 8.02654 6.72462 7.8018 6.86325 7.66318L9.88776 4.63866C10.0264 4.50001 10.2511 4.50001 10.3898 4.63863Z" fill="#88305F"/>
<path d="M3.33675 4.13667C3.19813 4.2753 2.97338 4.2753 2.83476 4.13667L2.32858 3.63049C2.18995 3.49187 2.18995 3.26713 2.32858 3.1285L5.3531 0.10396C5.49167 -0.0346417 5.71644 -0.0346653 5.85509 0.10396L6.36127 0.610141C6.49989 0.748767 6.49989 0.973507 6.36127 1.11213L3.33675 4.13667Z" fill="#88305F"/>
</svg>
