<svg width="9" height="9" viewBox="0 0 9 9" fill="none" xmlns="http://www.w3.org/2000/svg">
<path d="M2.99212 4.47422L0.326588 1.8087C0.230952 1.71326 0.155176 1.59981 0.103481 1.47493C0.051787 1.35005 0.0253647 1.21604 0.0254954 1.08074C0.0256262 0.945427 0.0523625 0.811432 0.104292 0.686341C0.156235 0.561237 0.232338 0.447468 0.328157 0.351649C0.423976 0.255831 0.537563 0.17991 0.662667 0.127981C0.787759 0.0760382 0.921937 0.049119 1.05725 0.0489882C1.19255 0.0488575 1.32637 0.0754762 1.45126 0.12717C1.57614 0.178852 1.68959 0.254641 1.78501 0.350277L4.45054 3.0158L7.16409 0.302256C7.35775 0.109011 7.62003 0.000275025 7.8932 4.72479e-07C8.16638 -0.000261006 8.42808 0.108017 8.62095 0.300883L8.69911 0.379052C8.89199 0.571931 9.00027 0.833619 9 1.1068C8.99974 1.37998 8.891 1.64224 8.69776 1.8359L5.98421 4.54945L8.64972 7.21495C8.74537 7.31041 8.82115 7.42382 8.87287 7.54876C8.92452 7.6736 8.95118 7.80746 8.95105 7.94276C8.95092 8.07808 8.92393 8.21219 8.87203 8.33732C8.82013 8.46244 8.74418 8.57601 8.64836 8.67183C8.55254 8.76765 8.43879 8.84378 8.31366 8.89568C8.18854 8.94759 8.05461 8.97439 7.91929 8.97452C7.78399 8.97465 7.64994 8.94819 7.52509 8.89652C7.40017 8.8448 7.28675 8.76904 7.1913 8.67337L4.52578 6.00787L1.83654 8.6971C1.64294 8.8907 1.38073 8.99958 1.10735 9C0.833975 9.00043 0.571934 8.89225 0.378923 8.69923L0.300754 8.62107C0.107744 8.42805 -0.000417157 8.16604 1.20917e-06 7.89265C0.000419575 7.61928 0.109273 7.35705 0.302885 7.16346L2.99212 4.47422Z" fill="#FBFBFB"/>
</svg>
