<svg width="55" height="62" viewBox="0 0 55 62" fill="none" xmlns="http://www.w3.org/2000/svg">
<rect x="4" y="9" width="47" height="49" fill="#FFF383"/>
<path d="M5.55191 61.4569H49.4481C52.51 61.4569 55 58.9696 55 55.905V11.1899C55 8.128 52.51 5.63797 49.4481 5.63797H39.7322V2.77596C39.7322 1.24363 38.4914 0 36.9563 0C35.4212 0 34.1803 1.24363 34.1803 2.77596V5.63797H22.7267V2.77596C22.7267 1.24363 21.4859 0 19.9508 0C18.4157 0 17.1748 1.24363 17.1748 2.77596V5.63797H5.55191C2.49003 5.63797 0 8.128 0 11.1899V55.905C0 58.9696 2.49003 61.4569 5.55191 61.4569ZM5.55191 11.1899H17.1776V14.0519C17.1776 15.5842 18.4185 16.8278 19.9536 16.8278C21.4887 16.8278 22.7295 15.5842 22.7295 14.0519V11.1899H34.1803V14.0519C34.1803 15.5842 35.4212 16.8278 36.9563 16.8278C38.4914 16.8278 39.7322 15.5842 39.7322 14.0519V11.1899H49.4481L49.4509 55.905H5.55191V11.1899Z" fill="url(#paint0_linear)"/>
<path d="M38.5164 25.2481L22.402 41.3598L16.6086 34.703C15.6009 33.5427 13.8465 33.4233 12.6917 34.4282C11.5342 35.4331 11.412 37.1875 12.4169 38.3451L20.1646 47.2531C20.6726 47.8333 21.3944 48.1747 22.1633 48.2025C22.1966 48.2081 22.2271 48.2081 22.2604 48.2081C22.9961 48.2081 23.7039 47.9166 24.223 47.3947L42.4416 29.1733C43.527 28.0879 43.527 26.3335 42.4416 25.2481C41.3562 24.1627 39.6018 24.1627 38.5164 25.2481Z" fill="url(#paint1_linear)"/>
<defs>
<linearGradient id="paint0_linear" x1="27.5" y1="0" x2="27.5" y2="61.4569" gradientUnits="userSpaceOnUse">
<stop stop-color="#FFEF5A"/>
<stop offset="1" stop-color="#FBCE2F"/>
</linearGradient>
<linearGradient id="paint1_linear" x1="11.7366" y1="36.3211" x2="43.2676" y2="36.2408" gradientUnits="userSpaceOnUse">
<stop stop-color="#996C84"/>
<stop offset="1" stop-color="#882F5E"/>
</linearGradient>
</defs>
</svg>
