<svg width="15" height="16" viewBox="0 0 15 16" fill="none" xmlns="http://www.w3.org/2000/svg">
<path d="M1.05396 16.0004H9.38714C9.9684 16.0004 10.4411 15.5282 10.4411 14.9464V6.45776C10.4411 5.8765 9.9684 5.4038 9.38714 5.4038H7.5427V4.86048C7.5427 4.56958 7.30714 4.3335 7.01572 4.3335C6.7243 4.3335 6.48873 4.56958 6.48873 4.86048V5.4038H4.31441V4.86048C4.31441 4.56958 4.07884 4.3335 3.78742 4.3335C3.496 4.3335 3.26044 4.56958 3.26044 4.86048V5.4038H1.05396C0.472703 5.4038 0 5.8765 0 6.45776V14.9464C0 15.5282 0.472703 16.0004 1.05396 16.0004ZM1.05396 6.45776H3.26097V7.00108C3.26097 7.29198 3.49653 7.52806 3.78795 7.52806C4.07937 7.52806 4.31493 7.29198 4.31493 7.00108V6.45776H6.48873V7.00108C6.48873 7.29198 6.7243 7.52806 7.01572 7.52806C7.30714 7.52806 7.5427 7.29198 7.5427 7.00108V6.45776H9.38714L9.38767 14.9464H1.05396V6.45776Z" fill="#88305F"/>
<path d="M7.31236 9.12622L4.25323 12.1848L3.15341 10.9211C2.96212 10.7008 2.62907 10.6782 2.40984 10.8689C2.19009 11.0597 2.1669 11.3928 2.35767 11.6125L3.82848 13.3036C3.92492 13.4137 4.06193 13.4786 4.20791 13.4838C4.21423 13.4849 4.22003 13.4849 4.22635 13.4849C4.366 13.4849 4.50038 13.4296 4.59893 13.3305L8.05751 9.87137C8.26356 9.66532 8.26356 9.33227 8.05751 9.12622C7.85146 8.92017 7.51841 8.92017 7.31236 9.12622Z" fill="#88305F"/>
<path d="M11.667 1V6.00008" stroke="#88305F" stroke-width="1.5" stroke-linecap="round" stroke-linejoin="round"/>
<path d="M9.16699 3.50049H14.1671" stroke="#88305F" stroke-width="1.5" stroke-linecap="round" stroke-linejoin="round"/>
</svg>
