<svg width="76" height="67" viewBox="0 0 76 67" fill="none" xmlns="http://www.w3.org/2000/svg">
<rect x="25" y="9" width="47" height="49" fill="#FFF383"/>
<path d="M26.5519 61.4569H70.4481C73.51 61.4569 76 58.9696 76 55.905V11.1899C76 8.128 73.51 5.63797 70.4481 5.63797H60.7322V2.77596C60.7322 1.24363 59.4914 0 57.9563 0C56.4212 0 55.1803 1.24363 55.1803 2.77596V5.63797H43.7267V2.77596C43.7267 1.24363 42.4859 0 40.9508 0C39.4157 0 38.1748 1.24363 38.1748 2.77596V5.63797H26.5519C23.49 5.63797 21 8.128 21 11.1899V55.905C21 58.9696 23.49 61.4569 26.5519 61.4569ZM26.5519 11.1899H38.1776V14.0519C38.1776 15.5842 39.4185 16.8278 40.9536 16.8278C42.4887 16.8278 43.7295 15.5842 43.7295 14.0519V11.1899H55.1803V14.0519C55.1803 15.5842 56.4212 16.8278 57.9563 16.8278C59.4914 16.8278 60.7322 15.5842 60.7322 14.0519V11.1899H70.4481L70.4509 55.905H26.5519V11.1899Z" fill="url(#paint0_linear)"/>
<path d="M59.5164 25.2481L43.402 41.3598L37.6086 34.703C36.6009 33.5427 34.8465 33.4233 33.6917 34.4282C32.5342 35.4331 32.412 37.1875 33.4169 38.3451L41.1646 47.2531C41.6726 47.8333 42.3944 48.1747 43.1633 48.2025C43.1966 48.2081 43.2271 48.2081 43.2604 48.2081C43.9961 48.2081 44.7039 47.9166 45.223 47.3947L63.4416 29.1733C64.527 28.0879 64.527 26.3335 63.4416 25.2481C62.3562 24.1627 60.6018 24.1627 59.5164 25.2481Z" fill="url(#paint1_linear)"/>
<path d="M35.4827 60.2833L21.8514 38.1351C21.0743 36.8184 19.6286 36 18.0718 36C16.515 36 15.0693 36.8184 14.3129 38.1041L0.704799 60.2162C0.242678 60.9003 0 61.7162 0 62.5784C0 65.0052 1.98273 66.9802 4.41984 66.9802H31.7237C34.1609 66.9802 36.1436 65.0052 36.1436 62.5784C36.1436 61.7162 35.9009 60.9004 35.4827 60.2833Z" fill="url(#paint2_linear)"/>
<path d="M18.072 63.1087C16.6444 63.1087 15.4904 61.9521 15.4904 60.527C15.4904 59.1019 16.6444 57.9453 18.072 57.9453C19.4997 57.9453 20.6537 59.1019 20.6537 60.527C20.6537 61.9521 19.4997 63.1087 18.072 63.1087Z" fill="url(#paint3_linear)"/>
<path d="M20.6537 52.7818C20.6537 54.2069 19.4997 55.3635 18.072 55.3635C16.6444 55.3635 15.4904 54.2069 15.4904 52.7818V45.0368C15.4904 43.6117 16.6444 42.4551 18.072 42.4551C19.4997 42.4551 20.6537 43.6117 20.6537 45.0368V52.7818Z" fill="url(#paint4_linear)"/>
<defs>
<linearGradient id="paint0_linear" x1="48.5" y1="0" x2="48.5" y2="61.4569" gradientUnits="userSpaceOnUse">
<stop stop-color="#FFEF5A"/>
<stop offset="1" stop-color="#FBCE2F"/>
</linearGradient>
<linearGradient id="paint1_linear" x1="32.7366" y1="36.3211" x2="64.2676" y2="36.2408" gradientUnits="userSpaceOnUse">
<stop stop-color="#996C84"/>
<stop offset="1" stop-color="#882F5E"/>
</linearGradient>
<linearGradient id="paint2_linear" x1="17.7174" y1="26.7059" x2="18.8003" y2="66.9606" gradientUnits="userSpaceOnUse">
<stop stop-color="#996C84"/>
<stop offset="1" stop-color="#88305F"/>
</linearGradient>
<linearGradient id="paint3_linear" x1="18.072" y1="57.9453" x2="18.072" y2="63.1087" gradientUnits="userSpaceOnUse">
<stop stop-color="#FFEF5A"/>
<stop offset="1" stop-color="#FBCE2F"/>
</linearGradient>
<linearGradient id="paint4_linear" x1="18.072" y1="42.4551" x2="18.072" y2="55.3635" gradientUnits="userSpaceOnUse">
<stop stop-color="#FFEF5A"/>
<stop offset="1" stop-color="#FBCE2F"/>
</linearGradient>
</defs>
</svg>
