<svg width="16" height="16" viewBox="0 0 16 16" fill="none" xmlns="http://www.w3.org/2000/svg">
<path fill-rule="evenodd" clip-rule="evenodd" d="M13.3333 8.66659H9.99992C9.26354 8.66659 8.66659 9.26354 8.66659 9.99992V13.3333C8.66659 14.0696 9.26354 14.6666 9.99992 14.6666H13.3333C14.0696 14.6666 14.6666 14.0696 14.6666 13.3333V9.99992C14.6666 9.26354 14.0696 8.66659 13.3333 8.66659ZM9.99992 13.3333V9.99992H13.3333V13.3333H9.99992ZM7.33325 2.66659V13.3333C7.33325 14.0696 6.7363 14.6666 5.99992 14.6666H2.66659C1.93021 14.6666 1.33325 14.0696 1.33325 13.3333V2.66659C1.33325 1.93021 1.93021 1.33325 2.66659 1.33325H5.99992C6.7363 1.33325 7.33325 1.93021 7.33325 2.66659ZM5.99992 2.66659H2.66659V13.3333H5.99992V2.66659ZM13.3333 1.33325H9.99992C9.26354 1.33325 8.66659 1.93021 8.66659 2.66659V5.99992C8.66659 6.7363 9.26354 7.33325 9.99992 7.33325H13.3333C14.0696 7.33325 14.6666 6.7363 14.6666 5.99992V2.66659C14.6666 1.93021 14.0696 1.33325 13.3333 1.33325ZM9.99992 5.99992V2.66659H13.3333V5.99992H9.99992Z" fill="#818181"/>
</svg>
