<svg width="15" height="16" viewBox="0 0 15 16" fill="none" xmlns="http://www.w3.org/2000/svg">
<path d="M1 3.33301H2.44444H14" stroke="#424242" stroke-width="1.5" stroke-linecap="round" stroke-linejoin="round"/>
<path d="M4.46086 3.8V2.4C4.46086 2.0287 4.62095 1.6726 4.90591 1.41005C5.19087 1.1475 5.57735 1 5.98034 1H9.0193C9.42229 1 9.80878 1.1475 10.0937 1.41005C10.3787 1.6726 10.5388 2.0287 10.5388 2.4V3.8M12.818 3.8V13.6C12.818 13.9713 12.6579 14.3274 12.373 14.5899C12.088 14.8525 11.7015 15 11.2985 15H3.70112C3.29813 15 2.91164 14.8525 2.62669 14.5899C2.34173 14.3274 2.18164 13.9713 2.18164 13.6V3.8H12.818Z" stroke="#424242" stroke-width="1.5" stroke-linecap="round" stroke-linejoin="round"/>
</svg>
