<svg width="11" height="14" viewBox="0 0 11 14" fill="none" xmlns="http://www.w3.org/2000/svg">
<path d="M3.0002 3.4V2.2C3.0002 1.88174 3.12662 1.57652 3.35167 1.35147C3.57671 1.12643 3.88194 1 4.2002 1H6.6002C6.91846 1 7.22368 1.12643 7.44872 1.35147C7.67377 1.57652 7.8002 1.88174 7.8002 2.2V3.4M9.6002 3.4V11.8C9.6002 12.1183 9.47377 12.4235 9.24872 12.6485C9.02368 12.8736 8.71846 13 8.4002 13H2.4002C2.08194 13 1.77671 12.8736 1.55167 12.6485C1.32662 12.4235 1.2002 12.1183 1.2002 11.8V3.4H9.6002Z" stroke="#555555" stroke-width="1.5" stroke-linecap="round" stroke-linejoin="round"/>
</svg>
