<svg width="132" height="117" viewBox="0 0 132 117" fill="none" xmlns="http://www.w3.org/2000/svg">
<path d="M24.0471 117C23.0079 117 22.1655 115.236 22.1655 113.06V57.8971C22.1655 55.7209 23.0079 53.9569 24.0471 53.9569C25.0863 53.9569 25.9287 55.7209 25.9287 57.8971V113.06C25.9287 115.236 25.0861 117 24.0471 117Z" fill="url(#paint0_linear)"/>
<path d="M16.5207 109.12C15.4815 109.12 14.6392 107.356 14.6392 105.179V57.8972C14.6392 55.721 15.4815 53.957 16.5207 53.957C17.56 53.957 18.4023 55.721 18.4023 57.8972V105.18C18.4023 107.356 17.5597 109.12 16.5207 109.12Z" fill="url(#paint1_linear)"/>
<path d="M39.0991 117C38.0599 117 37.2175 115.236 37.2175 113.06V57.8971C37.2175 55.7209 38.0599 53.9569 39.0991 53.9569C40.1383 53.9569 40.9807 55.7209 40.9807 57.8971V113.06C40.9807 115.236 40.1383 117 39.0991 117Z" fill="url(#paint2_linear)"/>
<path d="M31.5727 109.12C30.5335 109.12 29.6912 107.356 29.6912 105.179V57.8971C29.6912 55.7209 30.5335 53.9569 31.5727 53.9569C32.612 53.9569 33.4543 55.7209 33.4543 57.8971V105.18C33.4543 107.356 32.612 109.12 31.5727 109.12Z" fill="url(#paint3_linear)"/>
<path d="M54.1521 117C53.1129 117 52.2705 115.236 52.2705 113.06V57.8971C52.2705 55.7209 53.1129 53.9569 54.1521 53.9569C55.1913 53.9569 56.0337 55.7209 56.0337 57.8971V113.06C56.0337 115.236 55.1913 117 54.1521 117Z" fill="url(#paint4_linear)"/>
<path d="M46.6262 109.12C45.587 109.12 44.7446 107.356 44.7446 105.179V57.8971C44.7446 55.7209 45.587 53.9569 46.6262 53.9569C47.6654 53.9569 48.5078 55.7209 48.5078 57.8971V105.18C48.5078 107.356 47.6654 109.12 46.6262 109.12Z" fill="url(#paint5_linear)"/>
<path d="M69.2046 117C68.1654 117 67.323 115.236 67.323 113.06V57.8971C67.323 55.7209 68.1654 53.9569 69.2046 53.9569C70.2438 53.9569 71.0862 55.7209 71.0862 57.8971V113.06C71.0862 115.236 70.2436 117 69.2046 117Z" fill="url(#paint6_linear)"/>
<path d="M61.6785 109.12C60.6392 109.12 59.7969 107.356 59.7969 105.179V57.8971C59.7969 55.7209 60.6392 53.9569 61.6785 53.9569C62.7177 53.9569 63.56 55.7209 63.56 57.8971V105.18C63.56 107.356 62.7177 109.12 61.6785 109.12Z" fill="url(#paint7_linear)"/>
<path d="M84.2576 117C83.2183 117 82.376 115.236 82.376 113.06V57.8971C82.376 55.7209 83.2183 53.9569 84.2576 53.9569C85.2968 53.9569 86.1391 55.7209 86.1391 57.8971V113.06C86.1391 115.236 85.2968 117 84.2576 117Z" fill="url(#paint8_linear)"/>
<path d="M76.7307 109.12C75.6915 109.12 74.8491 107.356 74.8491 105.179V57.8971C74.8491 55.7209 75.6915 53.9569 76.7307 53.9569C77.7699 53.9569 78.6123 55.7209 78.6123 57.8971V105.18C78.6123 107.356 77.7697 109.12 76.7307 109.12Z" fill="url(#paint9_linear)"/>
<path d="M91.7829 109.12C90.7437 109.12 89.9014 107.356 89.9014 105.179V57.8971C89.9014 55.7209 90.7437 53.9569 91.7829 53.9569C92.8222 53.9569 93.6645 55.7209 93.6645 57.8971V105.18C93.6645 107.356 92.8222 109.12 91.7829 109.12Z" fill="url(#paint10_linear)"/>
<path d="M9.4079 54.3293H1.88158C0.842352 54.3293 0 53.487 0 52.4478V35.5135H109.131V52.4478C109.131 53.487 108.289 54.3293 107.25 54.3293H9.4079Z" fill="url(#paint11_linear)"/>
<path d="M94.0785 18.5795H107.25C108.289 18.5795 109.131 19.4218 109.131 20.461V37.3953H0V20.461C0 19.4218 0.842352 18.5795 1.88158 18.5795H94.0785Z" fill="url(#paint12_linear)"/>
<path d="M101.604 29.869H7.52587C6.48664 29.869 5.64429 29.0266 5.64429 27.9874C5.64429 26.9482 6.48664 26.1058 7.52587 26.1058H101.604C102.644 26.1058 103.486 26.9482 103.486 27.9874C103.486 29.0266 102.644 29.869 101.604 29.869Z" fill="#88305F"/>
<path d="M101.604 48.6845H7.52587C6.48664 48.6845 5.64429 47.8421 5.64429 46.8029C5.64429 45.7637 6.48664 44.9213 7.52587 44.9213H101.604C102.644 44.9213 103.486 45.7637 103.486 46.8029C103.486 47.8421 102.644 48.6845 101.604 48.6845Z" fill="#88305F"/>
<path d="M7.52587 31.7504C6.48664 31.7504 5.64429 30.9081 5.64429 29.8689V26.1057C5.64429 25.0665 6.48664 24.2241 7.52587 24.2241C8.56509 24.2241 9.40745 25.0665 9.40745 26.1057V29.8689C9.40745 30.9081 8.56509 31.7504 7.52587 31.7504Z" fill="#88305F"/>
<path d="M101.604 31.7504C100.565 31.7504 99.7227 30.9081 99.7227 29.8689V26.1057C99.7227 25.0665 100.565 24.2241 101.604 24.2241C102.643 24.2241 103.486 25.0665 103.486 26.1057V29.8689C103.486 30.9081 102.643 31.7504 101.604 31.7504Z" fill="#88305F"/>
<path d="M93.4503 25.0932H13.8445V22.9021C13.8519 21.7242 15.9025 20.7704 18.4345 20.7668H82.6941" fill="#FFEDAD"/>
<path d="M93.4501 25.0932H83.4023C80.4703 25.089 81.5183 25.0932 81.5183 25.0932L82.1463 20.7668L93.4501 25.0932Z" fill="#FDDB40"/>
<path d="M130.949 19.9689C129.797 19.7599 128.682 19.4752 127.634 19.1225C119.948 16.5378 115.603 10.2582 114.173 2.1741C114.038 1.40825 112.933 1.40814 112.797 2.1741C111.136 11.5678 105.606 18.2108 96.0692 19.9809C95.3107 20.1216 95.3109 21.2146 96.0696 21.355C105.519 23.1028 111.145 29.7332 112.8 39.052C112.905 39.639 113.525 39.6421 113.489 39.6284C113.828 39.628 114.118 39.3842 114.177 39.0505C115.02 34.245 117.386 27.7162 123.875 23.9043C125.948 22.6877 128.328 21.8263 130.95 21.3438C131.282 21.2828 131.523 20.9932 131.523 20.6558C131.522 20.3182 131.281 20.0292 130.949 19.9689Z" fill="#F4A32C"/>
<path d="M130.949 19.9689C129.797 19.7599 128.682 19.4752 127.634 19.1225C119.948 16.5378 115.603 10.2582 114.173 2.1741C114.038 1.40825 112.933 1.40814 112.797 2.1741C111.136 11.5678 105.606 18.2108 96.0692 19.9809C95.3107 20.1216 95.3109 21.2146 96.0696 21.355C105.519 23.1028 111.145 29.7332 112.8 39.052C112.905 39.639 113.525 39.6421 113.489 39.6284C113.828 39.628 114.118 39.3842 114.177 39.0505C115.02 34.245 117.386 27.7162 123.875 23.9043C125.948 22.6877 128.328 21.8263 130.95 21.3438C131.282 21.2828 131.523 20.9932 131.523 20.6558C131.522 20.3182 131.281 20.0292 130.949 19.9689Z" fill="#FFE880"/>
<path d="M103.371 17.2588C101.132 18.6276 98.6499 19.5019 96.0692 19.9809C95.3107 20.1216 95.3109 21.2146 96.0696 21.355C105.519 23.1028 111.145 29.7332 112.8 39.052C112.905 39.6391 113.525 39.6421 113.489 39.6285C113.828 39.628 114.118 39.3842 114.177 39.0505C114.643 36.3903 115.579 33.2023 117.42 30.2392C114.922 23.2875 110.149 18.9602 103.371 17.2588Z" fill="#FFDA33"/>
<path d="M100.253 38.0972C97.5341 37.1956 95.7356 35.1694 94.8605 32.3691C94.7033 31.8664 94.1734 31.8719 94.1935 31.8789C93.8881 31.8789 93.618 32.0774 93.5267 32.3687C92.6789 35.0752 90.9046 37.1459 88.1342 38.0944C87.5063 38.3095 87.5057 39.2014 88.1343 39.4166C90.8867 40.3588 92.6725 42.4132 93.5275 45.1452C93.6853 45.6491 94.2143 45.6417 94.1957 45.6353C94.5017 45.6348 94.7717 45.4352 94.8621 45.1429C95.4944 43.0979 96.6099 41.5167 98.1775 40.4433C98.1776 40.4432 98.1776 40.4432 98.1776 40.4432C99.8915 39.269 100.733 39.6097 100.732 38.7594C100.731 38.4586 100.538 38.1919 100.253 38.0972Z" fill="#FFE880"/>
<path d="M90.9211 36.5802C90.9014 36.5734 90.8831 36.5641 90.8644 36.5557C90.0605 37.2464 89.1379 37.7507 88.1352 38.0941C87.5073 38.3091 87.5067 39.2011 88.1353 39.4163C90.8877 40.3585 92.6735 42.4129 93.5285 45.1449C93.6863 45.6488 94.2153 45.6414 94.1967 45.635C95.1807 45.6332 94.6573 44.4579 96.2969 42.2565C95.4248 39.5182 93.6289 37.5071 90.9211 36.5802Z" fill="#FFDA33"/>
<path d="M90.9036 6.2199C88.174 5.31468 86.3832 3.2807 85.5111 0.491776C85.3539 -0.0109255 84.8241 -0.00531326 84.8442 0.00154601C84.5387 0.00154601 84.2686 0.200049 84.1774 0.491361C83.3313 3.19215 81.5607 5.26635 78.7848 6.2172C78.157 6.43222 78.1564 7.32414 78.7849 7.53937C81.5441 8.48398 83.3253 10.5432 84.1782 13.2679C84.3359 13.7718 84.8651 13.7645 84.8462 13.7579C85.1522 13.7574 85.4223 13.5579 85.5127 13.2657C86.5596 9.88005 88.6678 8.72499 88.8285 8.56608C90.5375 7.39502 91.3835 7.728 91.3824 6.88223C91.3819 6.58126 91.189 6.31458 90.9036 6.2199Z" fill="#FFE880"/>
<path d="M81.2998 4.85376C79.3734 6.39388 78.3113 5.9633 78.3113 6.87818C78.3113 7.17698 78.5012 7.44251 78.7837 7.53917C81.5429 8.48377 83.3242 10.543 84.177 13.2677C84.3348 13.7715 84.864 13.7643 84.8451 13.7577C85.7799 13.7561 85.3307 12.6645 86.814 10.558C85.287 5.84368 81.6449 5.07928 81.2998 4.85376Z" fill="#FFDA33"/>
<defs>
<linearGradient id="paint0_linear" x1="24.0471" y1="53.9569" x2="24.0471" y2="117" gradientUnits="userSpaceOnUse">
<stop stop-color="#FFEF5A"/>
<stop offset="1" stop-color="#FBCE2F"/>
</linearGradient>
<linearGradient id="paint1_linear" x1="16.5207" y1="53.957" x2="16.5207" y2="109.12" gradientUnits="userSpaceOnUse">
<stop stop-color="#FFEF5A"/>
<stop offset="1" stop-color="#FBCE2F"/>
</linearGradient>
<linearGradient id="paint2_linear" x1="39.0991" y1="53.9569" x2="39.0991" y2="117" gradientUnits="userSpaceOnUse">
<stop stop-color="#FFEF5A"/>
<stop offset="1" stop-color="#FBCE2F"/>
</linearGradient>
<linearGradient id="paint3_linear" x1="31.5727" y1="53.9569" x2="31.5727" y2="109.12" gradientUnits="userSpaceOnUse">
<stop stop-color="#FFEF5A"/>
<stop offset="1" stop-color="#FBCE2F"/>
</linearGradient>
<linearGradient id="paint4_linear" x1="54.1521" y1="53.9569" x2="54.1521" y2="117" gradientUnits="userSpaceOnUse">
<stop stop-color="#FFEF5A"/>
<stop offset="1" stop-color="#FBCE2F"/>
</linearGradient>
<linearGradient id="paint5_linear" x1="46.6262" y1="53.9569" x2="46.6262" y2="109.12" gradientUnits="userSpaceOnUse">
<stop stop-color="#FFEF5A"/>
<stop offset="1" stop-color="#FBCE2F"/>
</linearGradient>
<linearGradient id="paint6_linear" x1="69.2046" y1="53.9569" x2="69.2046" y2="117" gradientUnits="userSpaceOnUse">
<stop stop-color="#FFEF5A"/>
<stop offset="1" stop-color="#FBCE2F"/>
</linearGradient>
<linearGradient id="paint7_linear" x1="61.6785" y1="53.9569" x2="61.6785" y2="109.12" gradientUnits="userSpaceOnUse">
<stop stop-color="#FFEF5A"/>
<stop offset="1" stop-color="#FBCE2F"/>
</linearGradient>
<linearGradient id="paint8_linear" x1="84.2576" y1="53.9569" x2="84.2576" y2="117" gradientUnits="userSpaceOnUse">
<stop stop-color="#FFEF5A"/>
<stop offset="1" stop-color="#FBCE2F"/>
</linearGradient>
<linearGradient id="paint9_linear" x1="76.7307" y1="53.9569" x2="76.7307" y2="109.12" gradientUnits="userSpaceOnUse">
<stop stop-color="#FFEF5A"/>
<stop offset="1" stop-color="#FBCE2F"/>
</linearGradient>
<linearGradient id="paint10_linear" x1="91.7829" y1="53.9569" x2="91.7829" y2="109.12" gradientUnits="userSpaceOnUse">
<stop stop-color="#FFEF5A"/>
<stop offset="1" stop-color="#FBCE2F"/>
</linearGradient>
<linearGradient id="paint11_linear" x1="54.5656" y1="35.5135" x2="54.5656" y2="54.3293" gradientUnits="userSpaceOnUse">
<stop offset="0.0001" stop-color="#88305F"/>
<stop offset="1" stop-color="#E7BCE0"/>
</linearGradient>
<linearGradient id="paint12_linear" x1="53.4957" y1="12.9347" x2="53.6281" y2="37.4003" gradientUnits="userSpaceOnUse">
<stop stop-color="#996C84"/>
<stop offset="1" stop-color="#88305F"/>
</linearGradient>
</defs>
</svg>
