<svg width="90" height="91" viewBox="0 0 90 91" fill="none" xmlns="http://www.w3.org/2000/svg">
<path d="M7.71189 74.0338H1.54238C0.690498 74.0338 0 73.3433 0 72.4914V58.61H89.4576V72.4914C89.4576 73.3433 88.7671 74.0338 87.9152 74.0338H7.71189Z" fill="url(#paint0_linear)"/>
<path d="M77.1186 44.7288H87.9152C88.7671 44.7288 89.4576 45.4193 89.4576 46.2711V60.1525H0V46.2711C0 45.4193 0.690498 44.7288 1.54238 44.7288H77.1186Z" fill="url(#paint1_linear)"/>
<path d="M77.1187 18.5085V52.4407H12.3391V3.08476C12.3441 1.38313 13.7222 0.0051543 15.4239 0H58.6103" fill="#FFEDAD"/>
<path d="M77.1186 18.5085H61.6949C59.9932 18.5034 58.6153 17.1254 58.6101 15.4238V0L77.1186 18.5085Z" fill="#FDDB40"/>
<path d="M83.2879 53.9831H6.16933C5.31745 53.9831 4.62695 53.2926 4.62695 52.4407C4.62695 51.5888 5.31745 50.8983 6.16933 50.8983H83.2879C84.1398 50.8983 84.8303 51.5888 84.8303 52.4407C84.8303 53.2926 84.1398 53.9831 83.2879 53.9831Z" fill="#88305F"/>
<path d="M83.2879 69.4067H6.16933C5.31745 69.4067 4.62695 68.7162 4.62695 67.8643C4.62695 67.0124 5.31745 66.3219 6.16933 66.3219H83.2879C84.1398 66.3219 84.8303 67.0124 84.8303 67.8643C84.8303 68.7162 84.1398 69.4067 83.2879 69.4067Z" fill="#88305F"/>
<path d="M20.0507 90.9999C19.1988 90.9999 18.5083 90.3094 18.5083 89.4575V67.8644C18.5083 67.0125 19.1988 66.322 20.0507 66.322C20.9026 66.322 21.5931 67.0125 21.5931 67.8644V89.4577C21.5931 90.3094 20.9024 90.9999 20.0507 90.9999Z" fill="url(#paint2_linear)"/>
<path d="M13.8808 87.9151C13.0289 87.9151 12.3384 87.2246 12.3384 86.3728V67.8644C12.3384 67.0125 13.0289 66.322 13.8808 66.322C14.7326 66.322 15.4231 67.0125 15.4231 67.8644V86.3729C15.4231 87.2246 14.7325 87.9151 13.8808 87.9151Z" fill="url(#paint3_linear)"/>
<path d="M32.3891 90.9999C31.5372 90.9999 30.8467 90.3094 30.8467 89.4575V67.8644C30.8467 67.0125 31.5372 66.322 32.3891 66.322C33.2409 66.322 33.9314 67.0125 33.9314 67.8644V89.4577C33.9314 90.3094 33.2409 90.9999 32.3891 90.9999Z" fill="url(#paint4_linear)"/>
<path d="M26.2199 87.9151C25.368 87.9151 24.6775 87.2246 24.6775 86.3728V67.8644C24.6775 67.0125 25.368 66.322 26.2199 66.322C27.0717 66.322 27.7622 67.0125 27.7622 67.8644V86.3729C27.7622 87.2246 27.0717 87.9151 26.2199 87.9151Z" fill="url(#paint5_linear)"/>
<path d="M44.7282 90.9999C43.8763 90.9999 43.1858 90.3094 43.1858 89.4575V67.8644C43.1858 67.0125 43.8763 66.322 44.7282 66.322C45.58 66.322 46.2705 67.0125 46.2705 67.8644V89.4577C46.2705 90.3094 45.58 90.9999 44.7282 90.9999Z" fill="url(#paint6_linear)"/>
<path d="M38.559 87.9151C37.7071 87.9151 37.0166 87.2246 37.0166 86.3728V67.8644C37.0166 67.0125 37.7071 66.322 38.559 66.322C39.4109 66.322 40.1014 67.0125 40.1014 67.8644V86.3729C40.1014 87.2246 39.4109 87.9151 38.559 87.9151Z" fill="url(#paint7_linear)"/>
<path d="M57.0673 90.9999C56.2154 90.9999 55.5249 90.3094 55.5249 89.4575V67.8644C55.5249 67.0125 56.2154 66.322 57.0673 66.322C57.9192 66.322 58.6097 67.0125 58.6097 67.8644V89.4577C58.6097 90.3094 57.919 90.9999 57.0673 90.9999Z" fill="url(#paint8_linear)"/>
<path d="M50.8981 87.9151C50.0462 87.9151 49.3557 87.2246 49.3557 86.3728V67.8644C49.3557 67.0125 50.0462 66.322 50.8981 66.322C51.75 66.322 52.4405 67.0125 52.4405 67.8644V86.3729C52.4405 87.2246 51.75 87.9151 50.8981 87.9151Z" fill="url(#paint9_linear)"/>
<path d="M69.4064 90.9999C68.5545 90.9999 67.864 90.3094 67.864 89.4575V67.8644C67.864 67.0125 68.5545 66.322 69.4064 66.322C70.2583 66.322 70.9488 67.0125 70.9488 67.8644V89.4577C70.9488 90.3094 70.2583 90.9999 69.4064 90.9999Z" fill="url(#paint10_linear)"/>
<path d="M63.2365 87.9151C62.3846 87.9151 61.6941 87.2246 61.6941 86.3728V67.8644C61.6941 67.0125 62.3846 66.322 63.2365 66.322C64.0883 66.322 64.7788 67.0125 64.7788 67.8644V86.3729C64.7788 87.2246 64.0882 87.9151 63.2365 87.9151Z" fill="url(#paint11_linear)"/>
<path d="M75.5756 87.9151C74.7237 87.9151 74.0332 87.2246 74.0332 86.3728V67.8644C74.0332 67.0125 74.7237 66.322 75.5756 66.322C76.4275 66.322 77.118 67.0125 77.118 67.8644V86.3729C77.118 87.2246 76.4275 87.9151 75.5756 87.9151Z" fill="url(#paint12_linear)"/>
<path d="M49.3556 16.9661H21.5929C20.741 16.9661 20.0505 16.2756 20.0505 15.4237C20.0505 14.5718 20.741 13.8813 21.5929 13.8813H49.3556C50.2074 13.8813 50.8979 14.5718 50.8979 15.4237C50.8979 16.2754 50.2074 16.9661 49.3556 16.9661Z" fill="url(#paint13_linear)"/>
<path d="M49.3556 23.1354H21.5929C20.741 23.1354 20.0505 22.4449 20.0505 21.593C20.0505 20.7412 20.741 20.0507 21.5929 20.0507H49.3556C50.2074 20.0507 50.8979 20.7412 50.8979 21.593C50.8979 22.4449 50.2074 23.1354 49.3556 23.1354Z" fill="url(#paint14_linear)"/>
<path d="M67.8639 29.305H21.5929C20.741 29.305 20.0505 28.6145 20.0505 27.7626C20.0505 26.9107 20.741 26.2202 21.5929 26.2202H67.8641C68.716 26.2202 69.4065 26.9107 69.4065 27.7626C69.4063 28.6145 68.7158 29.305 67.8639 29.305Z" fill="url(#paint15_linear)"/>
<path d="M67.8639 35.4745H21.5929C20.741 35.4745 20.0505 34.784 20.0505 33.9321C20.0505 33.0803 20.741 32.3898 21.5929 32.3898H67.8641C68.716 32.3898 69.4065 33.0803 69.4065 33.9321C69.4065 34.784 68.7158 35.4745 67.8639 35.4745Z" fill="url(#paint16_linear)"/>
<path d="M67.8639 41.644H21.5929C20.741 41.644 20.0505 40.9535 20.0505 40.1016C20.0505 39.2497 20.741 38.5592 21.5929 38.5592H67.8641C68.716 38.5592 69.4065 39.2497 69.4065 40.1016C69.4065 40.9535 68.7158 41.644 67.8639 41.644Z" fill="url(#paint17_linear)"/>
<path d="M6.16933 55.5255C5.31745 55.5255 4.62695 54.835 4.62695 53.9831V50.8983C4.62695 50.0465 5.31745 49.356 6.16933 49.356C7.02121 49.356 7.71171 50.0465 7.71171 50.8983V53.9831C7.71171 54.835 7.02121 55.5255 6.16933 55.5255Z" fill="#88305F"/>
<path d="M83.2877 55.5255C82.4359 55.5255 81.7454 54.835 81.7454 53.9831V50.8983C81.7454 50.0465 82.4359 49.356 83.2877 49.356C84.1396 49.356 84.8301 50.0465 84.8301 50.8983V53.9831C84.8301 54.835 84.1396 55.5255 83.2877 55.5255Z" fill="#88305F"/>
<defs>
<linearGradient id="paint0_linear" x1="44.7288" y1="58.61" x2="44.7288" y2="74.0338" gradientUnits="userSpaceOnUse">
<stop offset="0.0001" stop-color="#88305F"/>
<stop offset="1" stop-color="#E7BCE0"/>
</linearGradient>
<linearGradient id="paint1_linear" x1="43.8518" y1="40.1016" x2="43.9603" y2="60.1567" gradientUnits="userSpaceOnUse">
<stop stop-color="#996C84"/>
<stop offset="1" stop-color="#88305F"/>
</linearGradient>
<linearGradient id="paint2_linear" x1="20.0507" y1="66.322" x2="20.0507" y2="90.9999" gradientUnits="userSpaceOnUse">
<stop stop-color="#FFEF5A"/>
<stop offset="1" stop-color="#FBCE2F"/>
</linearGradient>
<linearGradient id="paint3_linear" x1="13.8808" y1="66.322" x2="13.8808" y2="87.9151" gradientUnits="userSpaceOnUse">
<stop stop-color="#FFEF5A"/>
<stop offset="1" stop-color="#FBCE2F"/>
</linearGradient>
<linearGradient id="paint4_linear" x1="32.3891" y1="66.322" x2="32.3891" y2="90.9999" gradientUnits="userSpaceOnUse">
<stop stop-color="#FFEF5A"/>
<stop offset="1" stop-color="#FBCE2F"/>
</linearGradient>
<linearGradient id="paint5_linear" x1="26.2199" y1="66.322" x2="26.2199" y2="87.9151" gradientUnits="userSpaceOnUse">
<stop stop-color="#FFEF5A"/>
<stop offset="1" stop-color="#FBCE2F"/>
</linearGradient>
<linearGradient id="paint6_linear" x1="44.7282" y1="66.322" x2="44.7282" y2="90.9999" gradientUnits="userSpaceOnUse">
<stop stop-color="#FFEF5A"/>
<stop offset="1" stop-color="#FBCE2F"/>
</linearGradient>
<linearGradient id="paint7_linear" x1="38.559" y1="66.322" x2="38.559" y2="87.9151" gradientUnits="userSpaceOnUse">
<stop stop-color="#FFEF5A"/>
<stop offset="1" stop-color="#FBCE2F"/>
</linearGradient>
<linearGradient id="paint8_linear" x1="57.0673" y1="66.322" x2="57.0673" y2="90.9999" gradientUnits="userSpaceOnUse">
<stop stop-color="#FFEF5A"/>
<stop offset="1" stop-color="#FBCE2F"/>
</linearGradient>
<linearGradient id="paint9_linear" x1="50.8981" y1="66.322" x2="50.8981" y2="87.9151" gradientUnits="userSpaceOnUse">
<stop stop-color="#FFEF5A"/>
<stop offset="1" stop-color="#FBCE2F"/>
</linearGradient>
<linearGradient id="paint10_linear" x1="69.4064" y1="66.322" x2="69.4064" y2="90.9999" gradientUnits="userSpaceOnUse">
<stop stop-color="#FFEF5A"/>
<stop offset="1" stop-color="#FBCE2F"/>
</linearGradient>
<linearGradient id="paint11_linear" x1="63.2365" y1="66.322" x2="63.2365" y2="87.9151" gradientUnits="userSpaceOnUse">
<stop stop-color="#FFEF5A"/>
<stop offset="1" stop-color="#FBCE2F"/>
</linearGradient>
<linearGradient id="paint12_linear" x1="75.5756" y1="66.322" x2="75.5756" y2="87.9151" gradientUnits="userSpaceOnUse">
<stop stop-color="#FFEF5A"/>
<stop offset="1" stop-color="#FBCE2F"/>
</linearGradient>
<linearGradient id="paint13_linear" x1="20.0505" y1="15.4237" x2="50.8984" y2="14.8307" gradientUnits="userSpaceOnUse">
<stop stop-color="#996C84"/>
<stop offset="1" stop-color="#882F5E"/>
</linearGradient>
<linearGradient id="paint14_linear" x1="20.0505" y1="21.593" x2="50.8984" y2="21" gradientUnits="userSpaceOnUse">
<stop stop-color="#996C84"/>
<stop offset="1" stop-color="#882F5E"/>
</linearGradient>
<linearGradient id="paint15_linear" x1="20.0505" y1="27.7626" x2="69.3788" y2="26.2454" gradientUnits="userSpaceOnUse">
<stop stop-color="#996C84"/>
<stop offset="1" stop-color="#882F5E"/>
</linearGradient>
<linearGradient id="paint16_linear" x1="20.0505" y1="33.9322" x2="69.3788" y2="32.415" gradientUnits="userSpaceOnUse">
<stop stop-color="#996C84"/>
<stop offset="1" stop-color="#882F5E"/>
</linearGradient>
<linearGradient id="paint17_linear" x1="20.0505" y1="40.1016" x2="69.3788" y2="38.5844" gradientUnits="userSpaceOnUse">
<stop stop-color="#996C84"/>
<stop offset="1" stop-color="#882F5E"/>
</linearGradient>
</defs>
</svg>
