<svg width="130" height="99" viewBox="0 0 130 99" fill="none" xmlns="http://www.w3.org/2000/svg">
<path fill-rule="evenodd" clip-rule="evenodd" d="M56.1873 16.2855L1.89798 23.9764C0.849693 24.1249 0.120371 25.0949 0.268875 26.1432L2.68875 43.225L62.0835 34.8109L62.7851 33.2648L57.6937 28.3375L61.129 21.5746L56.1873 16.2855Z" fill="url(#paint0_linear)"/>
<path fill-rule="evenodd" clip-rule="evenodd" d="M60.1683 23.4659L8.66702 30.7618C7.61874 30.9103 6.88941 31.8804 7.03792 32.9287C7.18642 33.977 8.15649 34.7063 9.20477 34.5578L58.0488 27.6383L60.1683 23.4659Z" fill="#88305F"/>
<path d="M9.47372 36.4558C8.42544 36.6043 7.45537 35.875 7.30687 34.8267L6.76912 31.0307C6.62061 29.9824 7.34994 29.0124 8.39822 28.8639C9.4465 28.7154 10.4166 29.4447 10.5651 30.493L11.1028 34.2889C11.2513 35.3372 10.522 36.3073 9.47372 36.4558Z" fill="#88305F"/>
<path fill-rule="evenodd" clip-rule="evenodd" d="M2.42041 41.3271L62.3441 32.838L62.7851 33.2648L59.4369 40.643L64.6155 46.1856L61.093 52.3332L65.4 51.7231L113.686 44.8827C113.685 44.8828 113.685 44.8829 113.685 44.8829L64.1691 51.8976L64.175 51.9393L14.599 58.9625L7.00714 60.038C5.95886 60.1865 4.98879 59.4571 4.84029 58.4089L2.42041 41.3271Z" fill="url(#paint1_linear)"/>
<path fill-rule="evenodd" clip-rule="evenodd" d="M61.3239 42.6627L11.3557 49.7414C10.3075 49.8899 9.57813 50.8599 9.72664 51.9082C9.87514 52.9565 10.8452 53.6858 11.8935 53.5373L64.5189 46.0822L61.3239 42.6627Z" fill="#88305F"/>
<path fill-rule="evenodd" clip-rule="evenodd" d="M73.8411 17.2207L128.103 25.1029C129.151 25.2551 129.877 26.2277 129.724 27.2754L127.244 44.3486L67.8797 35.7252L67.1835 34.1766L72.2923 29.2672L68.8808 22.4923L73.8411 17.2207Z" fill="url(#paint2_linear)"/>
<path fill-rule="evenodd" clip-rule="evenodd" d="M69.8348 24.3868L121.31 31.8641C122.358 32.0163 123.083 32.989 122.931 34.0367C122.779 35.0845 121.806 35.8104 120.759 35.6582L71.9395 28.5666L69.8348 24.3868Z" fill="#88305F"/>
<path d="M120.483 37.5552C121.53 37.7074 122.503 36.9815 122.655 35.9337L123.206 32.1397C123.359 31.0919 122.633 30.1193 121.585 29.9671C120.537 29.8149 119.565 30.5408 119.412 31.5886L118.861 35.3826C118.709 36.4303 119.435 37.403 120.483 37.5552Z" fill="#88305F"/>
<path fill-rule="evenodd" clip-rule="evenodd" d="M127.52 42.4514L67.6264 33.7511L67.1835 34.1767L70.5057 41.5666L65.3076 47.0909L68.8084 53.2509L64.5036 52.6256L16.2445 45.6154C16.2446 45.6154 16.2446 45.6154 16.2446 45.6155L65.7331 52.8042L65.7271 52.8457L115.279 60.0437L122.867 61.1459C123.915 61.2981 124.888 60.5723 125.04 59.5245L127.52 42.4514Z" fill="url(#paint3_linear)"/>
<path fill-rule="evenodd" clip-rule="evenodd" d="M68.6115 43.5795L118.554 50.8342C119.602 50.9864 120.328 51.9591 120.175 53.0068C120.023 54.0546 119.051 54.7805 118.003 54.6283L65.4046 46.9878L68.6115 43.5795Z" fill="#88305F"/>
<path d="M75.8571 13.8529L72.6506 14.3436C71.8205 14.4706 71.0445 13.9006 70.9175 13.0706C70.7905 12.2406 71.3605 11.4646 72.1905 11.3376L75.397 10.8469C76.2271 10.7198 77.0031 11.2899 77.1301 12.1199C77.2571 12.9499 76.6872 13.7259 75.8571 13.8529Z" fill="#A20000"/>
<path d="M55.8985 12.538L53.0827 10.9275C52.3538 10.5106 52.1009 9.58155 52.5178 8.85266C52.9347 8.12377 53.8637 7.87081 54.5926 8.28771L57.4084 9.89824C58.1373 10.3151 58.3902 11.2442 57.9733 11.9731C57.5564 12.702 56.6276 12.955 55.8985 12.538Z" fill="#A20000"/>
<path d="M61.4313 7.15142C60.9116 7.07253 60.4473 6.72625 60.2422 6.20172L59.0602 3.18085C58.7542 2.39889 59.1402 1.51678 59.9222 1.21088C60.7041 0.904874 61.5862 1.29084 61.8921 2.07279L63.0741 5.09366C63.3801 5.87563 62.9941 6.75774 62.2121 7.06364C61.9547 7.16446 61.6863 7.19013 61.4313 7.15142Z" fill="#A20000"/>
<path d="M68.1318 8.16827C67.8767 8.12955 67.6281 8.02539 67.4122 7.85271C66.7562 7.32843 66.6494 6.37162 67.1737 5.71569L69.1989 3.18168C69.7231 2.52574 70.68 2.41874 71.3359 2.94322C71.9918 3.4675 72.0986 4.42432 71.5743 5.08024L69.5492 7.61426C69.1978 8.05429 68.6514 8.24715 68.1318 8.16827Z" fill="#A20000"/>
<path d="M68.3211 57.2586L65.6499 58.9213L61.6603 58.6799L46.3261 82.334L56.9843 89.2434L66.606 77.1796L74.9383 61.5483L68.3211 57.2586Z" fill="#FFF5D1"/>
<path d="M74.9375 61.5481L85.2592 68.2394L67.3053 95.9345L56.9836 89.2432L74.9375 61.5481Z" fill="url(#paint4_linear)"/>
<path d="M68.3211 57.2586L65.7014 61.2996L61.6603 58.6799L68.3211 57.2586Z" fill="#FFEDAD"/>
<path d="M68.2645 71.8436L61.524 67.4739L62.7571 65.5717L69.4977 69.9414L69.5151 71.3035L68.2645 71.8436Z" fill="#996C84"/>
<path d="M65.6449 75.8845L58.9043 71.5148L60.1375 69.6127L66.878 73.9824L66.8955 75.3445L65.6449 75.8845Z" fill="#996C84"/>
<path d="M63.025 79.9259L56.2845 75.5561L57.5176 73.654L64.2582 78.0237L64.2756 79.3858L63.025 79.9259Z" fill="#996C84"/>
<path d="M69.4968 69.9409L75.901 74.0925L74.6679 75.9947L68.2637 71.8431L69.4968 69.9409Z" fill="url(#paint5_linear)"/>
<path d="M66.8774 73.9819L73.2816 78.1335L72.0485 80.0356L65.6443 75.884L66.8774 73.9819Z" fill="url(#paint6_linear)"/>
<path d="M64.2573 78.0233L70.6615 82.1749L69.4284 84.077L63.0242 79.9254L64.2573 78.0233Z" fill="url(#paint7_linear)"/>
<defs>
<linearGradient id="paint0_linear" x1="28.7508" y1="14.3641" x2="32.4905" y2="39.0067" gradientUnits="userSpaceOnUse">
<stop stop-color="#996C84"/>
<stop offset="1" stop-color="#88305F"/>
</linearGradient>
<linearGradient id="paint1_linear" x1="56.7116" y1="33.636" x2="59.4004" y2="52.6157" gradientUnits="userSpaceOnUse">
<stop offset="0.0001" stop-color="#88305F"/>
<stop offset="1" stop-color="#E7BCE0"/>
</linearGradient>
<linearGradient id="paint2_linear" x1="101.284" y1="15.396" x2="97.4577" y2="40.0252" gradientUnits="userSpaceOnUse">
<stop stop-color="#996C84"/>
<stop offset="1" stop-color="#88305F"/>
</linearGradient>
<linearGradient id="paint3_linear" x1="73.2571" y1="34.5691" x2="70.5015" y2="53.5392" gradientUnits="userSpaceOnUse">
<stop offset="0.0001" stop-color="#88305F"/>
<stop offset="1" stop-color="#E7BCE0"/>
</linearGradient>
<linearGradient id="paint4_linear" x1="65.9605" y1="75.3957" x2="76.2823" y2="82.0869" gradientUnits="userSpaceOnUse">
<stop stop-color="#FFEF5A"/>
<stop offset="1" stop-color="#FBCE2F"/>
</linearGradient>
<linearGradient id="paint5_linear" x1="68.8803" y1="70.892" x2="75.3135" y2="75.0036" gradientUnits="userSpaceOnUse">
<stop stop-color="#996C84"/>
<stop offset="1" stop-color="#882F5E"/>
</linearGradient>
<linearGradient id="paint6_linear" x1="66.2609" y1="74.9329" x2="72.6941" y2="79.0445" gradientUnits="userSpaceOnUse">
<stop stop-color="#996C84"/>
<stop offset="1" stop-color="#882F5E"/>
</linearGradient>
<linearGradient id="paint7_linear" x1="63.6408" y1="78.9743" x2="70.074" y2="83.0859" gradientUnits="userSpaceOnUse">
<stop stop-color="#996C84"/>
<stop offset="1" stop-color="#882F5E"/>
</linearGradient>
</defs>
</svg>
