<svg width="12" height="15" viewBox="0 0 12 15" fill="none" xmlns="http://www.w3.org/2000/svg">
<path d="M12 2.14286V3.48214C12 4.66239 9.31251 5.625 6 5.625C2.68749 5.625 0 4.66239 0 3.48214V2.14286C0 0.962607 2.68749 0 6 0C9.31251 0 12 0.962607 12 2.14286ZM12 5.15625V8.16964C12 9.34989 9.31251 10.3125 6 10.3125C2.68749 10.3125 0 9.34989 0 8.16964V5.15625C1.28906 6.12724 3.64843 6.57926 6 6.57926C8.35157 6.57926 10.7109 6.12724 12 5.15625ZM12 9.84375V12.8571C12 14.0374 9.31251 15 6 15C2.68749 15 0 14.0374 0 12.8571V9.84375C1.28906 10.8147 3.64843 11.2668 6 11.2668C8.35157 11.2668 10.7109 10.8147 12 9.84375Z" fill="#818181"/>
</svg>
