<svg width="17" height="17" viewBox="0 0 17 17" fill="none" xmlns="http://www.w3.org/2000/svg">
<path d="M9.94545 10.0198C9.75819 10.2311 9.53238 10.4006 9.28147 10.5181C9.03056 10.6357 8.75971 10.6989 8.48506 10.704C8.21042 10.7091 7.93761 10.656 7.68292 10.5478C7.42822 10.4396 7.19686 10.2786 7.00262 10.0744C6.80839 9.87017 6.65527 9.62689 6.55239 9.35909C6.44952 9.09129 6.399 8.80444 6.40384 8.51566C6.40869 8.22688 6.4688 7.94208 6.5806 7.67826C6.69239 7.41444 6.85358 7.177 7.05455 6.9801M12.55 12.7584C11.3845 13.6925 9.9653 14.21 8.5 14.2352C3.72727 14.2352 1 8.49995 1 8.49995C1.84811 6.83808 3.02441 5.38613 4.45 4.2415L12.55 12.7584ZM7.06818 2.93672C7.5375 2.82122 8.018 2.76348 8.5 2.76467C13.2727 2.76467 16 8.49995 16 8.49995C15.5861 9.31408 15.0925 10.0806 14.5273 10.7869L7.06818 2.93672Z" stroke="#88305F" stroke-linecap="round" stroke-linejoin="round"/>
<path d="M1 1L16 16" stroke="#88305F" stroke-linecap="round" stroke-linejoin="round"/>
</svg>
