<svg width="16" height="16" viewBox="0 0 16 16" fill="none" xmlns="http://www.w3.org/2000/svg">
<path fill-rule="evenodd" clip-rule="evenodd" d="M10.6667 10.6097V11.9997C10.6667 13.4724 9.4728 14.6663 8.00004 14.6663C6.52728 14.6663 5.33337 13.4724 5.33337 11.9997V10.6097C5.33337 10.4795 5.28726 10.3375 5.17835 10.1505C5.10837 10.0303 5.01683 9.89836 4.87871 9.71564L4.83225 9.65502C4.74003 9.53483 4.5386 9.27231 4.46424 9.17187C3.711 8.15449 3.33337 7.24625 3.33337 5.99967C3.33337 3.42235 5.42271 1.33301 8.00004 1.33301C10.5774 1.33301 12.6667 3.42235 12.6667 5.99967C12.6667 7.27352 12.2839 8.21623 11.5371 9.23166C11.4579 9.3393 11.2582 9.59886 11.1399 9.75256C11.0937 9.81268 11.0599 9.85661 11.0506 9.86891C10.8997 10.0697 10.806 10.212 10.745 10.3356C10.6898 10.4475 10.6667 10.5339 10.6667 10.6097ZM9.3625 10.2926C9.39651 10.1081 9.45974 9.92723 9.54927 9.74574C9.65451 9.53241 9.78833 9.32918 9.98482 9.06777C9.99831 9.04983 10.0418 8.99331 10.0979 8.92031C10.218 8.76422 10.396 8.53274 10.463 8.44168C11.0554 7.6362 11.3334 6.95161 11.3334 5.99967C11.3334 4.15873 9.84099 2.66634 8.00004 2.66634C6.15909 2.66634 4.66671 4.15873 4.66671 5.99967C4.66671 6.91871 4.93781 7.57075 5.53584 8.37848C5.60004 8.4652 5.78136 8.7016 5.87929 8.82928L5.8793 8.8293L5.94236 8.91163C6.10987 9.13324 6.22838 9.30408 6.33049 9.47939C6.48952 9.75242 6.5951 10.0186 6.64084 10.2945C7.05628 10.5439 7.50537 10.6663 8.00004 10.6663C8.496 10.6663 8.94615 10.5432 9.3625 10.2926ZM9.33337 11.9997V11.7746C8.91173 11.9243 8.46627 11.9997 8.00004 11.9997C7.53381 11.9997 7.08835 11.9243 6.66671 11.7746V11.9997C6.66671 12.7361 7.26366 13.333 8.00004 13.333C8.73642 13.333 9.33337 12.7361 9.33337 11.9997Z" fill="#818181"/>
</svg>
