<svg width="13" height="13" viewBox="0 0 13 13" fill="none" xmlns="http://www.w3.org/2000/svg">
<path d="M9.32139 1.45958C9.46709 1.31387 9.64007 1.19829 9.83044 1.11944C10.0208 1.04059 10.2248 1 10.4309 1C10.637 1 10.841 1.04059 11.0314 1.11944C11.2217 1.19829 11.3947 1.31387 11.5404 1.45958C11.6861 1.60528 11.8017 1.77826 11.8806 1.96863C11.9594 2.159 12 2.36304 12 2.5691C12 2.77515 11.9594 2.97919 11.8806 3.16956C11.8017 3.35993 11.6861 3.53291 11.5404 3.67861L4.05117 11.1679L1 12L1.83214 8.94883L9.32139 1.45958Z" stroke="#555555" stroke-width="1.5" stroke-linecap="round" stroke-linejoin="round"/>
</svg>
