<svg width="10" height="10" viewBox="0 0 10 10" fill="none" xmlns="http://www.w3.org/2000/svg">
<path d="M7.63165 1.23466C7.7819 1.08441 7.98568 1 8.19817 1C8.41066 1 8.61444 1.08441 8.76469 1.23466C8.91494 1.38491 8.99935 1.58869 8.99935 1.80118C8.99935 2.01366 8.91494 2.21745 8.76469 2.3677L5.17673 5.95565L3.66602 6.33333L4.0437 4.82261L7.63165 1.23466Z" fill="#88305F" stroke="#88305F" stroke-linecap="round" stroke-linejoin="round"/>
<path d="M4.55556 1.88892H1.79012C1.58057 1.88892 1.3796 1.97216 1.23142 2.12034C1.08324 2.26851 1 2.46949 1 2.67904V8.2099C1 8.41946 1.08324 8.62043 1.23142 8.76861C1.3796 8.91678 1.58057 9.00003 1.79012 9.00003H7.32099C7.53054 9.00003 7.73151 8.91678 7.87969 8.76861C8.02787 8.62043 8.11111 8.41946 8.11111 8.2099V5.44447" stroke="#88305F" stroke-linecap="round" stroke-linejoin="round"/>
</svg>
