<svg width="9" height="9" viewBox="0 0 9 9" fill="none" xmlns="http://www.w3.org/2000/svg">
<path d="M6.80294 1.20533C6.93441 1.07386 7.11272 1 7.29864 1C7.48457 1 7.66288 1.07386 7.79435 1.20533C7.92582 1.3368 7.99967 1.51511 7.99967 1.70103C7.99967 1.88696 7.92582 2.06527 7.79435 2.19674L4.65489 5.3362L3.33301 5.66667L3.66348 4.34479L6.80294 1.20533Z" fill="#626262" stroke="#626262" stroke-linecap="round" stroke-linejoin="round"/>
<path d="M4.11111 1.77783H1.69136C1.508 1.77783 1.33215 1.85067 1.20249 1.98033C1.07284 2.10998 1 2.28583 1 2.46919V7.3087C1 7.49206 1.07284 7.66791 1.20249 7.79756C1.33215 7.92721 1.508 8.00005 1.69136 8.00005H6.53086C6.71422 8.00005 6.89007 7.92721 7.01973 7.79756C7.14938 7.66791 7.22222 7.49206 7.22222 7.3087V4.88894" stroke="#626262" stroke-linecap="round" stroke-linejoin="round"/>
</svg>
