<svg width="67" height="56" viewBox="0 0 67 56" fill="none" xmlns="http://www.w3.org/2000/svg">
<path d="M59.307 7.04102H13.0397C9.70702 7.04102 7.00488 9.74315 7.00488 13.0759V21.1224H65.3419V13.0759C65.3419 9.74315 62.6397 7.04102 59.307 7.04102Z" fill="url(#paint0_linear)"/>
<path d="M59.3079 6.03486H51.2615V1.00581C51.2615 0.450355 50.8111 0 50.2556 0C49.7002 0 49.2498 0.450355 49.2498 1.00581V6.03486H23.0988V1.00581C23.0988 0.450355 22.6484 0 22.093 0C21.5375 0 21.0872 0.450355 21.0872 1.00581V6.03486H13.0407C9.15445 6.03977 6.00491 9.18931 6 13.0755V47.2731C6.00491 51.1593 9.15445 54.3088 13.0407 54.3138H59.3079C63.1942 54.3088 66.3437 51.1593 66.3486 47.2731V13.0755C66.3437 9.18931 63.1942 6.03977 59.3079 6.03486ZM13.0407 8.04648H21.0872V13.0755C21.0872 13.631 21.5375 14.0813 22.093 14.0813C22.6484 14.0813 23.0988 13.631 23.0988 13.0755V8.04648H49.2498V13.0755C49.2498 13.631 49.7002 14.0813 50.2556 14.0813C50.8111 14.0813 51.2615 13.631 51.2615 13.0755V8.04648H59.3079C62.0842 8.04992 64.3335 10.2992 64.337 13.0755V20.1162H8.01162V13.0755C8.01506 10.2992 10.2644 8.04992 13.0407 8.04648ZM59.3079 52.3021H13.0407C10.2644 52.2987 8.01506 50.0494 8.01162 47.2731V22.1278H64.337V47.2731C64.3335 50.0494 62.0842 52.2987 59.3079 52.3021Z" fill="url(#paint1_linear)"/>
<path d="M25.5215 50.4501L15.717 34.5196C15.1581 33.5725 14.1182 32.9839 12.9985 32.9839C11.8787 32.9839 10.8389 33.5725 10.2948 34.4973L0.506939 50.4018C0.17455 50.8939 0 51.4807 0 52.1009C0 53.8464 1.42612 55.267 3.17905 55.267H22.8179C24.5708 55.267 25.9969 53.8464 25.9969 52.1009C25.9969 51.4807 25.8224 50.8939 25.5215 50.4501Z" fill="#FBCE2F" fill-opacity="0.9"/>
<path d="M12.9985 52.4814C11.9716 52.4814 11.1416 51.6495 11.1416 50.6245C11.1416 49.5995 11.9716 48.7676 12.9985 48.7676C14.0254 48.7676 14.8554 49.5995 14.8554 50.6245C14.8554 51.6495 14.0254 52.4814 12.9985 52.4814Z" fill="#88305F"/>
<path d="M14.8554 45.0542C14.8554 46.0792 14.0254 46.9111 12.9985 46.9111C11.9716 46.9111 11.1416 46.0792 11.1416 45.0542V39.4834C11.1416 38.4584 11.9716 37.6265 12.9985 37.6265C14.0254 37.6265 14.8554 38.4584 14.8554 39.4834V45.0542Z" fill="#88305F"/>
<path d="M12.9985 32.9839C11.8787 32.9839 10.8389 33.5725 10.2948 34.4973L0.506939 50.4018C0.17455 50.8939 0 51.4807 0 52.1009C0 53.8464 1.42612 55.267 3.17905 55.267H12.9985V52.4816C11.9716 52.4816 11.1415 51.6497 11.1415 50.6246C11.1415 49.5996 11.9716 48.7677 12.9985 48.7677V46.9108C11.9716 46.9108 11.1415 46.0789 11.1415 45.0539V39.4831C11.1415 38.4581 11.9716 37.6262 12.9985 37.6262V32.9839Z" fill="#FFE852"/>
<path d="M12.9975 48.7676C11.9707 48.7676 11.1406 49.5995 11.1406 50.6245C11.1406 51.6495 11.9707 52.4814 12.9975 52.4814V48.7676Z" fill="#996C84"/>
<path d="M12.9975 37.6265C11.9707 37.6265 11.1406 38.4584 11.1406 39.4834V45.0542C11.1406 46.0792 11.9707 46.9111 12.9975 46.9111V37.6265Z" fill="#996C84"/>
<defs>
<linearGradient id="paint0_linear" x1="7.00488" y1="14.0817" x2="65.3419" y2="14.0817" gradientUnits="userSpaceOnUse">
<stop stop-color="#FFEF5A"/>
<stop offset="1" stop-color="#FBCE2F"/>
</linearGradient>
<linearGradient id="paint1_linear" x1="35.5827" y1="-16.2941" x2="37.5759" y2="54.2742" gradientUnits="userSpaceOnUse">
<stop stop-color="#996C84"/>
<stop offset="1" stop-color="#88305F"/>
</linearGradient>
</defs>
</svg>
