<svg width="178" height="176" viewBox="0 0 178 176" fill="none" xmlns="http://www.w3.org/2000/svg">
<path d="M89 175.377H165.724C172.504 175.377 178 169.881 178 163.102V133.554C178.001 130.824 177.09 128.172 175.413 126.019L138.717 78.84C136.392 75.8513 132.818 74.1027 129.032 74.1016H48.9684C45.1818 74.1027 41.6077 75.8513 39.2828 78.84L2.58714 126.019C0.909749 128.172 -0.000761914 130.824 4.78387e-07 133.554V163.102C4.78387e-07 169.881 5.49609 175.377 12.2759 175.377H89Z" fill="url(#paint0_linear)"/>
<g filter="url(#filter0_i)">
<path d="M165.723 135.478L128.896 86.375H49.1027L12.2751 135.478H51.4474C53.7728 135.479 55.8984 136.793 56.9378 138.873L62.7504 150.498C63.7898 152.578 65.9155 153.892 68.2408 153.892H109.758C112.083 153.892 114.209 152.578 115.248 150.498L121.061 138.873C122.1 136.793 124.226 135.479 126.551 135.478H165.723Z" fill="#996C84"/>
</g>
<path d="M73.3013 83.1653L45.1413 37.4107C43.536 34.6907 40.5493 33 37.3333 33C34.1173 33 31.1307 34.6907 29.568 37.3467L1.456 83.0267C0.501332 84.44 0 86.1253 0 87.9067C0 92.92 4.096 97 9.13067 97H65.536C70.5707 97 74.6667 92.92 74.6667 87.9067C74.6667 86.1253 74.1653 84.44 73.3013 83.1653Z" fill="#FBCE2F" fill-opacity="0.9"/>
<path d="M37.3343 88.9987C34.385 88.9987 32.001 86.6094 32.001 83.6654C32.001 80.7214 34.385 78.332 37.3343 78.332C40.2836 78.332 42.6676 80.7214 42.6676 83.6654C42.6676 86.6094 40.2836 88.9987 37.3343 88.9987Z" fill="#88305F"/>
<path d="M42.6676 67.6677C42.6676 70.6117 40.2836 73.001 37.3343 73.001C34.385 73.001 32.001 70.6117 32.001 67.6677V51.6677C32.001 48.7237 34.385 46.3344 37.3343 46.3344C40.2836 46.3344 42.6676 48.7237 42.6676 51.6677V67.6677Z" fill="#88305F"/>
<path d="M37.3333 33C34.1173 33 31.1307 34.6907 29.568 37.3467L1.456 83.0267C0.501332 84.44 0 86.1253 0 87.9067C0 92.92 4.096 97 9.13066 97H37.3333V89C34.384 89 32 86.6107 32 83.6667C32 80.7227 34.384 78.3333 37.3333 78.3333V73C34.384 73 32 70.6107 32 67.6667V51.6667C32 48.7227 34.384 46.3333 37.3333 46.3333V33Z" fill="#FFE852"/>
<path d="M37.3299 78.3324C34.3806 78.3324 31.9966 80.7217 31.9966 83.6657C31.9966 86.6097 34.3806 88.9991 37.3299 88.9991V78.3324Z" fill="#996C84"/>
<path d="M37.3311 46.3344C34.3818 46.3344 31.9978 48.7237 31.9978 51.6677V67.6677C31.9978 70.6117 34.3818 73.001 37.3311 73.001V46.3344Z" fill="#996C84"/>
<path d="M123 4H56L82.8 34.4822V55.5556L96.2 62V34.4822L123 4Z" stroke="url(#paint1_linear)" stroke-width="7" stroke-linecap="round" stroke-linejoin="round"/>
<defs>
<filter id="filter0_i" x="12.2751" y="86.375" width="153.448" height="69.5172" filterUnits="userSpaceOnUse" color-interpolation-filters="sRGB">
<feFlood flood-opacity="0" result="BackgroundImageFix"/>
<feBlend mode="normal" in="SourceGraphic" in2="BackgroundImageFix" result="shape"/>
<feColorMatrix in="SourceAlpha" type="matrix" values="0 0 0 0 0 0 0 0 0 0 0 0 0 0 0 0 0 0 127 0" result="hardAlpha"/>
<feOffset dy="2"/>
<feGaussianBlur stdDeviation="2"/>
<feComposite in2="hardAlpha" operator="arithmetic" k2="-1" k3="1"/>
<feColorMatrix type="matrix" values="0 0 0 0 0 0 0 0 0 0 0 0 0 0 0 0 0 0 0.1 0"/>
<feBlend mode="normal" in2="shape" result="effect1_innerShadow"/>
</filter>
<linearGradient id="paint0_linear" x1="87.2549" y1="43.7188" x2="89.6057" y2="175.367" gradientUnits="userSpaceOnUse">
<stop stop-color="#996C84"/>
<stop offset="1" stop-color="#88305F"/>
</linearGradient>
<linearGradient id="paint1_linear" x1="89.5" y1="4" x2="89.5" y2="62" gradientUnits="userSpaceOnUse">
<stop stop-color="#FFEF5A"/>
<stop offset="1" stop-color="#FBCE2F"/>
</linearGradient>
</defs>
</svg>
