<svg width="60" height="60" viewBox="0 0 60 60" fill="none" xmlns="http://www.w3.org/2000/svg">
<g filter="url(#filter0_d)">
<circle cx="29" cy="26" r="20" fill="url(#paint0_linear)"/>
<circle cx="29" cy="26" r="19.5" stroke="#88305F"/>
</g>
<path d="M35.2438 25.7262H30.4252C30.2392 24.8639 29.4615 24.2214 28.5485 24.2214C27.6355 24.2214 26.8577 24.8639 26.6718 25.7262H21.9715C21.7348 25.7262 21.5488 25.9122 21.5488 26.1489C21.5488 26.3856 21.7348 26.5716 21.9715 26.5716H26.6718C26.8577 27.4338 27.6355 28.0763 28.5485 28.0763C29.4615 28.0763 30.2392 27.4338 30.4252 26.5716H35.2438C35.4805 26.5716 35.6665 26.3856 35.6665 26.1489C35.6665 25.9291 35.4636 25.7262 35.2438 25.7262ZM28.5485 27.2309C27.9567 27.2309 27.4664 26.7406 27.4664 26.1489C27.4664 25.5571 27.9567 25.0668 28.5485 25.0668C29.1402 25.0668 29.6305 25.5571 29.6305 26.1489C29.6305 26.7406 29.1402 27.2309 28.5485 27.2309Z" fill="#6D6E71"/>
<path d="M23.4936 23.1908C24.4066 23.1908 25.1843 22.5483 25.3703 21.6861H35.2273C35.464 21.6861 35.65 21.5001 35.65 21.2634C35.65 21.0267 35.464 20.8407 35.2273 20.8407H25.3703C25.1843 19.9784 24.4066 19.3359 23.4936 19.3359C22.4284 19.3359 21.5662 20.2151 21.5662 21.2634C21.5662 22.3116 22.4284 23.1908 23.4936 23.1908ZM23.4936 20.1813C24.0854 20.1813 24.5757 20.6716 24.5757 21.2634C24.5757 21.8551 24.0854 22.3454 23.4936 22.3454C22.9018 22.3454 22.4115 21.8551 22.4115 21.2634C22.4115 20.6716 22.9018 20.1813 23.4936 20.1813Z" fill="#6D6E71"/>
<path d="M33.7221 29.1416C32.8091 29.1416 32.0483 29.7841 31.8454 30.6294H21.9715C21.7348 30.6294 21.5488 30.8154 21.5488 31.0521C21.5488 31.2888 21.7348 31.4748 21.9715 31.4748H31.8454C32.0314 32.3371 32.8091 32.9965 33.7221 32.9965C34.7873 32.9965 35.6496 32.1342 35.6496 31.069C35.6496 30.0039 34.7704 29.1416 33.7221 29.1416ZM33.7221 32.1342C33.1304 32.1342 32.6401 31.6439 32.6401 31.0521C32.6401 30.4604 33.1304 29.9701 33.7221 29.9701C34.3139 29.9701 34.8042 30.4604 34.8042 31.0521C34.8042 31.6439 34.3139 32.1342 33.7221 32.1342Z" fill="#6D6E71"/>
<defs>
<filter id="filter0_d" x="0" y="0" width="60" height="60" filterUnits="userSpaceOnUse" color-interpolation-filters="sRGB">
<feFlood flood-opacity="0" result="BackgroundImageFix"/>
<feColorMatrix in="SourceAlpha" type="matrix" values="0 0 0 0 0 0 0 0 0 0 0 0 0 0 0 0 0 0 127 0"/>
<feOffset dx="1" dy="4"/>
<feGaussianBlur stdDeviation="5"/>
<feColorMatrix type="matrix" values="0 0 0 0 0 0 0 0 0 0 0 0 0 0 0 0 0 0 0.1 0"/>
<feBlend mode="normal" in2="BackgroundImageFix" result="effect1_dropShadow"/>
<feBlend mode="normal" in="SourceGraphic" in2="effect1_dropShadow" result="shape"/>
</filter>
<linearGradient id="paint0_linear" x1="29" y1="6" x2="29" y2="46" gradientUnits="userSpaceOnUse">
<stop stop-color="#FFEF5A"/>
<stop offset="1" stop-color="#FBCE2F"/>
</linearGradient>
</defs>
</svg>
