<svg width="6" height="6" viewBox="0 0 6 6" fill="none" xmlns="http://www.w3.org/2000/svg">
<path d="M1.99474 2.98281L0.217726 1.2058C0.153968 1.14217 0.103451 1.06654 0.0689876 0.983289C0.0345247 0.900034 0.0169098 0.810696 0.0169969 0.720495C0.0170841 0.630285 0.0349083 0.540955 0.0695281 0.457561C0.104157 0.374158 0.154892 0.298312 0.218771 0.234433C0.282651 0.170554 0.358375 0.11994 0.441778 0.0853205C0.525172 0.0506921 0.614624 0.032746 0.704835 0.0326588C0.795036 0.0325717 0.884244 0.0503174 0.967507 0.0847803C1.05076 0.119234 1.12639 0.169761 1.19001 0.233518L2.96703 2.01053L4.77606 0.201504C4.90517 0.0726738 5.08002 0.00018335 5.26213 3.14986e-07C5.44425 -0.000174004 5.61872 0.0720114 5.7473 0.200589L5.79941 0.252701C5.928 0.381288 6.00018 0.555746 6 0.737865C5.99983 0.919985 5.92733 1.09483 5.7985 1.22394L3.98947 3.03296L5.76648 4.80997C5.83025 4.8736 5.88076 4.94921 5.91525 5.0325C5.94968 5.11573 5.96745 5.20498 5.96737 5.29518C5.96728 5.38539 5.94929 5.47479 5.91469 5.55821C5.88008 5.64163 5.82945 5.71734 5.76557 5.78122C5.7017 5.8451 5.62586 5.89585 5.54244 5.93046C5.45903 5.96506 5.36974 5.98292 5.27953 5.98301C5.18933 5.9831 5.09996 5.96546 5.01673 5.93101C4.93344 5.89653 4.85783 5.84602 4.7942 5.78225L3.01719 4.00524L1.22436 5.79807C1.09529 5.92713 0.920485 5.99972 0.738234 6C0.555983 6.00029 0.381289 5.92816 0.252616 5.79949L0.200503 5.74738C0.0718291 5.6187 -0.000278105 5.44403 8.06116e-07 5.26177C0.000279717 5.07952 0.0728487 4.9047 0.201923 4.77564L1.99474 2.98281Z" fill="#686868"/>
</svg>
