<svg width="23" height="22" viewBox="0 0 23 22" fill="none" xmlns="http://www.w3.org/2000/svg">
<g clip-path="url(#clip0)" filter="url(#filter0_d)">
<path d="M8.88086 3H14.0957L19 12.1H13.7734L8.88086 3Z" fill="url(#paint0_linear)"/>
<path d="M19 12.1L16.3867 16.9621H6.60156L9.2207 12.1H19Z" fill="url(#paint1_linear)"/>
<path d="M6.60156 16.9622L4 12.1L8.88086 3L11.5 7.87477L6.60156 16.9622Z" fill="url(#paint2_linear)"/>
<path opacity="0.1" d="M6.60156 16.9621L11.4707 12.1H9.2207L6.60156 16.9621Z" fill="black"/>
<path opacity="0.1" d="M19 12.1H13.7793L12.6309 9.96851L19 12.1Z" fill="black"/>
<path opacity="0.1" d="M8.88086 3L10.3867 9.93694L11.5 7.87477L8.88086 3Z" fill="black"/>
</g>
<defs>
<filter id="filter0_d" x="0" y="0" width="23" height="22" filterUnits="userSpaceOnUse" color-interpolation-filters="sRGB">
<feFlood flood-opacity="0" result="BackgroundImageFix"/>
<feColorMatrix in="SourceAlpha" type="matrix" values="0 0 0 0 0 0 0 0 0 0 0 0 0 0 0 0 0 0 127 0"/>
<feOffset dy="1"/>
<feGaussianBlur stdDeviation="2"/>
<feColorMatrix type="matrix" values="0 0 0 0 0 0 0 0 0 0 0 0 0 0 0 0 0 0 0.2 0"/>
<feBlend mode="normal" in2="BackgroundImageFix" result="effect1_dropShadow"/>
<feBlend mode="normal" in="SourceGraphic" in2="effect1_dropShadow" result="shape"/>
</filter>
<linearGradient id="paint0_linear" x1="8.88086" y1="3" x2="17.9298" y2="13.0624" gradientUnits="userSpaceOnUse">
<stop stop-color="#F6C338"/>
<stop offset="0.52278" stop-color="#FFD351"/>
<stop offset="1" stop-color="#F6C338"/>
</linearGradient>
<linearGradient id="paint1_linear" x1="19" y1="12.1" x2="15.6948" y2="20.5281" gradientUnits="userSpaceOnUse">
<stop stop-color="#286EE6"/>
<stop offset="0.52105" stop-color="#4286FB"/>
<stop offset="1" stop-color="#286EE6"/>
</linearGradient>
<linearGradient id="paint2_linear" x1="8.89668" y1="3" x2="2.52426" y2="14.6852" gradientUnits="userSpaceOnUse">
<stop stop-color="#069B5A"/>
<stop offset="0.53103" stop-color="#11AA62"/>
<stop offset="1" stop-color="#069B5A"/>
</linearGradient>
<clipPath id="clip0">
<rect width="15" height="14" fill="white" transform="translate(4 3)"/>
</clipPath>
</defs>
</svg>
