<svg width="178" height="254" viewBox="0 0 178 254" fill="none" xmlns="http://www.w3.org/2000/svg">
<path d="M58.2765 13.125L55.4237 19.2028L48 23.4015V83.5544H75.104L78.3288 50.7852L75.104 13.125H58.2765Z" fill="#FFEDAD"/>
<path d="M75.1035 13.1245H101.352V83.5539H75.1035V13.1245Z" fill="url(#paint0_linear)"/>
<path d="M58.2765 13.125V23.4015H48L58.2765 13.125Z" fill="#FBCE2F"/>
<path d="M75.1034 39.303H57.9622V34.4658H75.1034L76.7158 36.8844L75.1034 39.303Z" fill="#996C84"/>
<path d="M75.1034 49.5809H57.9622V44.7437H75.1034L76.7158 47.1623L75.1034 49.5809Z" fill="#996C84"/>
<path d="M75.1037 59.8572H57.9624V55.02H75.1037L76.7161 57.4386L75.1037 59.8572Z" fill="#996C84"/>
<path d="M75.1038 34.4658H91.3897V39.303H75.1038V34.4658Z" fill="#88305F"/>
<path d="M75.1038 44.7437H91.3897V49.5809H75.1038V44.7437Z" fill="#88305F"/>
<path d="M75.1035 55.02H91.3894V59.8572H75.1035V55.02Z" fill="#88305F"/>
<g filter="url(#filter0_d)">
<path d="M87.4783 1L84.6253 7.07779L77.2017 11.2765V71.4294H104.306L107.531 38.6602L104.306 1H87.4783Z" fill="#FFF5D1"/>
<path d="M104.305 1H130.553V71.4294H104.305V1Z" fill="url(#paint1_linear)"/>
</g>
<path d="M87.4783 1V11.2765H77.2017L87.4783 1Z" fill="#FFEDAD"/>
<path d="M104.306 27.18H87.165V22.3428H104.306L105.919 24.7614L104.306 27.18Z" fill="#996C84"/>
<path d="M104.306 37.4578H87.165V32.6206H104.306L105.919 35.0392L104.306 37.4578Z" fill="#996C84"/>
<path d="M104.306 47.7327H87.165V42.8955H104.306L105.919 45.3141L104.306 47.7327Z" fill="#996C84"/>
<path d="M104.305 22.3428H120.591V27.18H104.305V22.3428Z" fill="url(#paint2_linear)"/>
<path d="M104.305 32.6206H120.591V37.4578H104.305V32.6206Z" fill="url(#paint3_linear)"/>
<path d="M104.305 42.8955H120.591V47.7327H104.305V42.8955Z" fill="url(#paint4_linear)"/>
<path d="M89 200.377H165.724C172.504 200.377 178 194.881 178 188.102V158.554C178.001 155.824 177.09 153.172 175.413 151.019L138.717 103.84C136.392 100.851 132.818 99.1027 129.032 99.1016H48.9684C45.1818 99.1027 41.6077 100.851 39.2828 103.84L2.58714 151.019C0.909749 153.172 -0.000761914 155.824 4.78387e-07 158.554V188.102C4.78387e-07 194.881 5.49609 200.377 12.2759 200.377H89Z" fill="url(#paint5_linear)"/>
<path d="M165.723 160.478L128.896 111.375H49.1027L12.2751 160.478H51.4474C53.7728 160.479 55.8984 161.793 56.9378 163.873L62.7504 175.498C63.7898 177.578 65.9155 178.892 68.2408 178.892H109.758C112.083 178.892 114.209 177.578 115.248 175.498L121.061 163.873C122.1 161.793 124.226 160.479 126.551 160.478H165.723Z" fill="#A06685"/>
<path d="M10.1113 242.601C9.75 243.119 9.24463 243.507 8.59521 243.766C7.95068 244.02 7.19873 244.146 6.33936 244.146C5.47021 244.146 4.69873 243.944 4.0249 243.539C3.35107 243.128 2.82861 242.547 2.45752 241.795C2.09131 241.043 1.90332 240.172 1.89355 239.181V238.25C1.89355 236.644 2.26709 235.399 3.01416 234.515C3.76611 233.631 4.8208 233.189 6.17822 233.189C7.2915 233.189 8.1875 233.475 8.86621 234.046C9.54492 234.613 9.95996 235.418 10.1113 236.463H8.70508C8.44141 235.052 7.60156 234.347 6.18555 234.347C5.24316 234.347 4.52783 234.679 4.03955 235.343C3.55615 236.002 3.31201 236.959 3.30713 238.214V239.085C3.30713 240.282 3.58057 241.234 4.12744 241.942C4.67432 242.645 5.41406 242.997 6.34668 242.997C6.87402 242.997 7.33545 242.938 7.73096 242.821C8.12646 242.704 8.45361 242.506 8.7124 242.228V239.833H6.24414V238.69H10.1113V242.601ZM11.8911 239.964C11.8911 239.188 12.0425 238.49 12.3452 237.87C12.6528 237.25 13.0776 236.771 13.6196 236.434C14.1665 236.097 14.7891 235.929 15.4873 235.929C16.5664 235.929 17.438 236.302 18.1021 237.049C18.771 237.796 19.1055 238.79 19.1055 240.03V240.125C19.1055 240.897 18.9565 241.59 18.6587 242.206C18.3657 242.816 17.9434 243.292 17.3916 243.634C16.8447 243.976 16.2148 244.146 15.502 244.146C14.4277 244.146 13.5562 243.773 12.8872 243.026C12.2231 242.279 11.8911 241.29 11.8911 240.06V239.964ZM13.2534 240.125C13.2534 241.004 13.4561 241.71 13.8613 242.242C14.2715 242.774 14.8184 243.041 15.502 243.041C16.1904 243.041 16.7373 242.772 17.1426 242.235C17.5479 241.693 17.7505 240.936 17.7505 239.964C17.7505 239.095 17.543 238.392 17.1279 237.855C16.7178 237.313 16.1709 237.042 15.4873 237.042C14.8184 237.042 14.2788 237.308 13.8687 237.84C13.4585 238.373 13.2534 239.134 13.2534 240.125ZM31.2344 240.125C31.2344 241.336 30.9561 242.311 30.3994 243.048C29.8428 243.78 29.0957 244.146 28.1582 244.146C27.1572 244.146 26.3833 243.792 25.8364 243.084L25.7705 244H24.5254V232.75H25.8804V236.947C26.4272 236.268 27.1816 235.929 28.1436 235.929C29.1055 235.929 29.8599 236.292 30.4067 237.02C30.9585 237.748 31.2344 238.744 31.2344 240.008V240.125ZM29.8794 239.972C29.8794 239.049 29.7012 238.336 29.3447 237.833C28.9883 237.33 28.4756 237.079 27.8066 237.079C26.9131 237.079 26.271 237.494 25.8804 238.324V241.751C26.2954 242.582 26.9424 242.997 27.8213 242.997C28.4707 242.997 28.9761 242.745 29.3374 242.242C29.6987 241.739 29.8794 240.982 29.8794 239.972ZM37.8408 244C37.7627 243.844 37.6992 243.565 37.6504 243.165C37.0205 243.819 36.2686 244.146 35.3945 244.146C34.6133 244.146 33.9712 243.927 33.4683 243.487C32.9702 243.043 32.7212 242.481 32.7212 241.803C32.7212 240.978 33.0337 240.338 33.6587 239.884C34.2886 239.425 35.1724 239.195 36.3101 239.195H37.6284V238.573C37.6284 238.099 37.4868 237.723 37.2036 237.445C36.9204 237.162 36.5029 237.02 35.9512 237.02C35.4678 237.02 35.0625 237.142 34.7354 237.386C34.4082 237.63 34.2446 237.926 34.2446 238.272H32.8823C32.8823 237.877 33.0215 237.496 33.2998 237.13C33.583 236.759 33.9639 236.466 34.4424 236.251C34.9258 236.036 35.4556 235.929 36.0317 235.929C36.9448 235.929 37.6602 236.158 38.1777 236.617C38.6953 237.071 38.9639 237.699 38.9834 238.5V242.147C38.9834 242.875 39.0762 243.453 39.2617 243.883V244H37.8408ZM35.5923 242.967C36.0171 242.967 36.4199 242.857 36.8008 242.638C37.1816 242.418 37.4575 242.132 37.6284 241.781V240.155H36.5664C34.9062 240.155 34.0762 240.641 34.0762 241.612C34.0762 242.037 34.2178 242.369 34.501 242.608C34.7842 242.848 35.1479 242.967 35.5923 242.967ZM44.2861 243.041C44.7695 243.041 45.1919 242.894 45.5532 242.601C45.9146 242.308 46.1147 241.942 46.1538 241.502H47.4355C47.4111 241.957 47.2549 242.389 46.9668 242.799C46.6787 243.209 46.293 243.536 45.8096 243.78C45.3311 244.024 44.8232 244.146 44.2861 244.146C43.207 244.146 42.3477 243.788 41.708 243.07C41.0732 242.347 40.7559 241.361 40.7559 240.111V239.884C40.7559 239.112 40.8975 238.426 41.1807 237.826C41.4639 237.225 41.8691 236.759 42.3965 236.427C42.9287 236.095 43.5562 235.929 44.2788 235.929C45.1675 235.929 45.9048 236.195 46.4907 236.727C47.0815 237.259 47.3965 237.95 47.4355 238.8H46.1538C46.1147 238.287 45.9194 237.867 45.5679 237.54C45.2212 237.208 44.7915 237.042 44.2788 237.042C43.5903 237.042 43.0557 237.291 42.6748 237.789C42.2988 238.282 42.1108 238.998 42.1108 239.935V240.191C42.1108 241.104 42.2988 241.808 42.6748 242.301C43.0508 242.794 43.5879 243.041 44.2861 243.041ZM51.1709 240.331L50.3213 241.217V244H48.9663V232.75H50.3213V239.554L51.0464 238.683L53.5146 236.075H55.1626L52.0791 239.386L55.5215 244H53.9321L51.1709 240.331ZM62.1206 234.156V236.075H63.6001V237.123H62.1206V242.037C62.1206 242.354 62.1865 242.594 62.3184 242.755C62.4502 242.911 62.6748 242.989 62.9922 242.989C63.1484 242.989 63.3633 242.96 63.6367 242.901V244C63.2803 244.098 62.9336 244.146 62.5967 244.146C61.9912 244.146 61.5347 243.963 61.2271 243.597C60.9194 243.231 60.7656 242.711 60.7656 242.037V237.123H59.3228V236.075H60.7656V234.156H62.1206ZM64.6841 239.964C64.6841 239.188 64.8354 238.49 65.1382 237.87C65.4458 237.25 65.8706 236.771 66.4126 236.434C66.9595 236.097 67.582 235.929 68.2803 235.929C69.3594 235.929 70.231 236.302 70.895 237.049C71.564 237.796 71.8984 238.79 71.8984 240.03V240.125C71.8984 240.897 71.7495 241.59 71.4517 242.206C71.1587 242.816 70.7363 243.292 70.1846 243.634C69.6377 243.976 69.0078 244.146 68.2949 244.146C67.2207 244.146 66.3491 243.773 65.6802 243.026C65.0161 242.279 64.6841 241.29 64.6841 240.06V239.964ZM66.0464 240.125C66.0464 241.004 66.249 241.71 66.6543 242.242C67.0645 242.774 67.6113 243.041 68.2949 243.041C68.9834 243.041 69.5303 242.772 69.9355 242.235C70.3408 241.693 70.5435 240.936 70.5435 239.964C70.5435 239.095 70.3359 238.392 69.9209 237.855C69.5107 237.313 68.9639 237.042 68.2803 237.042C67.6113 237.042 67.0718 237.308 66.6616 237.84C66.2515 238.373 66.0464 239.134 66.0464 240.125ZM82.2109 243.216C81.6836 243.836 80.9097 244.146 79.8892 244.146C79.0444 244.146 78.3999 243.902 77.9556 243.414C77.5161 242.921 77.2939 242.193 77.2891 241.231V236.075H78.644V241.195C78.644 242.396 79.1323 242.997 80.1089 242.997C81.144 242.997 81.8325 242.611 82.1743 241.839V236.075H83.5293V244H82.2402L82.2109 243.216ZM92.2891 240.125C92.2891 241.332 92.0132 242.303 91.4614 243.041C90.9097 243.778 90.1626 244.146 89.2202 244.146C88.2583 244.146 87.5015 243.841 86.9497 243.231V247.047H85.5947V236.075H86.8325L86.8984 236.954C87.4502 236.271 88.2168 235.929 89.1982 235.929C90.1504 235.929 90.9023 236.288 91.4541 237.005C92.0107 237.723 92.2891 238.722 92.2891 240.001V240.125ZM90.9341 239.972C90.9341 239.078 90.7437 238.373 90.3628 237.855C89.9819 237.337 89.4595 237.079 88.7954 237.079C87.9751 237.079 87.3599 237.442 86.9497 238.17V241.957C87.355 242.679 87.9751 243.041 88.8101 243.041C89.4595 243.041 89.9746 242.784 90.3555 242.271C90.7412 241.754 90.9341 240.987 90.9341 239.972ZM95.4897 244H94.1348V232.75H95.4897V244ZM97.3062 239.964C97.3062 239.188 97.4575 238.49 97.7603 237.87C98.0679 237.25 98.4927 236.771 99.0347 236.434C99.5815 236.097 100.204 235.929 100.902 235.929C101.981 235.929 102.853 236.302 103.517 237.049C104.186 237.796 104.521 238.79 104.521 240.03V240.125C104.521 240.897 104.372 241.59 104.074 242.206C103.781 242.816 103.358 243.292 102.807 243.634C102.26 243.976 101.63 244.146 100.917 244.146C99.8428 244.146 98.9712 243.773 98.3022 243.026C97.6382 242.279 97.3062 241.29 97.3062 240.06V239.964ZM98.6685 240.125C98.6685 241.004 98.8711 241.71 99.2764 242.242C99.6865 242.774 100.233 243.041 100.917 243.041C101.605 243.041 102.152 242.772 102.558 242.235C102.963 241.693 103.166 240.936 103.166 239.964C103.166 239.095 102.958 238.392 102.543 237.855C102.133 237.313 101.586 237.042 100.902 237.042C100.233 237.042 99.6938 237.308 99.2837 237.84C98.8735 238.373 98.6685 239.134 98.6685 240.125ZM111.112 244C111.034 243.844 110.971 243.565 110.922 243.165C110.292 243.819 109.54 244.146 108.666 244.146C107.885 244.146 107.243 243.927 106.74 243.487C106.242 243.043 105.993 242.481 105.993 241.803C105.993 240.978 106.305 240.338 106.93 239.884C107.56 239.425 108.444 239.195 109.582 239.195H110.9V238.573C110.9 238.099 110.758 237.723 110.475 237.445C110.192 237.162 109.774 237.02 109.223 237.02C108.739 237.02 108.334 237.142 108.007 237.386C107.68 237.63 107.516 237.926 107.516 238.272H106.154C106.154 237.877 106.293 237.496 106.571 237.13C106.854 236.759 107.235 236.466 107.714 236.251C108.197 236.036 108.727 235.929 109.303 235.929C110.216 235.929 110.932 236.158 111.449 236.617C111.967 237.071 112.235 237.699 112.255 238.5V242.147C112.255 242.875 112.348 243.453 112.533 243.883V244H111.112ZM108.864 242.967C109.289 242.967 109.691 242.857 110.072 242.638C110.453 242.418 110.729 242.132 110.9 241.781V240.155H109.838C108.178 240.155 107.348 240.641 107.348 241.612C107.348 242.037 107.489 242.369 107.772 242.608C108.056 242.848 108.419 242.967 108.864 242.967ZM114.049 239.972C114.049 238.756 114.337 237.779 114.914 237.042C115.49 236.3 116.244 235.929 117.177 235.929C118.104 235.929 118.839 236.246 119.381 236.881V232.75H120.736V244H119.491L119.425 243.15C118.883 243.814 118.129 244.146 117.162 244.146C116.244 244.146 115.495 243.771 114.914 243.019C114.337 242.267 114.049 241.285 114.049 240.074V239.972ZM115.404 240.125C115.404 241.024 115.59 241.727 115.961 242.235C116.332 242.743 116.845 242.997 117.499 242.997C118.358 242.997 118.986 242.611 119.381 241.839V238.199C118.976 237.452 118.354 237.079 117.514 237.079C116.85 237.079 116.332 237.335 115.961 237.848C115.59 238.36 115.404 239.12 115.404 240.125ZM124.318 244H122.963V236.075H124.318V244ZM122.853 233.973C122.853 233.753 122.919 233.568 123.051 233.417C123.188 233.265 123.388 233.189 123.651 233.189C123.915 233.189 124.115 233.265 124.252 233.417C124.389 233.568 124.457 233.753 124.457 233.973C124.457 234.193 124.389 234.376 124.252 234.522C124.115 234.669 123.915 234.742 123.651 234.742C123.388 234.742 123.188 234.669 123.051 234.522C122.919 234.376 122.853 234.193 122.853 233.973ZM127.775 236.075L127.819 237.071C128.424 236.31 129.215 235.929 130.192 235.929C131.867 235.929 132.711 236.874 132.726 238.763V244H131.371V238.756C131.366 238.185 131.234 237.762 130.976 237.489C130.722 237.215 130.324 237.079 129.782 237.079C129.342 237.079 128.957 237.196 128.625 237.43C128.292 237.665 128.034 237.972 127.848 238.353V244H126.493V236.075H127.775ZM134.447 239.972C134.447 238.736 134.733 237.755 135.304 237.027C135.875 236.295 136.632 235.929 137.575 235.929C138.542 235.929 139.296 236.271 139.838 236.954L139.904 236.075H141.142V243.81C141.142 244.835 140.836 245.643 140.226 246.234C139.621 246.825 138.805 247.12 137.78 247.12C137.208 247.12 136.649 246.998 136.103 246.754C135.556 246.51 135.138 246.175 134.85 245.75L135.553 244.938C136.134 245.655 136.845 246.014 137.685 246.014C138.344 246.014 138.856 245.829 139.223 245.458C139.594 245.086 139.779 244.564 139.779 243.89V243.209C139.237 243.834 138.498 244.146 137.56 244.146C136.632 244.146 135.88 243.773 135.304 243.026C134.733 242.279 134.447 241.261 134.447 239.972ZM135.81 240.125C135.81 241.019 135.993 241.722 136.359 242.235C136.725 242.743 137.238 242.997 137.897 242.997C138.751 242.997 139.379 242.608 139.779 241.832V238.214C139.364 237.457 138.742 237.079 137.912 237.079C137.252 237.079 136.737 237.335 136.366 237.848C135.995 238.36 135.81 239.12 135.81 240.125ZM147.367 244V237.123H146.115V236.075H147.367V235.401C147.367 234.518 147.619 233.829 148.122 233.336C148.629 232.843 149.345 232.596 150.268 232.596C150.814 232.596 151.505 232.745 152.34 233.043L152.113 234.186C151.503 233.941 150.922 233.819 150.37 233.819C149.789 233.819 149.369 233.951 149.11 234.215C148.856 234.474 148.729 234.864 148.729 235.387V236.075H150.348V237.123H148.729V244H147.367ZM153.014 244H151.652V236.075H153.014V244ZM156.691 244H155.336V232.75H156.691V244ZM162.155 244.146C161.081 244.146 160.207 243.795 159.533 243.092C158.859 242.384 158.522 241.439 158.522 240.257V240.008C158.522 239.222 158.671 238.521 158.969 237.906C159.271 237.286 159.691 236.803 160.229 236.456C160.771 236.104 161.356 235.929 161.986 235.929C163.017 235.929 163.817 236.268 164.389 236.947C164.96 237.625 165.246 238.597 165.246 239.862V240.426H159.877C159.896 241.207 160.124 241.839 160.558 242.323C160.998 242.801 161.554 243.041 162.228 243.041C162.707 243.041 163.112 242.943 163.444 242.748C163.776 242.552 164.066 242.293 164.315 241.971L165.143 242.616C164.479 243.636 163.483 244.146 162.155 244.146ZM161.986 237.042C161.439 237.042 160.98 237.242 160.609 237.643C160.238 238.038 160.009 238.595 159.921 239.312H163.891V239.21C163.852 238.521 163.666 237.989 163.334 237.613C163.002 237.232 162.553 237.042 161.986 237.042ZM171.435 241.898C171.435 241.532 171.295 241.249 171.017 241.048C170.744 240.843 170.263 240.667 169.574 240.521C168.891 240.375 168.346 240.199 167.941 239.994C167.541 239.789 167.243 239.544 167.047 239.261C166.857 238.978 166.762 238.641 166.762 238.25C166.762 237.601 167.035 237.052 167.582 236.603C168.134 236.153 168.837 235.929 169.691 235.929C170.59 235.929 171.317 236.161 171.874 236.625C172.436 237.088 172.716 237.682 172.716 238.404H171.354C171.354 238.033 171.195 237.713 170.878 237.445C170.565 237.176 170.17 237.042 169.691 237.042C169.198 237.042 168.812 237.149 168.534 237.364C168.256 237.579 168.117 237.86 168.117 238.207C168.117 238.534 168.246 238.78 168.505 238.946C168.764 239.112 169.23 239.271 169.904 239.422C170.583 239.574 171.132 239.754 171.552 239.964C171.972 240.174 172.282 240.428 172.482 240.726C172.687 241.019 172.79 241.378 172.79 241.803C172.79 242.511 172.506 243.08 171.94 243.509C171.374 243.934 170.639 244.146 169.735 244.146C169.101 244.146 168.539 244.034 168.051 243.81C167.562 243.585 167.179 243.272 166.901 242.872C166.627 242.467 166.491 242.03 166.491 241.561H167.846C167.87 242.015 168.051 242.376 168.388 242.645C168.729 242.909 169.179 243.041 169.735 243.041C170.248 243.041 170.658 242.938 170.966 242.733C171.278 242.523 171.435 242.245 171.435 241.898Z" fill="#88305F"/>
<line x1="1" y1="253.5" x2="176" y2="253.5" stroke="#88305F"/>
<defs>
<filter id="filter0_d" x="74.2017" y="0" width="59.3517" height="76.4294" filterUnits="userSpaceOnUse" color-interpolation-filters="sRGB">
<feFlood flood-opacity="0" result="BackgroundImageFix"/>
<feColorMatrix in="SourceAlpha" type="matrix" values="0 0 0 0 0 0 0 0 0 0 0 0 0 0 0 0 0 0 127 0"/>
<feOffset dy="2"/>
<feGaussianBlur stdDeviation="1.5"/>
<feColorMatrix type="matrix" values="0 0 0 0 0 0 0 0 0 0 0 0 0 0 0 0 0 0 0.25 0"/>
<feBlend mode="normal" in2="BackgroundImageFix" result="effect1_dropShadow"/>
<feBlend mode="normal" in="SourceGraphic" in2="effect1_dropShadow" result="shape"/>
</filter>
<linearGradient id="paint0_linear" x1="75.1035" y1="48.3392" x2="101.352" y2="48.3392" gradientUnits="userSpaceOnUse">
<stop stop-color="#FFEF5A"/>
<stop offset="1" stop-color="#FBCE2F"/>
</linearGradient>
<linearGradient id="paint1_linear" x1="104.305" y1="36.2147" x2="130.553" y2="36.2147" gradientUnits="userSpaceOnUse">
<stop stop-color="#FFEF5A"/>
<stop offset="1" stop-color="#FBCE2F"/>
</linearGradient>
<linearGradient id="paint2_linear" x1="104.305" y1="24.7614" x2="120.596" y2="24.6559" gradientUnits="userSpaceOnUse">
<stop stop-color="#996C84"/>
<stop offset="1" stop-color="#882F5E"/>
</linearGradient>
<linearGradient id="paint3_linear" x1="104.305" y1="35.0392" x2="120.596" y2="34.9338" gradientUnits="userSpaceOnUse">
<stop stop-color="#996C84"/>
<stop offset="1" stop-color="#882F5E"/>
</linearGradient>
<linearGradient id="paint4_linear" x1="104.305" y1="45.3141" x2="120.596" y2="45.2087" gradientUnits="userSpaceOnUse">
<stop stop-color="#996C84"/>
<stop offset="1" stop-color="#882F5E"/>
</linearGradient>
<linearGradient id="paint5_linear" x1="87.2549" y1="68.7188" x2="89.6057" y2="200.367" gradientUnits="userSpaceOnUse">
<stop stop-color="#996C84"/>
<stop offset="1" stop-color="#88305F"/>
</linearGradient>
</defs>
</svg>
