<svg width="68" height="68" viewBox="0 0 68 68" fill="none" xmlns="http://www.w3.org/2000/svg">
<g filter="url(#filter0_d)">
<circle cx="34" cy="32" r="24" fill="white" fill-opacity="0.9"/>
</g>
<path d="M33.9992 25.6839C34.1846 25.6833 34.3682 25.7212 34.5394 25.7964C34.7106 25.8715 34.866 25.9826 34.9965 26.1218L44.1133 35.7683C44.2443 35.9069 44.3481 36.0716 44.419 36.2527C44.4899 36.4337 44.5264 36.6278 44.5264 36.8238C44.5264 37.0197 44.4899 37.2138 44.419 37.3948C44.3481 37.5759 44.2443 37.7397 44.1133 37.8783C43.9823 38.0169 43.8268 38.1271 43.6557 38.2021C43.4846 38.2771 43.3012 38.3154 43.116 38.3154C42.9308 38.3154 42.7474 38.2771 42.5763 38.2021C42.4052 38.1271 42.2497 38.0169 42.1187 37.8783L33.9992 29.2872L25.8814 37.8783C25.7504 38.0169 25.5949 38.1271 25.4238 38.2021C25.2527 38.2771 25.0694 38.3154 24.8841 38.3154C24.6988 38.3154 24.5155 38.2771 24.3444 38.2021C24.1733 38.1271 24.0178 38.0169 23.8868 37.8783C23.7558 37.7397 23.6519 37.5759 23.5811 37.3948C23.5103 37.2138 23.4737 37.0197 23.4737 36.8238C23.4737 36.6278 23.5103 36.4337 23.5811 36.2527C23.6519 36.0716 23.7558 35.9069 23.8868 35.7683L33.0019 26.1218C33.1327 25.9829 33.2881 25.8724 33.4593 25.7972C33.6304 25.7221 33.8139 25.6837 33.9992 25.6839Z" fill="#A06685"/>
<defs>
<filter id="filter0_d" x="0" y="0" width="68" height="68" filterUnits="userSpaceOnUse" color-interpolation-filters="sRGB">
<feFlood flood-opacity="0" result="BackgroundImageFix"/>
<feColorMatrix in="SourceAlpha" type="matrix" values="0 0 0 0 0 0 0 0 0 0 0 0 0 0 0 0 0 0 127 0"/>
<feOffset dy="2"/>
<feGaussianBlur stdDeviation="5"/>
<feColorMatrix type="matrix" values="0 0 0 0 0 0 0 0 0 0 0 0 0 0 0 0 0 0 0.15 0"/>
<feBlend mode="normal" in2="BackgroundImageFix" result="effect1_dropShadow"/>
<feBlend mode="normal" in="SourceGraphic" in2="effect1_dropShadow" result="shape"/>
</filter>
</defs>
</svg>
