<svg width="35" height="14" viewBox="0 0 35 14" fill="none" xmlns="http://www.w3.org/2000/svg">
<path d="M0 0H35V14H0V0Z" fill="white"/>
<path d="M24.2762 12.2227H21.5367C20.3979 12.2227 19.4712 11.1933 19.4712 9.92768V5.36533C19.4712 4.10003 20.3979 3.07031 21.5367 3.07031H24.2762C24.6552 3.07031 24.9626 3.41186 24.9626 3.83307C24.9626 4.25393 24.6552 4.59582 24.2762 4.59582H21.5367C21.1542 4.59582 20.8441 4.94142 20.8441 5.36533V9.92768C20.8441 10.3519 21.1542 10.6975 21.5367 10.6975H24.2762C24.6552 10.6975 24.9626 11.0391 24.9626 11.4603C24.9626 11.8811 24.6552 12.2227 24.2762 12.2227Z" fill="#996C84"/>
<path d="M4.59834 12.2227H3.79746C3.35556 12.2227 2.99658 11.8811 2.99658 11.4603V3.83307C2.99658 3.41186 3.35556 3.07031 3.79746 3.07031H4.59834C7.24761 3.07031 9.40325 5.12266 9.40325 7.6465C9.40325 10.1703 7.24761 12.2227 4.59834 12.2227ZM4.59834 10.6975H4.60649H4.59834ZM4.59834 4.59582V10.6975C6.36488 10.6975 7.80149 9.32895 7.80149 7.6465C7.80149 5.96406 6.36488 4.59582 4.59834 4.59582Z" fill="#996C84"/>
<path d="M15.2379 12.2227H13.6362C12.3119 12.2227 11.2339 11.1964 11.2339 9.93477V5.35858C11.2339 4.09699 12.3108 3.07031 13.6362 3.07031H15.2379C16.5626 3.07031 17.6406 4.09699 17.6406 5.35858V9.93477C17.6406 11.1964 16.5633 12.2227 15.2379 12.2227ZM13.6362 4.59582C13.195 4.59582 12.8356 4.93737 12.8356 5.35858V9.93477C12.8356 10.355 13.1943 10.6975 13.6362 10.6975H15.2379C15.6791 10.6975 16.0388 10.3556 16.0388 9.93477V5.35858C16.0388 4.93805 15.6802 4.59582 15.2379 4.59582H13.6362Z" fill="#996C84"/>
<rect x="30.9763" y="2.81763" width="1.37286" height="10.3378" rx="0.686429" transform="rotate(29.3156 30.9763 2.81763)" fill="#996C84"/>
<rect width="1.37286" height="10.3378" rx="0.686429" transform="matrix(-0.871936 0.48962 0.48962 0.871936 27.1099 2.81763)" fill="#996C84"/>
</svg>
