<svg width="32" height="14" viewBox="0 0 32 14" fill="none" xmlns="http://www.w3.org/2000/svg">
<path d="M0 0H31.1106V14H0V0Z" fill="white"/>
<path d="M26.4444 11.6671H23.3403C22.0501 11.6671 21 10.6174 21 9.32676V4.67432C21 3.38404 22.0501 2.33398 23.3403 2.33398H26.4444C26.8739 2.33398 27.2222 2.68228 27.2222 3.1118C27.2222 3.54098 26.8739 3.88962 26.4444 3.88962H23.3403C22.907 3.88962 22.5556 4.24204 22.5556 4.67432V9.32676C22.5556 9.75937 22.907 10.1118 23.3403 10.1118H26.4444C26.8739 10.1118 27.2222 10.4601 27.2222 10.8896C27.2222 11.3188 26.8739 11.6671 26.4444 11.6671Z" fill="#996C84"/>
<path d="M5.44479 11.6671H4.66698C4.2378 11.6671 3.88916 11.3188 3.88916 10.8896V3.1118C3.88916 2.68228 4.2378 2.33398 4.66698 2.33398H5.44479C8.01778 2.33398 10.1113 4.42686 10.1113 7.00054C10.1113 9.57421 8.01778 11.6671 5.44479 11.6671ZM5.44479 10.1118H5.45271H5.44479ZM5.44479 3.88962V10.1118C7.16046 10.1118 8.55571 8.71621 8.55571 7.00054C8.55571 5.28487 7.16046 3.88962 5.44479 3.88962Z" fill="#996C84"/>
<path d="M16.3345 11.6671H14.7789C13.4928 11.6671 12.4458 10.6205 12.4458 9.33398V4.66743C12.4458 3.38094 13.4917 2.33398 14.7789 2.33398H16.3345C17.621 2.33398 18.668 3.38094 18.668 4.66743V9.33398C18.668 10.6205 17.6217 11.6671 16.3345 11.6671ZM14.7789 3.88962C14.3504 3.88962 14.0014 4.23791 14.0014 4.66743V9.33398C14.0014 9.76247 14.3497 10.1118 14.7789 10.1118H16.3345C16.763 10.1118 17.1124 9.76316 17.1124 9.33398V4.66743C17.1124 4.2386 16.7641 3.88962 16.3345 3.88962H14.7789Z" fill="#996C84"/>
</svg>
