<svg width="32" height="14" viewBox="0 0 32 14" fill="none" xmlns="http://www.w3.org/2000/svg">
<path d="M0 0H31.1106V14H0V0Z" fill="white"/>
<path d="M4.66649 11.6668C4.23731 11.6668 3.88867 11.3185 3.88867 10.8894V3.11156C3.88867 2.68204 4.23731 2.33374 4.66649 2.33374C5.09601 2.33374 5.4443 2.68204 5.4443 3.11156V10.8894C5.4443 11.3185 5.09601 11.6668 4.66649 11.6668Z" fill="#996C84"/>
<path d="M26.4453 3.88913H21.7788C21.3496 3.88913 21.001 3.54049 21.001 3.11131C21.001 2.68179 21.3496 2.3335 21.7788 2.3335H26.4453C26.8749 2.3335 27.2232 2.68179 27.2232 3.11131C27.2232 3.54049 26.8749 3.88913 26.4453 3.88913Z" fill="#996C84"/>
<path d="M26.4453 7.77731H21.7788C21.3496 7.77731 21.001 7.42902 21.001 6.9995C21.001 6.57032 21.3496 6.22168 21.7788 6.22168H26.4453C26.8749 6.22168 27.2232 6.57032 27.2232 6.9995C27.2232 7.42902 26.8749 7.77731 26.4453 7.77731Z" fill="#996C84"/>
<path d="M21.7788 11.6666C21.3496 11.6666 21.001 11.3183 21.001 10.8891V3.11131C21.001 2.68179 21.3496 2.3335 21.7788 2.3335C22.2083 2.3335 22.5566 2.68179 22.5566 3.11131V10.8891C22.5566 11.3183 22.2083 11.6666 21.7788 11.6666Z" fill="#996C84"/>
<path d="M6.99994 8.55617H4.66649C4.23731 8.55617 3.88867 8.20787 3.88867 7.77835V3.1118C3.88867 2.68228 4.23731 2.33398 4.66649 2.33398H6.99994C8.7156 2.33398 10.1109 3.72923 10.1109 5.44525C10.1109 7.16092 8.7156 8.55617 6.99994 8.55617ZM5.4443 7.00054H6.99994C7.8576 7.00054 8.55522 6.30291 8.55522 5.44525C8.55522 4.58724 7.8576 3.88962 6.99994 3.88962H5.4443V7.00054Z" fill="#996C84"/>
<path d="M14.0005 11.6671H13.2226C12.7931 11.6671 12.4448 11.3188 12.4448 10.8896V3.1118C12.4448 2.68228 12.7931 2.33398 13.2226 2.33398H14.0005C16.5731 2.33398 18.667 4.42686 18.667 7.00054C18.667 9.57421 16.5731 11.6671 14.0005 11.6671ZM14.0005 10.1118H14.008H14.0005ZM14.0005 3.88962V10.1118C15.7161 10.1118 17.1114 8.71621 17.1114 7.00054C17.1114 5.28487 15.7161 3.88962 14.0005 3.88962Z" fill="#996C84"/>
</svg>
