<svg width="32" height="14" viewBox="0 0 32 14" fill="none" xmlns="http://www.w3.org/2000/svg">
<path d="M0 0H31.1111V14H0V0Z" fill="white"/>
<path d="M9.33313 3.88913H4.6665C4.23732 3.88913 3.88867 3.54049 3.88867 3.11131C3.88867 2.68179 4.23732 2.3335 4.6665 2.3335H9.33313C9.76266 2.3335 10.111 2.68179 10.111 3.11131C10.111 3.54049 9.76266 3.88913 9.33313 3.88913Z" fill="#996C84"/>
<path d="M7 11.6666C6.57047 11.6666 6.22217 11.3183 6.22217 10.8891V3.11131C6.22217 2.68179 6.57047 2.3335 7 2.3335C7.42918 2.3335 7.77783 2.68179 7.77783 3.11131V10.8891C7.77783 11.3183 7.42918 11.6666 7 11.6666Z" fill="#996C84"/>
<path d="M13.221 11.6666C13.085 11.6666 12.9467 11.6308 12.8221 11.5555C12.4535 11.3345 12.3344 10.8572 12.5553 10.4886L17.222 2.71074C17.4429 2.34214 17.9213 2.22306 18.2893 2.44401C18.6579 2.66497 18.7769 3.14233 18.556 3.51127L13.8894 11.2887C13.7431 11.5321 13.4856 11.6666 13.221 11.6666Z" fill="#996C84"/>
<path d="M17.8893 11.6667C17.625 11.6667 17.3676 11.5322 17.222 11.2895L12.5553 3.51207C12.3344 3.14347 12.4535 2.66576 12.8221 2.44481C13.19 2.22317 13.6684 2.34294 13.8894 2.71154L18.556 10.4894C18.7769 10.858 18.6579 11.3357 18.2893 11.5566C18.164 11.631 18.0256 11.6667 17.8893 11.6667Z" fill="#996C84"/>
<path d="M26.4445 3.88913H21.7778C21.3486 3.88913 21 3.54049 21 3.11131C21 2.68179 21.3486 2.3335 21.7778 2.3335H26.4445C26.874 2.3335 27.2223 2.68179 27.2223 3.11131C27.2223 3.54049 26.874 3.88913 26.4445 3.88913Z" fill="#996C84"/>
<path d="M24.1113 11.6666C23.6818 11.6666 23.3335 11.3183 23.3335 10.8891V3.11131C23.3335 2.68179 23.6818 2.3335 24.1113 2.3335C24.5405 2.3335 24.8892 2.68179 24.8892 3.11131V10.8891C24.8892 11.3183 24.5405 11.6666 24.1113 11.6666Z" fill="#996C84"/>
</svg>
