<svg width="15" height="15" viewBox="0 0 15 15" fill="none" xmlns="http://www.w3.org/2000/svg">
<path fill-rule="evenodd" clip-rule="evenodd" d="M9.33535 10.6948C9.01813 11.9184 5.80061 12.009 6.0272 10.3776C6.16315 9.28998 6.38974 8.24768 6.571 7.16007C6.66164 6.48031 6.20847 6.7069 5.84593 6.57094C5.57403 6.43499 5.57403 6.11777 5.89125 6.07245C6.2991 5.98182 7.70393 6.02714 8.20242 6.02714C8.47433 6.02714 8.61028 6.16309 8.61028 6.38968C8.6556 6.61626 8.61028 6.84285 8.56496 7.02412C8.38369 8.06641 8.11179 9.15403 8.02116 10.151C7.97584 10.3776 8.02116 10.7854 8.33838 10.7854C8.6556 10.7401 8.79155 10.6042 9.06345 10.5135C9.24472 10.4229 9.33535 10.5589 9.33535 10.6948Z" fill="#858585"/>
<path fill-rule="evenodd" clip-rule="evenodd" d="M7.74923 3.35345C8.38368 3.35345 8.83685 3.85194 8.83685 4.44107C8.83685 5.07551 8.33836 5.574 7.74923 5.52868C7.16011 5.52868 6.66162 5.03019 6.66162 4.44107C6.66162 3.85194 7.16011 3.35345 7.74923 3.35345Z" fill="#858585"/>
<path d="M7.47734 0C11.6465 0 15 3.35347 15 7.47734C15 11.6465 11.6465 15 7.47734 15C3.35347 15 0 11.6465 0 7.47734C0 3.35347 3.35347 0 7.47734 0ZM7.47734 1.13293C3.98792 1.13293 1.13293 3.98792 1.13293 7.47734C1.13293 11.0121 3.98792 13.8218 7.47734 13.8218C11.0121 13.8218 13.8218 11.0121 13.8218 7.47734C13.8218 3.98792 11.0121 1.13293 7.47734 1.13293Z" fill="#858585"/>
</svg>
