<svg width="27" height="27" viewBox="0 0 27 27" fill="none" xmlns="http://www.w3.org/2000/svg">
<path d="M27 13.5C27 20.9558 20.9558 27 13.5 27C6.04416 27 0 20.9558 0 13.5C0 6.04416 6.04416 0 13.5 0C20.9558 0 27 6.04416 27 13.5Z" fill="#88305F"/>
<path d="M20.9419 11.4102C20.6285 11.1636 20.2185 11.076 19.8316 11.1729L17.7563 11.6867C19.5197 9.34087 19.0476 6.00968 16.7018 4.24626C14.3559 2.48285 11.0248 2.955 9.26134 5.3008C8.71828 6.02323 8.36843 6.87229 8.24491 7.76761C8.1182 8.71641 8.2453 9.68183 8.61331 10.5655L6.44602 11.2877C5.91655 11.4633 5.55903 11.9582 5.55859 12.516V21.6944C5.56118 22.4083 6.13864 22.9867 6.85253 22.9905C6.9934 22.9903 7.13328 22.9674 7.26685 22.9227L11.0734 21.6538L15.9995 23.8529C16.0855 23.892 16.1822 23.9008 16.274 23.8779L16.2742 23.8789L20.4399 22.9014C21.0265 22.7659 21.4418 22.2432 21.4409 21.6411V12.43C21.4413 12.0312 21.257 11.6546 20.9419 11.4102ZM10.6513 20.8802L6.98766 22.1038C6.76246 22.1789 6.519 22.0573 6.44386 21.8321C6.42906 21.7877 6.42159 21.7411 6.42176 21.6944V12.516C6.42254 12.3298 6.54222 12.165 6.71904 12.1066L9.01559 11.3412C9.22155 11.6762 9.46479 11.9868 9.74066 12.267L10.6513 13.1837V20.8802V20.8802ZM15.744 22.7937L11.5145 20.9113V14.0472L13.188 15.7142C13.3585 15.8827 13.6328 15.8827 13.8033 15.7142L15.744 13.7749V22.7937ZM13.4998 14.7984L10.3581 11.6568C10.0557 11.3492 9.79806 11.0006 9.59271 10.6213C9.14628 9.78303 8.97399 8.82591 9.10014 7.88466C9.43708 5.4487 11.685 3.74713 14.1209 4.08407C16.3232 4.38869 17.9633 6.27105 17.9635 8.49427C17.9614 9.68239 17.4855 10.8206 16.6414 11.6568L13.4998 14.7984ZM20.5778 21.6411C20.5774 21.8421 20.4385 22.0163 20.2426 22.0613L16.6072 22.9143V12.9117L16.6749 12.844L20.038 12.011C20.2713 11.9532 20.5073 12.0955 20.565 12.3287C20.5732 12.3619 20.5775 12.3959 20.5778 12.43V21.6411H20.5778Z" fill="url(#paint0_linear)"/>
<path d="M13.4962 5.33594C11.8587 5.33594 10.5312 6.66341 10.5312 8.30093C10.533 9.93772 11.8595 11.2642 13.4962 11.2659C15.1338 11.2659 16.4612 9.93845 16.4612 8.30093C16.4612 6.66341 15.1338 5.33594 13.4962 5.33594ZM13.4962 10.4031C12.3355 10.4031 11.3944 9.46207 11.3944 8.30128C11.3956 7.14096 12.3359 6.20066 13.4962 6.19945C14.657 6.19945 15.5981 7.14048 15.5981 8.30128C15.5981 9.46207 14.657 10.4031 13.4962 10.4031Z" fill="url(#paint1_linear)"/>
<defs>
<linearGradient id="paint0_linear" x1="13.4998" y1="3.17969" x2="13.4998" y2="23.8904" gradientUnits="userSpaceOnUse">
<stop stop-color="#FFEF5A"/>
<stop offset="1" stop-color="#FBCE2F"/>
</linearGradient>
<linearGradient id="paint1_linear" x1="13.4962" y1="5.33594" x2="13.4962" y2="11.2659" gradientUnits="userSpaceOnUse">
<stop stop-color="#FFEF5A"/>
<stop offset="1" stop-color="#FBCE2F"/>
</linearGradient>
</defs>
</svg>
