<svg width="18" height="18" viewBox="0 0 18 18" fill="none" xmlns="http://www.w3.org/2000/svg">
<path d="M14.2632 1.46932C14.5637 1.16882 14.9713 1 15.3963 1C15.8212 1 16.2288 1.16882 16.5293 1.46932C16.8298 1.76981 16.9986 2.17738 16.9986 2.60234C16.9986 3.02731 16.8298 3.43488 16.5293 3.73537L9.35344 10.9112L6.33203 11.6666L7.08738 8.64517L14.2632 1.46932Z" fill="#88305F" stroke="#88305F" stroke-linecap="round" stroke-linejoin="round"/>
<path d="M8.11105 2.77783H2.58023C2.16113 2.77783 1.75919 2.94432 1.46284 3.24067C1.16649 3.53702 1 3.93896 1 4.35807V15.4197C1 15.8388 1.16649 16.2407 1.46284 16.5371C1.75919 16.8334 2.16113 16.9999 2.58023 16.9999H13.6419C14.061 16.9999 14.4629 16.8334 14.7593 16.5371C15.0556 16.2407 15.2221 15.8388 15.2221 15.4197V9.88888" stroke="#88305F" stroke-linecap="round" stroke-linejoin="round"/>
</svg>
