<svg width="11" height="11" viewBox="0 0 11 11" fill="none" xmlns="http://www.w3.org/2000/svg">
<path d="M5.48497 6C5.60561 5.99989 5.72128 5.95164 5.80653 5.86585L10.0899 1.56098V3.78659C10.0899 3.90787 10.1379 4.02419 10.2232 4.10996C10.3085 4.19572 10.4243 4.2439 10.545 4.2439C10.6656 4.2439 10.7814 4.19572 10.8667 4.10996C10.9521 4.02419 11 3.90787 11 3.78659V0.457317C11 0.336029 10.9521 0.219709 10.8667 0.133945C10.7814 0.0481814 10.6656 0 10.545 0H7.23231C7.11162 0 6.99588 0.0481814 6.91055 0.133945C6.82521 0.219709 6.77727 0.336029 6.77727 0.457317C6.77727 0.578605 6.82521 0.694925 6.91055 0.780689C6.99588 0.866453 7.11162 0.914634 7.23231 0.914634H9.44681L5.13308 5.21951C5.06952 5.28347 5.02625 5.36492 5.00872 5.45358C4.9912 5.54223 5.00021 5.63412 5.03462 5.71764C5.06902 5.80115 5.12728 5.87254 5.20204 5.9228C5.2768 5.97306 5.3647 5.99992 5.45464 6H5.48497Z" fill="#868686"/>
<path d="M10.5717 5.95387C10.4596 5.95387 10.3521 5.99842 10.2729 6.07772C10.1936 6.15702 10.1491 6.26458 10.1491 6.37673V9.87237C10.1491 9.94564 10.12 10.0159 10.0682 10.0677C10.0164 10.1195 9.94618 10.1486 9.87295 10.1486H1.12705C1.05382 10.1486 0.983582 10.1195 0.931798 10.0677C0.880014 10.0159 0.850922 9.94564 0.850922 9.87237V1.12199C0.850922 1.04872 0.880014 0.978448 0.931798 0.926637C0.983582 0.874827 1.05382 0.84572 1.12705 0.84572H2.78099H4.43494C4.54703 0.84572 4.65453 0.801169 4.73379 0.721867C4.81305 0.642566 4.85758 0.53501 4.85758 0.42286C4.85758 0.310711 4.81305 0.203154 4.73379 0.123853C4.65453 0.0445511 4.54703 0 4.43494 0H1.12705C0.828137 0 0.541468 0.118803 0.330105 0.330274C0.118742 0.541745 0 0.828562 0 1.12763V9.87237C0 10.1714 0.118742 10.4583 0.330105 10.6697C0.541468 10.8812 0.828137 11 1.12705 11H9.87295C10.1719 11 10.4585 10.8812 10.6699 10.6697C10.8813 10.4583 11 10.1714 11 9.87237V6.37673C11 6.32072 10.9889 6.26527 10.9673 6.21359C10.9457 6.16192 10.9141 6.11505 10.8742 6.07571C10.8344 6.03637 10.7871 6.00534 10.7352 5.98442C10.6833 5.96351 10.6277 5.95312 10.5717 5.95387Z" fill="#868686"/>
</svg>
