<svg width="178" height="183" viewBox="0 0 178 183" fill="none" xmlns="http://www.w3.org/2000/svg">
<path d="M89 182.377H165.724C172.504 182.377 178 176.881 178 170.102V140.554C178.001 137.824 177.09 135.172 175.413 133.019L138.717 85.84C136.392 82.8513 132.818 81.1027 129.032 81.1016H48.9684C45.1818 81.1027 41.6077 82.8513 39.2828 85.84L2.58714 133.019C0.909749 135.172 -0.000761914 137.824 4.78387e-07 140.554V170.102C4.78387e-07 176.881 5.49609 182.377 12.2759 182.377H89Z" fill="url(#paint0_linear)"/>
<g filter="url(#filter0_i)">
<path d="M165.724 142.478L128.896 93.375H49.1029L12.2753 142.478H51.4475C53.7729 142.479 55.8985 143.793 56.9379 145.873L62.7505 157.498C63.79 159.578 65.9156 160.892 68.2409 160.892H109.758C112.083 160.892 114.209 159.578 115.248 157.498L121.061 145.873C122.1 143.793 124.226 142.479 126.551 142.478H165.724Z" fill="#996C84"/>
</g>
<path d="M85.667 57.3341C100.395 57.3341 112.334 45.3948 112.334 30.667C112.334 15.9392 100.395 4 85.667 4C70.9392 4 59 15.9392 59 30.667C59 45.3948 70.9392 57.3341 85.667 57.3341Z" stroke="url(#paint1_linear)" stroke-width="8" stroke-linecap="round" stroke-linejoin="round"/>
<path d="M119 64.0002L104.5 49.5" stroke="#FBCE2F" stroke-width="8" stroke-linecap="round" stroke-linejoin="round"/>
<path d="M73.3013 90.1653L45.1413 44.4107C43.536 41.6907 40.5493 40 37.3333 40C34.1173 40 31.1307 41.6907 29.568 44.3467L1.456 90.0267C0.501332 91.44 0 93.1253 0 94.9067C0 99.92 4.096 104 9.13067 104H65.536C70.5707 104 74.6667 99.92 74.6667 94.9067C74.6667 93.1253 74.1653 91.44 73.3013 90.1653Z" fill="#FBCE2F" fill-opacity="0.9"/>
<path d="M37.3343 95.9987C34.385 95.9987 32.001 93.6094 32.001 90.6654C32.001 87.7214 34.385 85.332 37.3343 85.332C40.2836 85.332 42.6676 87.7214 42.6676 90.6654C42.6676 93.6094 40.2836 95.9987 37.3343 95.9987Z" fill="#88305F"/>
<path d="M42.6676 74.6673C42.6676 77.6113 40.2836 80.0006 37.3343 80.0006C34.385 80.0006 32.001 77.6113 32.001 74.6673V58.6673C32.001 55.7233 34.385 53.334 37.3343 53.334C40.2836 53.334 42.6676 55.7233 42.6676 58.6673V74.6673Z" fill="#88305F"/>
<path d="M37.3333 40C34.1173 40 31.1307 41.6907 29.568 44.3467L1.456 90.0267C0.501332 91.44 0 93.1253 0 94.9067C0 99.92 4.096 104 9.13066 104H37.3333V96C34.384 96 32 93.6107 32 90.6667C32 87.7227 34.384 85.3333 37.3333 85.3333V80C34.384 80 32 77.6107 32 74.6667V58.6667C32 55.7227 34.384 53.3333 37.3333 53.3333V40Z" fill="#FFE852"/>
<path d="M37.3299 85.332C34.3806 85.332 31.9966 87.7214 31.9966 90.6654C31.9966 93.6094 34.3806 95.9987 37.3299 95.9987V85.332Z" fill="#996C84"/>
<path d="M37.3311 53.334C34.3817 53.334 31.9977 55.7233 31.9977 58.6673V74.6673C31.9977 77.6113 34.3817 80.0006 37.3311 80.0006V53.334Z" fill="#996C84"/>
<defs>
<filter id="filter0_i" x="12.2753" y="93.375" width="153.448" height="69.5172" filterUnits="userSpaceOnUse" color-interpolation-filters="sRGB">
<feFlood flood-opacity="0" result="BackgroundImageFix"/>
<feBlend mode="normal" in="SourceGraphic" in2="BackgroundImageFix" result="shape"/>
<feColorMatrix in="SourceAlpha" type="matrix" values="0 0 0 0 0 0 0 0 0 0 0 0 0 0 0 0 0 0 127 0" result="hardAlpha"/>
<feOffset dy="2"/>
<feGaussianBlur stdDeviation="2"/>
<feComposite in2="hardAlpha" operator="arithmetic" k2="-1" k3="1"/>
<feColorMatrix type="matrix" values="0 0 0 0 0 0 0 0 0 0 0 0 0 0 0 0 0 0 0.1 0"/>
<feBlend mode="normal" in2="shape" result="effect1_innerShadow"/>
</filter>
<linearGradient id="paint0_linear" x1="87.2549" y1="50.7188" x2="89.6057" y2="182.367" gradientUnits="userSpaceOnUse">
<stop stop-color="#996C84"/>
<stop offset="1" stop-color="#88305F"/>
</linearGradient>
<linearGradient id="paint1_linear" x1="85.667" y1="4" x2="85.667" y2="57.3341" gradientUnits="userSpaceOnUse">
<stop stop-color="#FFEF5A"/>
<stop offset="1" stop-color="#FBCE2F"/>
</linearGradient>
</defs>
</svg>
