<svg width="37" height="37" viewBox="0 0 37 37" fill="none" xmlns="http://www.w3.org/2000/svg">
<path d="M14.6667 21.6667C14.6667 20.429 14.175 19.242 13.2998 18.3668C12.4247 17.4917 11.2377 17 10 17C8.76232 17 7.57534 17.4917 6.70017 18.3668C5.825 19.242 5.33333 20.429 5.33333 21.6667C5.33333 27.1111 3 28.6667 3 28.6667H17C17 28.6667 14.6667 27.1111 14.6667 21.6667Z" stroke="#88305F" stroke-width="2" stroke-linecap="round" stroke-linejoin="round"/>
<path d="M11.3457 31.7778C11.2089 32.0135 11.0126 32.2092 10.7765 32.3452C10.5403 32.4812 10.2726 32.5528 10.0001 32.5528C9.72758 32.5528 9.45984 32.4812 9.2237 32.3452C8.98755 32.2092 8.79128 32.0135 8.65454 31.7778" stroke="#88305F" stroke-width="2" stroke-linecap="round" stroke-linejoin="round"/>
<g filter="url(#filter0_d)">
<circle cx="16.5" cy="17.5" r="3.5" fill="#FBDB64"/>
</g>
<defs>
<filter id="filter0_d" x="0" y="0" width="37" height="37" filterUnits="userSpaceOnUse" color-interpolation-filters="sRGB">
<feFlood flood-opacity="0" result="BackgroundImageFix"/>
<feColorMatrix in="SourceAlpha" type="matrix" values="0 0 0 0 0 0 0 0 0 0 0 0 0 0 0 0 0 0 127 0"/>
<feOffset dx="2" dy="1"/>
<feGaussianBlur stdDeviation="7.5"/>
<feColorMatrix type="matrix" values="0 0 0 0 1 0 0 0 0 0.789472 0 0 0 0 0.0430557 0 0 0 0.5 0"/>
<feBlend mode="normal" in2="BackgroundImageFix" result="effect1_dropShadow"/>
<feBlend mode="normal" in="SourceGraphic" in2="effect1_dropShadow" result="shape"/>
</filter>
</defs>
</svg>
