<svg width="16" height="18" viewBox="0 0 16 18" fill="none" xmlns="http://www.w3.org/2000/svg">
<path d="M12.6667 5.66667C12.6667 4.42899 12.175 3.242 11.2998 2.36684C10.4247 1.49167 9.23768 1 8 1C6.76232 1 5.57534 1.49167 4.70017 2.36684C3.825 3.242 3.33333 4.42899 3.33333 5.66667C3.33333 11.1111 1 12.6667 1 12.6667H15C15 12.6667 12.6667 11.1111 12.6667 5.66667Z" stroke="#88305F" stroke-width="2" stroke-linecap="round" stroke-linejoin="round"/>
<path d="M9.34565 15.7778C9.20891 16.0135 9.01264 16.2092 8.77649 16.3452C8.54035 16.4812 8.27261 16.5528 8.0001 16.5528C7.72758 16.5528 7.45984 16.4812 7.2237 16.3452C6.98755 16.2092 6.79128 16.0135 6.65454 15.7778" stroke="#88305F" stroke-width="2" stroke-linecap="round" stroke-linejoin="round"/>
</svg>
