<svg width="16" height="16" viewBox="0 0 16 16" fill="none" xmlns="http://www.w3.org/2000/svg">
<path d="M8 12C8.79112 12 9.56448 11.7654 10.2223 11.3259C10.8801 10.8864 11.3928 10.2616 11.6955 9.53073C11.9983 8.79983 12.0775 7.99556 11.9231 7.21964C11.7688 6.44372 11.3878 5.73098 10.8284 5.17157C10.269 4.61216 9.55628 4.2312 8.78036 4.07686C8.00444 3.92252 7.20017 4.00173 6.46927 4.30448C5.73836 4.60723 5.11365 5.11992 4.67412 5.77772C4.2346 6.43552 4 7.20888 4 8C4 9.06087 4.42143 10.0783 5.17157 10.8284C5.92172 11.5786 6.93913 12 8 12ZM8 5.6C8.47467 5.6 8.93869 5.74076 9.33337 6.00447C9.72805 6.26819 10.0357 6.64302 10.2173 7.08156C10.399 7.5201 10.4465 8.00266 10.3539 8.46822C10.2613 8.93377 10.0327 9.36141 9.69705 9.69706C9.36141 10.0327 8.93377 10.2613 8.46822 10.3539C8.00266 10.4465 7.5201 10.399 7.08156 10.2173C6.64302 10.0357 6.26819 9.72805 6.00447 9.33337C5.74076 8.93869 5.6 8.47468 5.6 8C5.6 7.36348 5.85286 6.75303 6.30294 6.30295C6.75303 5.85286 7.36348 5.6 8 5.6Z" fill="#88305F"/>
<path d="M2.47609 4.77511C2.68987 4.40482 2.563 3.93133 2.19271 3.71754C1.82242 3.50375 1.34893 3.63062 1.13514 4.00092C0.921356 4.37121 1.04823 4.8447 1.41852 5.05848C1.78881 5.27227 2.2623 5.1454 2.47609 4.77511Z" fill="#88305F"/>
<path d="M5.44466 2.47606C5.81496 2.26227 5.94183 1.78879 5.72804 1.41849C5.51425 1.0482 5.04076 0.921333 4.67047 1.13512C4.30018 1.34891 4.17331 1.8224 4.3871 2.19269C4.60088 2.56298 5.07437 2.68985 5.44466 2.47606Z" fill="#88305F"/>
<path d="M8 0H7.2258V1.54839H8C9.27601 1.54839 10.5234 1.92677 11.5843 2.63568C12.6453 3.34459 13.4722 4.3522 13.9605 5.53107C14.4488 6.70995 14.5766 8.00715 14.3276 9.25865C14.0787 10.5101 13.4643 11.6597 12.562 12.562C11.6597 13.4643 10.5101 14.0787 9.25865 14.3276C8.00715 14.5766 6.70995 14.4488 5.53107 13.9605C4.3522 13.4722 3.34459 12.6453 2.63568 11.5843C1.92677 10.5234 1.54839 9.27601 1.54839 8V7.2258H0V8C0 9.58225 0.469192 11.129 1.34824 12.4446C2.22729 13.7602 3.47672 14.7855 4.93853 15.391C6.40034 15.9965 8.00887 16.155 9.56072 15.8463C11.1126 15.5376 12.538 14.7757 13.6569 13.6569C14.7757 12.538 15.5376 11.1126 15.8463 9.56072C16.155 8.00887 15.9965 6.40034 15.391 4.93853C14.7855 3.47672 13.7602 2.22729 12.4446 1.34824C11.129 0.469192 9.58225 0 8 0Z" fill="#88305F"/>
</svg>
