<svg width="16" height="16" viewBox="0 0 16 16" fill="none" xmlns="http://www.w3.org/2000/svg">
<path fill-rule="evenodd" clip-rule="evenodd" d="M3.33333 0.666748H10.2761L14 4.39061V14.0001C14 14.7365 13.403 15.3334 12.6667 15.3334H3.33333C2.59695 15.3334 2 14.7365 2 14.0001V2.00008C2 1.2637 2.59695 0.666748 3.33333 0.666748ZM8.66667 2.00008H3.33333V14.0001H12.6667V6.00008H10C9.26362 6.00008 8.66667 5.40313 8.66667 4.66675V2.00008ZM10 2.27622V4.66675H12.3905L10 2.27622ZM5.33333 11.3334V10.0001H9.33333V11.3334H5.33333ZM5.33333 7.33342V8.66675H10.6667V7.33342H5.33333Z" fill="#818181"/>
<path fill-rule="evenodd" clip-rule="evenodd" d="M2.66667 0.666748H1.33333C0.596954 0.666748 0 1.2637 0 2.00008V14.0001C0 14.7365 0.596954 15.3334 1.33333 15.3334H2.66667V14.0001H1.33333V2.00008H2.66667V0.666748Z" fill="#818181"/>
</svg>
