<svg width="138" height="15" viewBox="0 0 138 15" fill="none" xmlns="http://www.w3.org/2000/svg">
<path fill-rule="evenodd" clip-rule="evenodd" d="M3.27051 11.001C3.73926 11.2744 4.24219 11.4575 4.7793 11.5503L4.47168 12.8833C4.56934 12.8491 4.69385 12.8247 4.84521 12.8101C5.03076 12.7808 5.20166 12.7832 5.35791 12.8174C5.51904 12.8564 5.67529 12.9102 5.82666 12.9785C5.98291 13.0518 6.13916 13.1348 6.29541 13.2275C6.45166 13.3203 6.61523 13.4082 6.78613 13.4912C6.96191 13.5742 7.14746 13.6426 7.34277 13.6963C7.54297 13.7549 7.76514 13.7842 8.00928 13.7842C8.24365 13.7842 8.49023 13.75 8.74902 13.6816C9.00781 13.6133 9.25928 13.5083 9.50342 13.3667C9.75244 13.23 9.97949 13.0566 10.1846 12.8467C10.3896 12.6416 10.5532 12.4023 10.6753 12.1289L9.68652 11.6235C9.5498 11.9116 9.35449 12.124 9.10059 12.2607C8.85156 12.4023 8.58789 12.4731 8.30957 12.4731C8.06543 12.4731 7.85303 12.439 7.67236 12.3706C7.4917 12.3071 7.3208 12.229 7.15967 12.1362C6.99854 12.0435 6.83496 11.9458 6.66895 11.8433C6.50781 11.7456 6.32471 11.665 6.11963 11.6016C6.6665 11.5576 7.18896 11.4502 7.68701 11.2793C8.18506 11.1084 8.64648 10.8813 9.07129 10.5981C9.50098 10.3101 9.88672 9.9707 10.2285 9.58008C10.5752 9.18945 10.8706 8.75488 11.1147 8.27637C11.3589 7.79297 11.5469 7.27295 11.6787 6.71631C11.8105 6.15967 11.8765 5.56885 11.8765 4.94385C11.8765 4.17725 11.7495 3.49365 11.4956 2.89307C11.2466 2.2876 10.9072 1.77734 10.4775 1.3623C10.0527 0.947266 9.55713 0.632324 8.99072 0.41748C8.4292 0.197754 7.83594 0.0878906 7.21094 0.0878906C6.63477 0.0878906 6.08057 0.161133 5.54834 0.307617C5.01611 0.449219 4.51562 0.654297 4.04688 0.922852C3.58301 1.19141 3.1582 1.51855 2.77246 1.9043C2.3916 2.29004 2.06445 2.72461 1.79102 3.20801C1.51758 3.69141 1.30518 4.21875 1.15381 4.79004C1.00244 5.35645 0.926758 5.95947 0.926758 6.59912C0.926758 7.27783 1.02686 7.90039 1.22705 8.4668C1.42725 9.02832 1.70068 9.52393 2.04736 9.95361C2.39893 10.3784 2.80664 10.7275 3.27051 11.001ZM6.96924 9.96094C6.5835 10.0781 6.18066 10.1367 5.76074 10.1367C5.29688 10.1367 4.86963 10.0439 4.479 9.8584C4.08838 9.67285 3.75146 9.4165 3.46826 9.08936C3.18506 8.76221 2.96289 8.37646 2.80176 7.93213C2.64551 7.48291 2.56738 6.99707 2.56738 6.47461C2.56738 5.7666 2.68701 5.11475 2.92627 4.51904C3.16553 3.91846 3.49023 3.40088 3.90039 2.96631C4.31055 2.52686 4.78662 2.18506 5.32861 1.94092C5.87061 1.69678 6.44434 1.57471 7.0498 1.57471C7.51367 1.57471 7.94092 1.65771 8.33154 1.82373C8.72217 1.98486 9.05908 2.21924 9.34229 2.52686C9.62549 2.82959 9.84521 3.1958 10.0015 3.62549C10.1626 4.05518 10.2432 4.53613 10.2432 5.06836C10.2432 5.54688 10.1895 6.00342 10.082 6.43799C9.97949 6.87256 9.83301 7.27783 9.64258 7.65381C9.45215 8.02979 9.22021 8.37158 8.94678 8.6792C8.67822 8.98193 8.37793 9.24316 8.0459 9.46289C7.71387 9.67773 7.35498 9.84375 6.96924 9.96094ZM20.4385 3.80859H17.9775L17.6772 5.06836H18.6733L17.7065 9.21387C17.5845 9.4043 17.4331 9.58496 17.2524 9.75586C17.0767 9.92676 16.8789 10.061 16.6592 10.1587C16.4443 10.2515 16.1953 10.2979 15.9121 10.2979C15.2725 10.2979 14.8525 10.0854 14.6523 9.66064C14.457 9.23584 14.4668 8.56934 14.6816 7.66113L15.5825 3.80859H13.0923L12.792 5.06836H13.8174L13.1216 8.09326C13.0288 8.49365 12.98 8.84521 12.9751 9.14795C12.9702 9.45068 12.9971 9.7168 13.0557 9.94629C13.1143 10.1758 13.1948 10.3735 13.2974 10.5396C13.4048 10.7007 13.5195 10.8423 13.6416 10.9644C13.8418 11.1499 14.0884 11.2915 14.3813 11.3892C14.6792 11.4819 14.9941 11.5283 15.3262 11.5283C15.4824 11.5283 15.6509 11.5112 15.8315 11.4771C16.0171 11.4429 16.2026 11.3916 16.3882 11.3232C16.5786 11.25 16.7642 11.1572 16.9448 11.0449C17.1255 10.9277 17.2939 10.7886 17.4502 10.6274L17.2744 11.3965H19.8232L20.1089 10.1367H18.9736L20.4385 3.80859ZM25.5508 3.80859H22.7163L22.416 5.06836H23.7783L22.3135 11.3965H25.0161L25.3018 10.1367H24.0859L25.5508 3.80859ZM24.1885 0.761719C24.1396 0.878906 24.1152 1.00342 24.1152 1.13525C24.1152 1.26709 24.1396 1.39404 24.1885 1.51611C24.2422 1.6333 24.313 1.73828 24.4009 1.83105C24.4888 1.91895 24.5913 1.98975 24.7085 2.04346C24.8257 2.09717 24.9526 2.12402 25.0894 2.12402C25.2212 2.12402 25.3457 2.09717 25.4629 2.04346C25.5801 1.98975 25.6802 1.91895 25.7632 1.83105C25.8511 1.73828 25.9194 1.6333 25.9683 1.51611C26.022 1.39404 26.0488 1.26709 26.0488 1.13525C26.0488 1.00342 26.022 0.878906 25.9683 0.761719C25.9194 0.644531 25.8511 0.544434 25.7632 0.461426C25.6802 0.373535 25.5801 0.305176 25.4629 0.256348C25.3457 0.202637 25.2212 0.175781 25.0894 0.175781C24.9526 0.175781 24.8257 0.202637 24.7085 0.256348C24.5913 0.305176 24.4888 0.373535 24.4009 0.461426C24.313 0.544434 24.2422 0.644531 24.1885 0.761719ZM32.9995 5.52979C33.1313 5.67627 33.2363 5.84717 33.3145 6.04248H34.8452L35.0503 4.78271H34.1348C33.9785 4.57764 33.8027 4.39941 33.6074 4.24805C33.4121 4.09668 33.2021 3.97217 32.9775 3.87451C32.7529 3.77197 32.5186 3.69873 32.2744 3.65479C32.0303 3.60596 31.7861 3.58154 31.542 3.58154C31.0195 3.58154 30.502 3.69385 29.9893 3.91846C29.4814 4.13818 29.0249 4.44824 28.6196 4.84863C28.2144 5.24902 27.8872 5.72754 27.6382 6.28418C27.3892 6.83594 27.2646 7.44385 27.2646 8.10791C27.2646 8.59619 27.3501 9.05273 27.521 9.47754C27.6968 9.89746 27.936 10.2637 28.2388 10.5762C28.5464 10.8887 28.9102 11.1353 29.3301 11.3159C29.7549 11.4917 30.2163 11.5796 30.7144 11.5796C30.9878 11.5796 31.2637 11.5527 31.542 11.499C31.8252 11.4502 32.0986 11.3672 32.3623 11.25C32.626 11.1328 32.8774 10.9814 33.1167 10.7959C33.356 10.6055 33.5708 10.376 33.7612 10.1074L32.6992 9.30908C32.5576 9.48975 32.4136 9.64111 32.2671 9.76318C32.1206 9.88525 31.9692 9.98535 31.813 10.0635C31.6616 10.1367 31.5005 10.1904 31.3296 10.2246C31.1587 10.2539 30.9756 10.2686 30.7803 10.2686C30.5117 10.2686 30.2578 10.2222 30.0186 10.1294C29.7793 10.0317 29.5693 9.8877 29.3887 9.69727C29.208 9.50684 29.064 9.27246 28.9565 8.99414C28.8491 8.71094 28.7954 8.38623 28.7954 8.02002C28.7954 7.51709 28.8809 7.07031 29.0518 6.67969C29.2227 6.28906 29.4375 5.95947 29.6963 5.69092C29.96 5.42236 30.2432 5.21973 30.5459 5.08301C30.8535 4.94141 31.1416 4.87061 31.4102 4.87061C31.6201 4.87061 31.8228 4.89502 32.0181 4.94385C32.2134 4.99268 32.394 5.06592 32.5601 5.16357C32.7261 5.26123 32.8726 5.3833 32.9995 5.52979ZM39.7671 0H36.9326L36.6323 1.25977H37.9873L35.6582 11.3965H37.1377L37.9287 7.96143H38.8223L41.1001 11.3965H42.7041L42.9897 10.1514H42.0742L40.2432 7.47803L43.0923 5.06836H43.876L44.1763 3.80859H41.7153L41.4443 4.95117L38.9541 7.06055H38.1338L39.7671 0ZM54.1152 0.292969H50.5117L50.2188 1.56006H51.2661L49.2886 10.1367H48.2339L47.9482 11.3965H51.5518L51.8374 10.1367H50.8193L52.7822 1.56006H53.8149L54.1152 0.292969ZM58.1143 3.80859H55.2505L54.9502 5.06836H56.4004L54.9355 11.3965H56.4224L57.6895 5.88867C57.9971 5.5957 58.3218 5.36865 58.6636 5.20752C59.0054 5.0415 59.3667 4.9585 59.7476 4.9585C60.2847 4.9585 60.6655 5.10498 60.8901 5.39795C61.1147 5.69092 61.1587 6.12549 61.022 6.70166L59.9307 11.3965H62.4941L62.7798 10.1367H61.7031L62.5381 6.51855C62.6455 6.04492 62.6675 5.62988 62.604 5.27344C62.5405 4.91699 62.4087 4.61914 62.2085 4.37988C62.0083 4.14062 61.7495 3.9624 61.4321 3.84521C61.1196 3.72803 60.7681 3.66943 60.3774 3.66943C59.9185 3.66943 59.4814 3.75 59.0664 3.91113C58.6562 4.07227 58.2778 4.29688 57.9312 4.58496L58.1143 3.80859ZM66.5225 3.80859H65.2554L64.9551 5.06836H66.2075L65.1528 9.375C65.0601 9.78516 65.0405 10.1318 65.0942 10.415C65.1479 10.6934 65.2578 10.9204 65.4238 11.0962C65.5898 11.2671 65.7998 11.3892 66.0537 11.4624C66.3076 11.5405 66.5884 11.5796 66.896 11.5796C67.189 11.5796 67.4551 11.543 67.6943 11.4697C67.9336 11.4014 68.1826 11.3062 68.4414 11.1841L68.3169 10.1367C67.9263 10.2979 67.5918 10.3784 67.3135 10.3784C67.0547 10.3784 66.8643 10.3345 66.7422 10.2466C66.625 10.1538 66.5664 9.99756 66.5664 9.77783C66.5664 9.66553 66.5762 9.56055 66.5957 9.46289C66.6201 9.36035 66.6445 9.26025 66.6689 9.1626L67.6357 5.06836H69.2324L69.5327 3.80859H67.936L68.5146 1.3623L66.9692 1.99219L66.5225 3.80859ZM71.9058 8.03467C71.9106 7.98584 71.9155 7.92725 71.9204 7.85889H77.7505C77.7896 7.65869 77.8213 7.44385 77.8457 7.21436C77.875 6.97998 77.8896 6.73828 77.8896 6.48926C77.8896 6.11816 77.8213 5.75684 77.6846 5.40527C77.5479 5.05371 77.3477 4.74365 77.084 4.4751C76.8203 4.20654 76.498 3.9917 76.1172 3.83057C75.7412 3.66455 75.3115 3.58154 74.8281 3.58154C74.2031 3.58154 73.6221 3.70117 73.085 3.94043C72.5479 4.17969 72.0815 4.50684 71.686 4.92188C71.2954 5.33203 70.9878 5.81543 70.7632 6.37207C70.5435 6.92383 70.4336 7.51465 70.4336 8.14453C70.4336 8.69141 70.519 9.18213 70.6899 9.6167C70.8657 10.0464 71.105 10.4102 71.4077 10.708C71.7153 11.0059 72.0718 11.2329 72.4771 11.3892C72.8872 11.5454 73.3267 11.6235 73.7954 11.6235C74.1226 11.6235 74.4424 11.5894 74.7549 11.521C75.0723 11.4575 75.3701 11.3647 75.6484 11.2427C75.9268 11.1157 76.1807 10.9644 76.4102 10.7886C76.6396 10.6128 76.8374 10.415 77.0034 10.1953L75.9194 9.4043C75.6802 9.70703 75.3823 9.93896 75.0259 10.1001C74.6743 10.2563 74.3032 10.3345 73.9126 10.3345C73.6196 10.3345 73.3486 10.2808 73.0996 10.1733C72.8555 10.061 72.6431 9.90967 72.4624 9.71924C72.2866 9.52393 72.1475 9.29443 72.0449 9.03076C71.9473 8.76709 71.8984 8.48145 71.8984 8.17383C71.8984 8.12988 71.9009 8.0835 71.9058 8.03467ZM73.8027 4.96582C74.0615 4.87305 74.3374 4.82666 74.6304 4.82666C74.9087 4.82666 75.1626 4.86572 75.3921 4.94385C75.6216 5.02197 75.8169 5.13916 75.978 5.29541C76.144 5.44678 76.2686 5.63965 76.3516 5.87402C76.4395 6.10352 76.481 6.36963 76.4761 6.67236H72.1548C72.2573 6.40869 72.3892 6.16455 72.5503 5.93994C72.7114 5.71533 72.897 5.52002 73.1069 5.354C73.3169 5.18799 73.5488 5.05859 73.8027 4.96582ZM83.0532 0H80.1089L79.8086 1.25977H81.2734L78.9443 11.3965H81.6836L81.9692 10.1367H80.7095L83.0532 0ZM87.8433 0H84.8989L84.5986 1.25977H86.0635L83.7344 11.3965H86.4736L86.7593 10.1367H85.4995L87.8433 0ZM92.0547 3.80859H89.2202L88.9199 5.06836H90.2822L88.8174 11.3965H91.52L91.8057 10.1367H90.5898L92.0547 3.80859ZM90.6924 0.761719C90.6436 0.878906 90.6191 1.00342 90.6191 1.13525C90.6191 1.26709 90.6436 1.39404 90.6924 1.51611C90.7461 1.6333 90.8169 1.73828 90.9048 1.83105C90.9927 1.91895 91.0952 1.98975 91.2124 2.04346C91.3296 2.09717 91.4565 2.12402 91.5933 2.12402C91.7251 2.12402 91.8496 2.09717 91.9668 2.04346C92.084 1.98975 92.1841 1.91895 92.2671 1.83105C92.355 1.73828 92.4233 1.6333 92.4722 1.51611C92.5259 1.39404 92.5527 1.26709 92.5527 1.13525C92.5527 1.00342 92.5259 0.878906 92.4722 0.761719C92.4233 0.644531 92.355 0.544434 92.2671 0.461426C92.1841 0.373535 92.084 0.305176 91.9668 0.256348C91.8496 0.202637 91.7251 0.175781 91.5933 0.175781C91.4565 0.175781 91.3296 0.202637 91.2124 0.256348C91.0952 0.305176 90.9927 0.373535 90.9048 0.461426C90.8169 0.544434 90.7461 0.644531 90.6924 0.761719ZM97.8555 11.3892C98.1826 11.2964 98.5 11.1426 98.8076 10.9277C98.6758 11.5137 98.5244 11.9653 98.3535 12.2827C98.1875 12.605 97.9897 12.8589 97.7603 13.0444C97.5356 13.2349 97.2793 13.3667 96.9912 13.4399C96.7031 13.5181 96.3833 13.5571 96.0317 13.5571C95.8022 13.5571 95.5752 13.5352 95.3506 13.4912C95.1309 13.4473 94.9209 13.3862 94.7207 13.3081C94.5205 13.23 94.3374 13.1372 94.1714 13.0298C94.0054 12.9272 93.8638 12.8125 93.7466 12.6855L92.8018 13.7549C92.9873 13.9404 93.2021 14.1016 93.4463 14.2383C93.6904 14.375 93.9492 14.4873 94.2227 14.5752C94.501 14.668 94.7842 14.7363 95.0723 14.7803C95.3604 14.8242 95.6387 14.8462 95.9072 14.8462C96.498 14.8462 97.0254 14.7803 97.4893 14.6484C97.958 14.5166 98.3682 14.3091 98.7197 14.0259C99.0713 13.7427 99.3691 13.3765 99.6133 12.9272C99.8574 12.4829 100.053 11.9434 100.199 11.3086L101.942 3.80859H100.456L100.36 4.2041C100.155 4.02832 99.8916 3.88672 99.5693 3.7793C99.2471 3.66699 98.9028 3.61084 98.5366 3.61084C97.897 3.61084 97.2915 3.72803 96.7202 3.9624C96.1538 4.19678 95.6558 4.52637 95.2261 4.95117C94.8013 5.37598 94.4644 5.88379 94.2153 6.47461C93.9663 7.06543 93.8418 7.71484 93.8418 8.42285C93.8418 8.85742 93.9175 9.26514 94.0688 9.646C94.2251 10.022 94.4351 10.3491 94.6987 10.6274C94.9673 10.9058 95.2822 11.1255 95.6436 11.2866C96.0049 11.4478 96.3931 11.5283 96.8081 11.5283C97.1841 11.5283 97.5332 11.4819 97.8555 11.3892ZM98.2217 10.0635C97.8896 10.2002 97.5332 10.2686 97.1523 10.2686C96.8887 10.2686 96.6445 10.2246 96.4199 10.1367C96.2002 10.0439 96.0122 9.91211 95.856 9.74121C95.6997 9.57031 95.5776 9.36279 95.4897 9.11865C95.4019 8.86963 95.3579 8.58887 95.3579 8.27637C95.3579 7.73926 95.4482 7.26074 95.6289 6.84082C95.8096 6.41602 96.0439 6.05957 96.332 5.77148C96.6201 5.47852 96.9473 5.25635 97.3135 5.10498C97.6797 4.94873 98.0508 4.87061 98.4268 4.87061C98.8613 4.87061 99.2129 4.9292 99.4814 5.04639C99.75 5.16357 99.9478 5.30273 100.075 5.46387L99.1372 9.50684C98.8589 9.74121 98.5537 9.92676 98.2217 10.0635ZM104.542 8.03467C104.547 7.98584 104.552 7.92725 104.557 7.85889H110.387C110.426 7.65869 110.458 7.44385 110.482 7.21436C110.512 6.97998 110.526 6.73828 110.526 6.48926C110.526 6.11816 110.458 5.75684 110.321 5.40527C110.185 5.05371 109.984 4.74365 109.721 4.4751C109.457 4.20654 109.135 3.9917 108.754 3.83057C108.378 3.66455 107.948 3.58154 107.465 3.58154C106.84 3.58154 106.259 3.70117 105.722 3.94043C105.185 4.17969 104.718 4.50684 104.323 4.92188C103.932 5.33203 103.625 5.81543 103.4 6.37207C103.18 6.92383 103.07 7.51465 103.07 8.14453C103.07 8.69141 103.156 9.18213 103.327 9.6167C103.502 10.0464 103.742 10.4102 104.044 10.708C104.352 11.0059 104.708 11.2329 105.114 11.3892C105.524 11.5454 105.963 11.6235 106.432 11.6235C106.759 11.6235 107.079 11.5894 107.392 11.521C107.709 11.4575 108.007 11.3647 108.285 11.2427C108.563 11.1157 108.817 10.9644 109.047 10.7886C109.276 10.6128 109.474 10.415 109.64 10.1953L108.556 9.4043C108.317 9.70703 108.019 9.93896 107.663 10.1001C107.311 10.2563 106.94 10.3345 106.549 10.3345C106.256 10.3345 105.985 10.2808 105.736 10.1733C105.492 10.061 105.28 9.90967 105.099 9.71924C104.923 9.52393 104.784 9.29443 104.682 9.03076C104.584 8.76709 104.535 8.48145 104.535 8.17383C104.535 8.12988 104.538 8.0835 104.542 8.03467ZM106.439 4.96582C106.698 4.87305 106.974 4.82666 107.267 4.82666C107.545 4.82666 107.799 4.86572 108.029 4.94385C108.258 5.02197 108.454 5.13916 108.615 5.29541C108.781 5.44678 108.905 5.63965 108.988 5.87402C109.076 6.10352 109.118 6.36963 109.113 6.67236H104.792C104.894 6.40869 105.026 6.16455 105.187 5.93994C105.348 5.71533 105.534 5.52002 105.744 5.354C105.954 5.18799 106.186 5.05859 106.439 4.96582ZM115.053 3.80859H112.189L111.889 5.06836H113.339L111.874 11.3965H113.361L114.628 5.88867C114.936 5.5957 115.26 5.36865 115.602 5.20752C115.944 5.0415 116.305 4.9585 116.686 4.9585C117.223 4.9585 117.604 5.10498 117.829 5.39795C118.053 5.69092 118.097 6.12549 117.96 6.70166L116.869 11.3965H119.433L119.718 10.1367H118.642L119.477 6.51855C119.584 6.04492 119.606 5.62988 119.542 5.27344C119.479 4.91699 119.347 4.61914 119.147 4.37988C118.947 4.14062 118.688 3.9624 118.371 3.84521C118.058 3.72803 117.707 3.66943 117.316 3.66943C116.857 3.66943 116.42 3.75 116.005 3.91113C115.595 4.07227 115.216 4.29688 114.87 4.58496L115.053 3.80859ZM127.262 5.52979C127.394 5.67627 127.499 5.84717 127.577 6.04248H129.108L129.313 4.78271H128.397C128.241 4.57764 128.065 4.39941 127.87 4.24805C127.675 4.09668 127.465 3.97217 127.24 3.87451C127.016 3.77197 126.781 3.69873 126.537 3.65479C126.293 3.60596 126.049 3.58154 125.805 3.58154C125.282 3.58154 124.765 3.69385 124.252 3.91846C123.744 4.13818 123.288 4.44824 122.882 4.84863C122.477 5.24902 122.15 5.72754 121.901 6.28418C121.652 6.83594 121.527 7.44385 121.527 8.10791C121.527 8.59619 121.613 9.05273 121.784 9.47754C121.959 9.89746 122.199 10.2637 122.501 10.5762C122.809 10.8887 123.173 11.1353 123.593 11.3159C124.018 11.4917 124.479 11.5796 124.977 11.5796C125.25 11.5796 125.526 11.5527 125.805 11.499C126.088 11.4502 126.361 11.3672 126.625 11.25C126.889 11.1328 127.14 10.9814 127.379 10.7959C127.619 10.6055 127.833 10.376 128.024 10.1074L126.962 9.30908C126.82 9.48975 126.676 9.64111 126.53 9.76318C126.383 9.88525 126.232 9.98535 126.076 10.0635C125.924 10.1367 125.763 10.1904 125.592 10.2246C125.421 10.2539 125.238 10.2686 125.043 10.2686C124.774 10.2686 124.521 10.2222 124.281 10.1294C124.042 10.0317 123.832 9.8877 123.651 9.69727C123.471 9.50684 123.327 9.27246 123.219 8.99414C123.112 8.71094 123.058 8.38623 123.058 8.02002C123.058 7.51709 123.144 7.07031 123.314 6.67969C123.485 6.28906 123.7 5.95947 123.959 5.69092C124.223 5.42236 124.506 5.21973 124.809 5.08301C125.116 4.94141 125.404 4.87061 125.673 4.87061C125.883 4.87061 126.085 4.89502 126.281 4.94385C126.476 4.99268 126.657 5.06592 126.823 5.16357C126.989 5.26123 127.135 5.3833 127.262 5.52979ZM131.466 8.03467C131.471 7.98584 131.476 7.92725 131.481 7.85889H137.311C137.35 7.65869 137.382 7.44385 137.406 7.21436C137.436 6.97998 137.45 6.73828 137.45 6.48926C137.45 6.11816 137.382 5.75684 137.245 5.40527C137.108 5.05371 136.908 4.74365 136.645 4.4751C136.381 4.20654 136.059 3.9917 135.678 3.83057C135.302 3.66455 134.872 3.58154 134.389 3.58154C133.764 3.58154 133.183 3.70117 132.646 3.94043C132.108 4.17969 131.642 4.50684 131.247 4.92188C130.856 5.33203 130.548 5.81543 130.324 6.37207C130.104 6.92383 129.994 7.51465 129.994 8.14453C129.994 8.69141 130.08 9.18213 130.25 9.6167C130.426 10.0464 130.666 10.4102 130.968 10.708C131.276 11.0059 131.632 11.2329 132.038 11.3892C132.448 11.5454 132.887 11.6235 133.356 11.6235C133.683 11.6235 134.003 11.5894 134.315 11.521C134.633 11.4575 134.931 11.3647 135.209 11.2427C135.487 11.1157 135.741 10.9644 135.971 10.7886C136.2 10.6128 136.398 10.415 136.564 10.1953L135.48 9.4043C135.241 9.70703 134.943 9.93896 134.586 10.1001C134.235 10.2563 133.864 10.3345 133.473 10.3345C133.18 10.3345 132.909 10.2808 132.66 10.1733C132.416 10.061 132.204 9.90967 132.023 9.71924C131.847 9.52393 131.708 9.29443 131.605 9.03076C131.508 8.76709 131.459 8.48145 131.459 8.17383C131.459 8.12988 131.461 8.0835 131.466 8.03467ZM133.363 4.96582C133.622 4.87305 133.898 4.82666 134.191 4.82666C134.469 4.82666 134.723 4.86572 134.953 4.94385C135.182 5.02197 135.377 5.13916 135.539 5.29541C135.705 5.44678 135.829 5.63965 135.912 5.87402C136 6.10352 136.042 6.36963 136.037 6.67236H131.715C131.818 6.40869 131.95 6.16455 132.111 5.93994C132.272 5.71533 132.458 5.52002 132.667 5.354C132.877 5.18799 133.109 5.05859 133.363 4.96582Z" fill="#996B83" fill-opacity="0.78"/>
</svg>
