<svg width="20" height="21" viewBox="0 0 20 21" fill="none" xmlns="http://www.w3.org/2000/svg">
<path d="M13.9826 6.31867C13.6493 5.07472 12.8355 4.01412 11.7202 3.3702C10.6049 2.72628 9.27947 2.55179 8.03551 2.8851C6.79156 3.21842 5.73096 4.03225 5.08704 5.14755C4.44312 6.26285 4.26863 7.58826 4.60194 8.83222C6.06818 14.3043 4.14193 16.4961 4.14193 16.4961L18.213 12.7258C18.213 12.7258 15.4489 11.7907 13.9826 6.31867Z" stroke="#88305F" stroke-width="1.5" stroke-linecap="round" stroke-linejoin="round"/>
<path d="M13.3674 17.3755C13.2934 17.6492 13.1488 17.8987 12.9481 18.0991C12.7474 18.2994 12.4976 18.4434 12.2237 18.5168C11.9498 18.5902 11.6614 18.5903 11.3875 18.5172C11.1135 18.4441 10.8635 18.3003 10.6626 18.1002" stroke="#88305F" stroke-width="1.5" stroke-linecap="round" stroke-linejoin="round"/>
</svg>
