<svg width="19" height="19" viewBox="0 0 19 19" fill="none" xmlns="http://www.w3.org/2000/svg">
<circle cx="9.5" cy="9.5" r="9" stroke="#D0D0D0"/>
<path d="M7.99212 9.47422L5.32659 6.8087C5.23095 6.71326 5.15518 6.59981 5.10348 6.47493C5.05179 6.35005 5.02536 6.21604 5.0255 6.08074C5.02563 5.94543 5.05236 5.81143 5.10429 5.68634C5.15623 5.56124 5.23234 5.44747 5.32816 5.35165C5.42398 5.25583 5.53756 5.17991 5.66267 5.12798C5.78776 5.07604 5.92194 5.04912 6.05725 5.04899C6.19255 5.04886 6.32637 5.07548 6.45126 5.12717C6.57614 5.17885 6.68959 5.25464 6.78501 5.35028L9.45054 8.0158L12.1641 5.30226C12.3578 5.10901 12.62 5.00028 12.8932 5C13.1664 4.99974 13.4281 5.10802 13.6209 5.30088L13.6991 5.37905C13.892 5.57193 14.0003 5.83362 14 6.1068C13.9997 6.37998 13.891 6.64224 13.6978 6.8359L10.9842 9.54945L13.6497 12.215C13.7454 12.3104 13.8211 12.4238 13.8729 12.5488C13.9245 12.6736 13.9512 12.8075 13.951 12.9428C13.9509 13.0781 13.9239 13.2122 13.872 13.3373C13.8201 13.4624 13.7442 13.576 13.6484 13.6718C13.5525 13.7676 13.4388 13.8438 13.3137 13.8957C13.1885 13.9476 13.0546 13.9744 12.9193 13.9745C12.784 13.9746 12.6499 13.9482 12.5251 13.8965C12.4002 13.8448 12.2868 13.769 12.1913 13.6734L9.52578 11.0079L6.83654 13.6971C6.64294 13.8907 6.38073 13.9996 6.10735 14C5.83398 14.0004 5.57193 13.8922 5.37892 13.6992L5.30075 13.6211C5.10774 13.4281 4.99958 13.166 5 12.8927C5.00042 12.6193 5.10927 12.3571 5.30289 12.1635L7.99212 9.47422Z" fill="#8C8C8C"/>
</svg>
