<svg width="16" height="16" viewBox="0 0 16 16" fill="none" xmlns="http://www.w3.org/2000/svg">
<path fill-rule="evenodd" clip-rule="evenodd" d="M3.33333 0.666504H10.2761L14 4.39036V13.9998C14 14.7362 13.403 15.3332 12.6667 15.3332H3.33333C2.59695 15.3332 2 14.7362 2 13.9998V1.99984C2 1.26346 2.59695 0.666504 3.33333 0.666504ZM8.66667 1.99984H3.33333V13.9998H12.6667V5.99984H10C9.26362 5.99984 8.66667 5.40288 8.66667 4.6665V1.99984ZM10 2.27598V4.6665H12.3905L10 2.27598ZM5.33333 11.3332V9.99984H9.33333V11.3332H5.33333ZM5.33333 7.33317V8.6665H10.6667V7.33317H5.33333Z" fill="#818181"/>
<path fill-rule="evenodd" clip-rule="evenodd" d="M2.66667 0.666504H1.33333C0.596954 0.666504 0 1.26346 0 1.99984V13.9998C0 14.7362 0.596954 15.3332 1.33333 15.3332H2.66667V13.9998H1.33333V1.99984H2.66667V0.666504Z" fill="#818181"/>
</svg>
