<svg width="16" height="16" viewBox="0 0 16 16" fill="none" xmlns="http://www.w3.org/2000/svg">
<path d="M15.7476 14.5371L12.8167 11.5999C13.8139 10.3191 14.3482 8.73771 14.3326 7.11323C14.317 5.48874 13.7524 3.91713 12.7308 2.65576C11.7093 1.39439 10.2912 0.517613 8.70815 0.168133C7.12509 -0.181346 5.47064 0.0174923 4.01481 0.731952C2.55898 1.44641 1.38782 2.6343 0.692597 4.10186C-0.00262852 5.56943 -0.180887 7.22954 0.18696 8.81172C0.554807 10.3939 1.44703 11.8047 2.71792 12.8132C3.9888 13.8216 5.56328 14.3684 7.18428 14.3643C8.79396 14.3704 10.3569 13.8223 11.6115 12.8115L14.5433 15.7498C14.7035 15.9101 14.9206 16.0001 15.1469 16C15.3733 15.9999 15.5903 15.9097 15.7503 15.7492C15.9103 15.5888 16.0001 15.3711 16 15.1443C15.9999 14.9174 15.9099 14.7001 15.7498 14.5398L15.7476 14.5371ZM12.6485 7.1923C12.6485 8.27452 12.3283 9.332 11.7284 10.2318C11.1285 11.1317 10.2757 11.833 9.2781 12.2472C8.28045 12.6613 7.18266 12.7697 6.12355 12.5586C5.06445 12.3475 4.09156 11.8263 3.32799 11.061C2.56442 10.2958 2.04445 9.32124 1.83378 8.25982C1.62311 7.1984 1.73121 6.09773 2.14446 5.09789C2.5577 4.09805 3.25752 3.24347 4.15539 2.64222C5.05325 2.04097 6.10882 1.72039 7.18867 1.72039C7.90537 1.72069 8.61505 1.86229 9.27708 2.13744C9.93912 2.41258 10.5406 2.81601 11.0472 3.32411C11.5538 3.83221 11.9555 4.43526 12.2295 5.09897C12.5035 5.76268 12.6444 6.47403 12.6441 7.1923H12.6485Z" fill="#996C84"/>
</svg>
