<svg width="16" height="16" viewBox="0 0 16 16" fill="none" xmlns="http://www.w3.org/2000/svg">
<path fill-rule="evenodd" clip-rule="evenodd" d="M3.95125 12.0488L5.07422 15.0635L8.00001 13.7258L10.9258 15.0635L12.0488 12.0488L15.0635 10.9258L13.7258 8.00001L15.0635 5.07422L12.0488 3.95125L10.9258 0.936523L8.00001 2.2742L5.07422 0.936523L3.95125 3.95125L0.936523 5.07422L2.2742 8.00001L0.936523 10.9258L3.95125 12.0488ZM10.1767 13.2549L8.00001 12.2597L5.82336 13.2549L4.98792 11.0121L2.74511 10.1767L3.74027 8.00001L2.74511 5.82336L4.98792 4.98792L5.82336 2.74511L8.00001 3.74027L10.1767 2.74511L11.0121 4.98792L13.2549 5.82336L12.2597 8.00001L13.2549 10.1767L11.0121 11.0121L10.1767 13.2549ZM8.00002 11.3334C6.15907 11.3334 4.66669 9.84097 4.66669 8.00002C4.66669 6.15907 6.15907 4.66669 8.00002 4.66669C9.84097 4.66669 11.3334 6.15907 11.3334 8.00002C11.3334 9.84097 9.84097 11.3334 8.00002 11.3334ZM10 8.00002C10 9.10459 9.10459 10 8.00002 10C6.89545 10 6.00002 9.10459 6.00002 8.00002C6.00002 6.89545 6.89545 6.00002 8.00002 6.00002C9.10459 6.00002 10 6.89545 10 8.00002Z" fill="#996C84"/>
</svg>
