<svg width="25" height="24" viewBox="0 0 25 24" fill="none" xmlns="http://www.w3.org/2000/svg">
<g filter="url(#filter0_d)">
<path d="M21 12C21 12.5547 20.8867 13.0747 20.66 13.56C20.439 14.04 20.1358 14.4613 19.7505 14.824C19.3652 15.1867 18.9147 15.4747 18.399 15.688C17.8833 15.896 17.3337 16 16.75 16C16.3873 16 16.0275 15.9573 15.6705 15.872C15.6195 16.3147 15.4892 16.7253 15.2795 17.104C15.0642 17.488 14.7893 17.8213 14.455 18.104C14.1263 18.3867 13.7495 18.6053 13.3245 18.76C12.8938 18.92 12.4433 19 11.973 19C11.4573 19 10.9728 18.9067 10.5195 18.72C10.0718 18.5387 9.678 18.2907 9.338 17.976C9.00367 17.6613 8.74017 17.2907 8.5475 16.864C8.34917 16.4373 8.25 15.984 8.25 15.504V15.248C8.267 15.168 8.28117 15.0853 8.2925 15H4.7055C4.5185 15 4.35133 14.936 4.204 14.808C4.068 14.6693 4 14.512 4 14.336V7.664C4 7.488 4.068 7.33067 4.204 7.192C4.35133 7.064 4.5185 7 4.7055 7H7.213C7.281 6.43467 7.45383 5.90133 7.7315 5.4C8.0035 4.92533 8.35483 4.50933 8.7855 4.152C9.2105 3.78933 9.695 3.50667 10.239 3.304C10.783 3.10133 11.361 3 11.973 3C12.6303 3 13.248 3.11733 13.826 3.352C14.4097 3.592 14.9168 3.91467 15.3475 4.32C15.7782 4.72533 16.121 5.20267 16.376 5.752C16.6253 6.296 16.75 6.88 16.75 7.504V7.752C16.75 7.832 16.7387 7.91467 16.716 8C17.3053 8 17.8578 8.104 18.3735 8.312C18.8948 8.52 19.3453 8.80533 19.725 9.168C20.1273 9.52533 20.439 9.94667 20.66 10.432C20.8867 10.9227 21 11.4453 21 12ZM11.9645 4C11.5055 4 11.0692 4.07733 10.6555 4.232C10.2362 4.38133 9.85933 4.58933 9.525 4.856C9.20767 5.12267 8.9385 5.43733 8.7175 5.8C8.50217 6.17333 8.3605 6.57333 8.2925 7H11.7945C11.9815 7 12.1487 7.06667 12.296 7.2C12.432 7.33333 12.5 7.488 12.5 7.664V10.96L12.653 10.936C12.7493 10.6053 12.891 10.2907 13.078 9.992C13.2593 9.688 13.4832 9.416 13.7495 9.176C14.0045 8.936 14.2963 8.72533 14.625 8.544C14.931 8.368 15.2625 8.23467 15.6195 8.144C15.6648 7.91467 15.6875 7.70133 15.6875 7.504C15.6875 7.01867 15.5883 6.56267 15.39 6.136C15.1973 5.71467 14.931 5.34667 14.591 5.032C14.2567 4.71733 13.8657 4.46667 13.418 4.28C12.9647 4.09333 12.4802 4 11.9645 4ZM8.335 13.6C8.59 13.6 8.845 13.576 9.1 13.528C9.338 13.48 9.55333 13.3973 9.746 13.28C9.93867 13.168 10.0945 13.0187 10.2135 12.832C10.3212 12.64 10.375 12.4053 10.375 12.128C10.375 11.8453 10.3183 11.6107 10.205 11.424C10.0803 11.2373 9.9245 11.08 9.7375 10.952C9.5505 10.8293 9.34933 10.728 9.134 10.648L8.522 10.416C8.34067 10.3467 8.18483 10.2747 8.0545 10.2C7.92983 10.12 7.8675 10.0187 7.8675 9.896C7.8675 9.81067 7.9015 9.73867 7.9695 9.68C8.0375 9.62667 8.11683 9.58667 8.2075 9.56C8.29817 9.52267 8.39167 9.49867 8.488 9.488C8.59 9.48267 8.675 9.48 8.743 9.48C9.02067 9.48 9.27 9.512 9.491 9.576C9.70633 9.64533 9.93017 9.74667 10.1625 9.88V8.696C10.0208 8.65867 9.89617 8.62667 9.7885 8.6C9.67517 8.57333 9.56467 8.552 9.457 8.536C9.34367 8.52 9.22467 8.50667 9.1 8.496C8.98667 8.49067 8.85917 8.488 8.7175 8.488C8.47383 8.488 8.2245 8.512 7.9695 8.56C7.7145 8.61333 7.48217 8.69867 7.2725 8.816C7.07417 8.93867 6.907 9.088 6.771 9.264C6.64067 9.45067 6.5755 9.68 6.5755 9.952C6.5755 10.2187 6.63783 10.4347 6.7625 10.6C6.88717 10.7867 7.043 10.944 7.23 11.072C7.417 11.1947 7.61533 11.304 7.825 11.4L8.437 11.632C8.62967 11.7067 8.78833 11.784 8.913 11.864C9.03767 11.9493 9.1 12.0507 9.1 12.168C9.1 12.2693 9.06883 12.3493 9.0065 12.408C8.94983 12.4667 8.87617 12.5093 8.7855 12.536C8.71183 12.5787 8.62117 12.6 8.5135 12.6H8.25C7.91567 12.6 7.621 12.552 7.366 12.456C7.10533 12.3493 6.84467 12.2107 6.584 12.04V13.288C7.145 13.496 7.72867 13.6 8.335 13.6ZM11.9645 18C12.3215 18 12.6643 17.9333 12.993 17.8C13.316 17.672 13.5993 17.496 13.843 17.272C14.081 17.0427 14.2708 16.776 14.4125 16.472C14.5542 16.168 14.625 15.8453 14.625 15.504C14.625 15.2053 14.5712 14.92 14.4635 14.648C14.3615 14.376 14.217 14.1333 14.03 13.92C13.8373 13.7013 13.6107 13.5173 13.35 13.368C13.095 13.2187 12.8117 13.112 12.5 13.048V14.336C12.5 14.512 12.432 14.6693 12.296 14.808C12.1487 14.936 11.9815 15 11.7945 15H9.3635C9.3295 15.1653 9.3125 15.3333 9.3125 15.504C9.3125 15.8453 9.38333 16.168 9.525 16.472C9.661 16.776 9.848 17.0427 10.086 17.272C10.3297 17.496 10.613 17.672 10.936 17.8C11.259 17.9333 11.6018 18 11.9645 18ZM16.75 15C17.1863 15 17.5972 14.9227 17.9825 14.768C18.3735 14.6133 18.7135 14.3973 19.0025 14.12C19.2915 13.848 19.521 13.5307 19.691 13.168C19.8553 12.8053 19.9375 12.416 19.9375 12C19.9375 11.6 19.8553 11.2133 19.691 10.84C19.521 10.472 19.2915 10.152 19.0025 9.88C18.7135 9.608 18.3735 9.392 17.9825 9.232C17.5972 9.07733 17.1863 9 16.75 9C16.3137 9 15.9028 9.08 15.5175 9.24C15.1322 9.4 14.795 9.616 14.506 9.888C14.217 10.16 13.9875 10.4773 13.8175 10.84C13.6475 11.2133 13.5625 11.6 13.5625 12V12.168L13.5795 12.344C13.8402 12.4613 14.081 12.6053 14.302 12.776C14.5173 12.9467 14.7157 13.136 14.897 13.344C15.067 13.5573 15.2143 13.7867 15.339 14.032C15.458 14.2773 15.5487 14.5307 15.611 14.792C15.985 14.9307 16.3647 15 16.75 15Z" fill="#03DAC5"/>
</g>
<defs>
<filter id="filter0_d" x="0" y="0" width="25" height="24" filterUnits="userSpaceOnUse" color-interpolation-filters="sRGB">
<feFlood flood-opacity="0" result="BackgroundImageFix"/>
<feColorMatrix in="SourceAlpha" type="matrix" values="0 0 0 0 0 0 0 0 0 0 0 0 0 0 0 0 0 0 127 0"/>
<feOffset dy="1"/>
<feGaussianBlur stdDeviation="2"/>
<feColorMatrix type="matrix" values="0 0 0 0 0 0 0 0 0 0 0 0 0 0 0 0 0 0 0.1 0"/>
<feBlend mode="normal" in2="BackgroundImageFix" result="effect1_dropShadow"/>
<feBlend mode="normal" in="SourceGraphic" in2="effect1_dropShadow" result="shape"/>
</filter>
</defs>
</svg>
