<svg width="32" height="37" viewBox="0 0 32 37" fill="none" xmlns="http://www.w3.org/2000/svg">
<path d="M26.7146 8.52769C25.3704 7.31149 23.4074 7.46085 22.2338 8.65571C21.039 9.87191 20.9537 11.9416 22.4473 13.3071C24.837 15.4621 26.0319 18.748 25.4557 22.0553C24.6876 26.5359 20.7829 29.9925 16.0036 30.0138C11.0961 30.0138 7.34086 26.472 6.5728 22.2046C5.95397 18.8974 7.08489 15.5688 9.55988 13.3071C11.0535 11.9416 10.9682 9.87191 9.77332 8.65571C8.5998 7.46085 6.63674 7.31149 5.27119 8.54903C1.51606 11.9628 -0.447061 16.9985 0.086358 22.0978C0.961165 30.2059 7.78893 36.3935 16.0036 36.4148C16.0249 36.4148 16.0249 36.4148 16.0463 36.4148C24.1756 36.4148 30.8327 30.2059 31.8568 22.6312C32.5609 17.3611 30.6405 12.0909 26.7146 8.52769Z" fill="#E7A561"/>
<path d="M31.8561 22.6312C30.832 30.2059 24.175 36.4148 16.0457 36.4148C16.0243 36.4148 16.0243 36.4148 16.0029 36.4148V30.0138C20.7824 29.9925 24.687 26.5359 25.4551 22.0553C26.0313 18.748 24.8364 15.4621 22.4467 13.3071C20.9531 11.9416 21.0384 9.87191 22.2333 8.65571C23.4068 7.46085 25.3698 7.31149 26.7141 8.52769C30.6399 12.0909 32.5603 17.3611 31.8561 22.6312Z" fill="#E28424"/>
<path d="M16.0032 0C14.2322 0 12.8027 1.42949 12.8027 3.20051V16.1448C12.8027 17.9158 14.2322 19.3453 16.0032 19.3453C17.7743 19.3453 19.2038 17.9158 19.2038 16.1448V3.20051C19.2038 1.42949 17.7742 0 16.0032 0Z" fill="#E7A561"/>
<path d="M19.2034 3.20051V16.1448C19.2034 17.9158 17.774 19.3453 16.0029 19.3453V0C17.7739 0 19.2034 1.42949 19.2034 3.20051Z" fill="#E28424"/>
</svg>
