<svg width="12" height="15" viewBox="0 0 12 15" fill="none" xmlns="http://www.w3.org/2000/svg">
<path d="M10.3117 0.479766L10.4256 0.337474C10.5113 0.230437 10.613 0.145543 10.7249 0.0876395C10.8368 0.0297356 10.9568 -4.42894e-05 11.0779 4.94387e-08C11.199 4.43883e-05 11.3189 0.0299121 11.4308 0.087898C11.5427 0.145884 11.6444 0.230852 11.73 0.337952C11.8157 0.445051 11.8836 0.572184 11.9299 0.712093C11.9762 0.852001 12 1.00194 12 1.15336C12 1.30478 11.9761 1.4547 11.9297 1.59458C11.8833 1.73445 11.8153 1.86154 11.7296 1.96857L11.6158 2.10991C11.8105 2.3829 11.9143 2.73866 11.906 3.10426C11.8976 3.46986 11.7777 3.8176 11.5707 4.07621L3.7081 13.9058C3.65895 13.9669 3.59742 14.0101 3.5301 14.0309L0.474276 14.9859C0.410327 15.0058 0.343346 15.0046 0.279844 14.9826C0.216342 14.9606 0.158478 14.9184 0.111879 14.8601C0.0652792 14.8019 0.0315286 14.7296 0.0139076 14.6502C-0.00371334 14.5708 -0.00460518 14.4871 0.0113188 14.4071L0.775275 10.5872C0.791991 10.5034 0.826578 10.4269 0.875354 10.3657L8.24142 1.1578C8.16775 1.09298 8.07813 1.0628 7.98838 1.07259C7.89863 1.08238 7.81454 1.1315 7.75096 1.21128L5.23602 4.35601C5.2005 4.40041 5.15834 4.43562 5.11194 4.45965C5.06554 4.48368 5.0158 4.49604 4.96558 4.49604C4.91535 4.49604 4.86562 4.48368 4.81921 4.45965C4.77281 4.43562 4.73065 4.40041 4.69514 4.35601C4.65962 4.31162 4.63145 4.25891 4.61223 4.20091C4.59301 4.1429 4.58312 4.08074 4.58312 4.01795C4.58312 3.95517 4.59301 3.893 4.61223 3.83499C4.63145 3.77699 4.65962 3.72428 4.69514 3.67989L7.21161 0.536109C7.41862 0.277325 7.69702 0.127399 7.98967 0.117099C8.28232 0.106799 8.56703 0.236907 8.78536 0.48072C8.99527 0.246215 9.26688 0.116504 9.54841 0.116328C9.82993 0.116152 10.1016 0.245523 10.3117 0.479766V0.479766ZM9.81976 1.21128C9.74812 1.12176 9.65098 1.07148 9.5497 1.07148C9.44841 1.07148 9.35127 1.12176 9.27964 1.21128L1.48957 10.9473L0.905912 13.8666L3.24133 13.137L11.0314 3.40104C11.067 3.35668 11.0952 3.30399 11.1144 3.24598C11.1337 3.18797 11.1436 3.12578 11.1436 3.06298C11.1436 3.00017 11.1337 2.93798 11.1144 2.87997C11.0952 2.82196 11.067 2.76927 11.0314 2.72491L9.82052 1.21128H9.81976Z" fill="#88305F"/>
</svg>
