<svg width="50" height="37" viewBox="0 0 50 37" fill="none" xmlns="http://www.w3.org/2000/svg">
<path d="M44.4358 0.000654248L47.2364 4.98216C47.2364 4.98216 46.2558 5.0235 44.4 5.95796C43.1625 6.58255 40.9369 9.08362 40.9369 9.08362L36.7897 3.5037C36.7897 3.5037 39.0391 1.5046 40.2762 0.880709C42.1316 -0.0558237 44.4358 0.000654248 44.4358 0.000654248Z" fill="url(#paint0_linear)"/>
<path d="M33.1559 36.7901C35.4135 36.7901 37.2436 34.9598 37.2436 32.7025C37.2436 30.4451 35.4135 28.6147 33.1559 28.6147C30.8983 28.6147 29.0681 30.4451 29.0681 32.7025C29.0681 34.9598 30.8983 36.7901 33.1559 36.7901Z" fill="url(#paint1_linear)"/>
<path d="M10.4464 36.7901C12.704 36.7901 14.5342 34.9598 14.5342 32.7025C14.5342 30.4451 12.704 28.6147 10.4464 28.6147C8.18881 28.6147 6.35864 30.4451 6.35864 32.7025C6.35864 34.9598 8.18881 36.7901 10.4464 36.7901Z" fill="url(#paint2_linear)"/>
<path d="M10.0402 27.0239C11.0161 27.0239 11.9289 27.2952 12.7174 27.7614V19.5303H4.68562L0 24.2997V31.794H4.73183C5.06299 29.109 7.31466 27.0239 10.0402 27.0239Z" fill="url(#paint3_linear)"/>
<path d="M33.6103 15.8969L31.8604 10.4464C31.8604 10.4464 28.843 12.4124 27.414 12.6968C26.8555 12.8077 26.3437 12.8821 25.889 12.9324L33.6103 15.8969Z" fill="url(#paint4_linear)"/>
<path d="M36.8205 17.2592C36.961 17.1374 37.1023 17.0231 37.2417 16.9287C38.8709 15.8255 40.4639 14.9503 40.5314 14.9131L41.5188 14.3732L42.2377 15.2505L43.7403 17.0836L45.4192 14.7568L39.1051 9.99219L34.5187 16.3516L36.8205 17.2592Z" fill="url(#paint5_linear)"/>
<path d="M19.7765 10.5595L22.2984 11.4884L24.0386 11.5945C24.0594 11.5952 24.1794 11.6021 24.3795 11.6021C24.8558 11.6021 25.842 11.5662 27.095 11.3266C27.8416 11.1847 29.7123 10.1621 30.8023 9.48109L32.3117 8.53835L32.8606 10.1793L34.1656 14.0804L37.2437 10.0919L34.8257 10.1732L35.5302 7.06468L27.7285 5.45056L26.6341 10.2778C26.3559 8.97976 25.6721 7.41794 25.6721 7.41794L18.6218 8.17819C18.6218 8.17819 19.0843 9.28002 19.4509 10.4404L19.7765 10.5595Z" fill="url(#paint6_linear)"/>
<path d="M46.6049 28.9133C46.0065 28.549 45.342 28.3128 44.7491 28.1599L42.6942 33.317C43.7437 33.9726 45.5196 36.3353 45.5196 36.3353L49.5068 31.4922C49.5068 31.4929 47.6537 29.5489 46.6049 28.9133Z" fill="url(#paint7_linear)"/>
<path d="M47.8492 21.912L46.0663 22.5594C46.0567 22.5628 45.1979 22.883 44.0569 23.6529L45.4314 26.227L45.7371 26.7978C47.3499 26.501 49.5074 25.7807 49.5074 25.7807L48.3691 17.7135C48.3691 17.7135 46.9381 18.3883 45.5147 18.8869L46.6454 20.3489L47.8492 21.912Z" fill="url(#paint8_linear)"/>
<path d="M40.3194 18.8761L40.786 19.0545L41.0353 19.4821L42.9277 22.7097C44.3572 21.8372 45.4191 21.4895 45.4191 21.4895L41.0567 16.351C41.0567 16.351 39.6601 17.0933 38.1521 18.0518L40.3194 18.8761Z" fill="url(#paint9_linear)"/>
<path d="M27.7057 30.9854L22.6662 29.0682H14.5342C15.1581 29.834 15.5748 30.7705 15.7046 31.7932H27.5387C27.574 31.517 27.6302 31.2477 27.7057 30.9854Z" fill="url(#paint10_linear)"/>
<path d="M40.0565 19.8401L19.4482 11.8093L14.5342 24.6846L28.3491 30.0676C29.3046 28.419 31.0715 27.3069 33.0949 27.3069C36.1277 27.3069 38.5951 29.799 38.5951 32.8634C38.5951 33.2566 38.5525 33.6402 38.4753 34.012L40.9437 34.9734L44.057 26.8193L40.0565 19.8401Z" fill="url(#paint11_linear)"/>
<path d="M15.9851 13.8558L9.84392 3.87827C9.49409 3.28468 8.84265 2.91626 8.14094 2.91626C7.43992 2.91626 6.78848 3.28468 6.44761 3.86381L0.317456 13.8255C0.109491 14.134 0 14.501 0 14.8901C0 15.983 0.893148 16.8727 1.99082 16.8727H14.2918C15.3894 16.8727 16.2826 15.983 16.2826 14.8901C16.2826 14.501 16.1731 14.134 15.9851 13.8558Z" fill="#FBCE2F" fill-opacity="0.9"/>
<path d="M8.14148 15.1284C7.4983 15.1284 6.97839 14.6071 6.97839 13.9653C6.97839 13.3235 7.4983 12.8022 8.14148 12.8022C8.78466 12.8022 9.30457 13.3235 9.30457 13.9653C9.30457 14.6071 8.78466 15.1284 8.14148 15.1284Z" fill="#88305F"/>
<path d="M9.30457 10.4762C9.30457 11.1186 8.78466 11.6392 8.14148 11.6392C7.4983 11.6392 6.97839 11.1186 6.97839 10.4762V6.98755C6.97839 6.34506 7.4983 5.82446 8.14148 5.82446C8.78466 5.82446 9.30457 6.34506 9.30457 6.98755V10.4762Z" fill="#88305F"/>
<path d="M8.14094 2.91626C7.43992 2.91626 6.78848 3.28468 6.44761 3.86381L0.317456 13.8255C0.109491 14.134 0 14.501 0 14.8901C0 15.983 0.893148 16.8727 1.99082 16.8727H8.14094V15.1284C7.49845 15.1284 6.97854 14.6071 6.97854 13.9653C6.97854 13.3235 7.49845 12.8022 8.14094 12.8022V11.6391C7.49845 11.6391 6.97854 11.1178 6.97854 10.476V6.98674C6.97854 6.34494 7.49845 5.82363 8.14094 5.82363V2.91626Z" fill="#FFE852"/>
<path d="M8.14043 12.8022C7.49794 12.8022 6.97803 13.3235 6.97803 13.9653C6.97803 14.6071 7.49794 15.1284 8.14043 15.1284V12.8022Z" fill="#996C84"/>
<path d="M8.14111 5.82446C7.49794 5.82446 6.97803 6.34506 6.97803 6.98755V10.4762C6.97803 11.1186 7.49794 11.6392 8.14111 11.6392V5.82446Z" fill="#996C84"/>
<path d="M28.2334 24.3341V24.6956H26.5876V24.3685L27.4208 23.4698C27.5196 23.3624 27.5919 23.2633 27.6377 23.1737C27.6836 23.0842 27.7066 22.9961 27.7066 22.9087C27.7066 22.7964 27.6733 22.7117 27.6067 22.6538C27.5425 22.5967 27.4495 22.5677 27.3278 22.5677C27.1121 22.5677 26.8906 22.6532 26.6633 22.8226L26.5153 22.4989C26.6117 22.4121 26.7356 22.3433 26.8871 22.2923C27.0386 22.24 27.1913 22.2131 27.3451 22.2131C27.5907 22.2131 27.7847 22.2744 27.9269 22.3956C28.0716 22.5154 28.1439 22.6772 28.1439 22.8811C28.1439 23.0216 28.1129 23.1531 28.0509 23.2771C27.9913 23.401 27.8902 23.5401 27.7479 23.6937L27.1454 24.3341H28.2334ZM29.444 24.7266C29.1524 24.7266 28.9298 24.6199 28.776 24.4064C28.6245 24.1909 28.5488 23.8776 28.5488 23.4664C28.5488 23.0629 28.6245 22.7537 28.776 22.5402C28.9298 22.3267 29.1524 22.22 29.444 22.22C29.7355 22.22 29.957 22.3267 30.1085 22.5402C30.2623 22.7516 30.3392 23.0602 30.3392 23.4664C30.3392 23.8755 30.2623 24.1874 30.1085 24.403C29.957 24.6192 29.7355 24.7266 29.444 24.7266ZM29.444 24.3788C29.6024 24.3788 29.7171 24.3065 29.7883 24.1619C29.8617 24.0152 29.8985 23.7832 29.8985 23.4664C29.8985 23.1545 29.8617 22.9272 29.7883 22.7847C29.7171 22.6401 29.6024 22.5677 29.444 22.5677C29.2856 22.5677 29.1696 22.6401 29.0962 22.7847C29.025 22.9272 28.9895 23.1545 28.9895 23.4664C28.9895 23.7832 29.025 24.0152 29.0962 24.1619C29.1696 24.3065 29.2856 24.3788 29.444 24.3788ZM34.0751 22.2441V24.6956H33.6825V23.1737L33.0318 24.6956H32.7391L32.0849 23.191V24.6956H31.6924V22.2441H32.0436L32.8872 24.1619L33.7239 22.2441H34.0751ZM36.1189 23.4285C36.2613 23.4698 36.3703 23.5422 36.446 23.6454C36.5241 23.7487 36.5631 23.8762 36.5631 24.0277C36.5631 24.237 36.4885 24.4009 36.3393 24.52C36.1924 24.6371 35.987 24.6956 35.723 24.6956H34.6108V22.2441H35.6885C35.941 22.2441 36.1396 22.302 36.2842 22.4163C36.4288 22.5292 36.5011 22.6848 36.5011 22.8845C36.5011 23.0133 36.4667 23.1255 36.3978 23.2219C36.3313 23.3163 36.2383 23.3851 36.1189 23.4285ZM35.0447 23.2771H35.6162C35.9238 23.2771 36.0776 23.1627 36.0776 22.9327C36.0776 22.8184 36.0397 22.7323 35.964 22.6745C35.8882 22.6173 35.7723 22.5884 35.6162 22.5884H35.0447V23.2771ZM35.6748 24.3513C35.8355 24.3513 35.9525 24.3231 36.0259 24.2652C36.1017 24.2081 36.1396 24.1172 36.1396 23.9932C36.1396 23.8672 36.1017 23.7742 36.0259 23.7143C35.9525 23.6551 35.8355 23.6248 35.6748 23.6248H35.0447V24.3513H35.6748Z" fill="#FEE34A"/>
<path d="M20.0664 20.7305C19.8323 20.7305 19.6303 20.6795 19.4604 20.579C19.2905 20.4777 19.1597 20.3332 19.0679 20.1452C18.9761 19.9565 18.9302 19.7327 18.9302 19.4737C18.9302 19.2141 18.9761 18.9917 19.0679 18.8058C19.1597 18.6199 19.2905 18.4759 19.4604 18.3754C19.6303 18.2742 19.8323 18.2239 20.0664 18.2239C20.234 18.2239 20.3889 18.25 20.5312 18.3031C20.6736 18.3533 20.7964 18.4305 20.8996 18.5338L20.7929 18.7507C20.6758 18.6495 20.5599 18.5772 20.4452 18.5338C20.3304 18.4897 20.2053 18.4683 20.0699 18.4683C19.8013 18.4683 19.5924 18.5551 19.4432 18.73C19.2963 18.9042 19.2228 19.1521 19.2228 19.4737C19.2228 19.7974 19.2963 20.0474 19.4432 20.2244C19.5901 20.3986 19.799 20.486 20.0699 20.486C20.2053 20.486 20.3304 20.464 20.4452 20.4206C20.5599 20.3765 20.6758 20.3042 20.7929 20.2037L20.8996 20.4206C20.7964 20.5239 20.6736 20.6017 20.5312 20.6547C20.3889 20.705 20.234 20.7305 20.0664 20.7305ZM21.9698 20.727C21.8161 20.727 21.6806 20.6912 21.5636 20.6203C21.4488 20.5466 21.3593 20.4433 21.295 20.3104C21.233 20.1748 21.202 20.0164 21.202 19.8353C21.202 19.6535 21.2342 19.4951 21.2984 19.3601C21.3628 19.2245 21.4523 19.1191 21.567 19.0433C21.6841 18.9676 21.8183 18.9297 21.9698 18.9297C22.1282 18.9297 22.2625 18.9683 22.3727 19.0468C22.4829 19.1246 22.5575 19.2362 22.5965 19.3808L22.5552 19.4083V18.9711H22.8306V20.703H22.5552V20.2553L22.5965 20.276C22.5575 20.4206 22.4829 20.5315 22.3727 20.61C22.2625 20.6878 22.1282 20.727 21.9698 20.727ZM22.0249 20.4963C22.1948 20.4963 22.3257 20.4385 22.4175 20.3242C22.5093 20.2071 22.5552 20.0419 22.5552 19.8284C22.5552 19.6149 22.5081 19.4503 22.414 19.336C22.3222 19.221 22.1925 19.1638 22.0249 19.1638C21.8551 19.1638 21.7219 19.2231 21.6255 19.3429C21.5315 19.46 21.4844 19.6239 21.4844 19.8353C21.4844 20.046 21.5315 20.2092 21.6255 20.3242C21.7219 20.4385 21.8551 20.4963 22.0249 20.4963ZM23.3699 21.4466V19.4565C23.3699 19.376 23.3675 19.2954 23.363 19.2155C23.3607 19.1329 23.3538 19.0509 23.3423 18.9711H23.6075L23.6385 19.3291L23.6109 19.3808C23.6499 19.2362 23.7245 19.1246 23.8347 19.0468C23.9449 18.9683 24.078 18.9297 24.2341 18.9297C24.3856 18.9297 24.5187 18.9676 24.6335 19.0433C24.7506 19.1191 24.8412 19.2245 24.9055 19.3601C24.972 19.4951 25.0054 19.6535 25.0054 19.8353C25.0054 20.0164 24.972 20.1748 24.9055 20.3104C24.8412 20.4433 24.7517 20.5466 24.637 20.6203C24.5222 20.6912 24.3879 20.727 24.2341 20.727C24.078 20.727 23.9449 20.6878 23.8347 20.61C23.7245 20.5315 23.6499 20.4206 23.6109 20.276L23.6488 20.2415V21.4466H23.3699ZM24.1825 20.4963C24.35 20.4963 24.4808 20.4385 24.575 20.3242C24.6691 20.2092 24.7162 20.046 24.7162 19.8353C24.7162 19.6239 24.6691 19.46 24.575 19.3429C24.4808 19.2231 24.35 19.1638 24.1825 19.1638C24.0103 19.1638 23.8783 19.221 23.7865 19.336C23.6946 19.4503 23.6488 19.6149 23.6488 19.8284C23.6488 20.0419 23.6946 20.2071 23.7865 20.3242C23.8783 20.4385 24.0103 20.4963 24.1825 20.4963ZM26.0989 20.727C25.9451 20.727 25.8097 20.6912 25.6926 20.6203C25.5779 20.5466 25.4884 20.4433 25.4241 20.3104C25.3621 20.1748 25.3311 20.0164 25.3311 19.8353C25.3311 19.6535 25.3633 19.4951 25.4275 19.3601C25.4918 19.2245 25.5813 19.1191 25.6961 19.0433C25.8131 18.9676 25.9474 18.9297 26.0989 18.9297C26.2573 18.9297 26.3916 18.9683 26.5018 19.0468C26.6119 19.1246 26.6866 19.2362 26.7256 19.3808L26.6842 19.4083V18.9711H26.9597V20.703H26.6842V20.2553L26.7256 20.276C26.6866 20.4206 26.6119 20.5315 26.5018 20.61C26.3916 20.6878 26.2573 20.727 26.0989 20.727ZM26.154 20.4963C26.3239 20.4963 26.4547 20.4385 26.5465 20.3242C26.6384 20.2071 26.6842 20.0419 26.6842 19.8284C26.6842 19.6149 26.6372 19.4503 26.5431 19.336C26.4513 19.221 26.3216 19.1638 26.154 19.1638C25.9842 19.1638 25.851 19.2231 25.7546 19.3429C25.6605 19.46 25.6134 19.6239 25.6134 19.8353C25.6134 20.046 25.6605 20.2092 25.7546 20.3242C25.851 20.4385 25.9842 20.4963 26.154 20.4963ZM28.2255 20.727C28.0556 20.727 27.9087 20.6899 27.7847 20.6169C27.6608 20.5432 27.5644 20.4399 27.4955 20.307C27.4289 20.1734 27.3957 20.0164 27.3957 19.8353C27.3957 19.6562 27.4301 19.4985 27.499 19.3636C27.5678 19.2258 27.6653 19.1191 27.7916 19.0433C27.9179 18.9676 28.0671 18.9297 28.2392 18.9297C28.3563 18.9297 28.4688 18.9504 28.5767 18.9917C28.6868 19.0303 28.7775 19.0853 28.8487 19.157L28.7557 19.3636C28.6707 19.2968 28.587 19.2472 28.5044 19.2155C28.424 19.1811 28.3402 19.1638 28.253 19.1638C28.0785 19.1638 27.9397 19.2224 27.8364 19.3394C27.7354 19.4565 27.6849 19.6218 27.6849 19.8353C27.6849 20.046 27.7354 20.2092 27.8364 20.3242C27.9373 20.4385 28.0762 20.4963 28.253 20.4963C28.3379 20.4963 28.4217 20.4798 28.5044 20.4481C28.587 20.4137 28.6707 20.3628 28.7557 20.2966L28.8487 20.5032C28.7752 20.5721 28.6822 20.6272 28.5698 20.6685C28.4596 20.7071 28.3448 20.727 28.2255 20.727ZM29.2037 20.703V18.9711H29.4826V20.703H29.2037ZM29.1762 18.2377H29.5171V18.5544H29.1762V18.2377ZM29.7797 19.1914V18.9711H30.8918V19.1914H29.7797ZM30.8849 20.455V20.6926C30.8459 20.7036 30.8069 20.7119 30.7679 20.7167C30.7311 20.7236 30.6898 20.727 30.6439 20.727C30.4832 20.727 30.3547 20.6809 30.2583 20.5893C30.1642 20.497 30.1171 20.3593 30.1171 20.1761V18.5269L30.396 18.427V20.1383C30.396 20.2299 30.4086 20.3008 30.4339 20.3518C30.4614 20.402 30.4981 20.4378 30.5441 20.4585C30.5899 20.4764 30.6416 20.486 30.699 20.486C30.7334 20.486 30.7644 20.4833 30.792 20.4791C30.8195 20.4743 30.8505 20.466 30.8849 20.455ZM31.1654 21.4845L31.1069 21.2676C31.2125 21.2421 31.3009 21.2125 31.372 21.1781C31.4455 21.1457 31.5063 21.103 31.5545 21.0507C31.605 20.9977 31.6486 20.9274 31.6853 20.8406L31.7955 20.5859L31.8575 20.4998L32.491 18.9711H32.7699L31.9608 20.8613C31.8988 21.0011 31.8288 21.1127 31.7508 21.1953C31.6727 21.28 31.5843 21.3441 31.4856 21.3881C31.3892 21.4315 31.2825 21.4639 31.1654 21.4845ZM31.799 20.7924L31.0208 18.9711H31.3135L31.9401 20.4998L31.799 20.7924Z" fill="#FEE34A"/>
<defs>
<linearGradient id="paint0_linear" x1="36.7897" y1="4.54214" x2="47.2364" y2="4.54214" gradientUnits="userSpaceOnUse">
<stop stop-color="#FFEF5A"/>
<stop offset="1" stop-color="#FBCE2F"/>
</linearGradient>
<linearGradient id="paint1_linear" x1="29.0681" y1="32.7024" x2="37.2467" y2="32.6866" gradientUnits="userSpaceOnUse">
<stop stop-color="#996C84"/>
<stop offset="1" stop-color="#882F5E"/>
</linearGradient>
<linearGradient id="paint2_linear" x1="6.35864" y1="32.7024" x2="14.5373" y2="32.6866" gradientUnits="userSpaceOnUse">
<stop stop-color="#996C84"/>
<stop offset="1" stop-color="#882F5E"/>
</linearGradient>
<linearGradient id="paint3_linear" x1="6.234" y1="15.8516" x2="6.71617" y2="31.783" gradientUnits="userSpaceOnUse">
<stop stop-color="#996C84"/>
<stop offset="1" stop-color="#88305F"/>
</linearGradient>
<linearGradient id="paint4_linear" x1="25.889" y1="13.172" x2="33.6103" y2="13.172" gradientUnits="userSpaceOnUse">
<stop stop-color="#FFEF5A"/>
<stop offset="1" stop-color="#FBCE2F"/>
</linearGradient>
<linearGradient id="paint5_linear" x1="34.5187" y1="13.6261" x2="45.4192" y2="13.6261" gradientUnits="userSpaceOnUse">
<stop stop-color="#FFEF5A"/>
<stop offset="1" stop-color="#FBCE2F"/>
</linearGradient>
<linearGradient id="paint6_linear" x1="18.6218" y1="9.7655" x2="37.2437" y2="9.7655" gradientUnits="userSpaceOnUse">
<stop stop-color="#FFEF5A"/>
<stop offset="1" stop-color="#FBCE2F"/>
</linearGradient>
<linearGradient id="paint7_linear" x1="42.6942" y1="32.2476" x2="49.5068" y2="32.2476" gradientUnits="userSpaceOnUse">
<stop stop-color="#FFEF5A"/>
<stop offset="1" stop-color="#FBCE2F"/>
</linearGradient>
<linearGradient id="paint8_linear" x1="44.0569" y1="22.2557" x2="49.5074" y2="22.2557" gradientUnits="userSpaceOnUse">
<stop stop-color="#FFEF5A"/>
<stop offset="1" stop-color="#FBCE2F"/>
</linearGradient>
<linearGradient id="paint9_linear" x1="38.1521" y1="19.5303" x2="45.4191" y2="19.5303" gradientUnits="userSpaceOnUse">
<stop stop-color="#FFEF5A"/>
<stop offset="1" stop-color="#FBCE2F"/>
</linearGradient>
<linearGradient id="paint10_linear" x1="20.9908" y1="28.2508" x2="21.0138" y2="31.7938" gradientUnits="userSpaceOnUse">
<stop stop-color="#996C84"/>
<stop offset="1" stop-color="#88305F"/>
</linearGradient>
<linearGradient id="paint11_linear" x1="29.006" y1="4.86039" x2="29.7472" y2="34.9623" gradientUnits="userSpaceOnUse">
<stop stop-color="#996C84"/>
<stop offset="1" stop-color="#88305F"/>
</linearGradient>
</defs>
</svg>
