<svg width="47" height="19" viewBox="0 0 47 19" fill="none" xmlns="http://www.w3.org/2000/svg">
<path d="M4.992 15.16C4.10667 15.16 3.33867 15.0213 2.688 14.744C2.048 14.4667 1.55733 14.104 1.216 13.656C0.874667 13.1973 0.693333 12.7067 0.672 12.184C0.672 12.0987 0.704 12.024 0.768 11.96C0.842667 11.8853 0.928 11.848 1.024 11.848H1.84C2.04267 11.848 2.18133 11.9547 2.256 12.168C2.352 12.616 2.624 13 3.072 13.32C3.53067 13.64 4.17067 13.8 4.992 13.8C5.87733 13.8 6.544 13.6453 6.992 13.336C7.44 13.016 7.664 12.5733 7.664 12.008C7.664 11.6453 7.552 11.352 7.328 11.128C7.11467 10.904 6.79467 10.7067 6.368 10.536C5.94133 10.3653 5.30133 10.152 4.448 9.896C3.616 9.66133 2.95467 9.41067 2.464 9.144C1.97333 8.87733 1.60533 8.54667 1.36 8.152C1.11467 7.75733 0.992 7.26133 0.992 6.664C0.992 6.088 1.14667 5.57067 1.456 5.112C1.776 4.65333 2.22933 4.296 2.816 4.04C3.40267 3.77333 4.10133 3.64 4.912 3.64C5.744 3.64 6.45867 3.78933 7.056 4.088C7.65333 4.376 8.10667 4.744 8.416 5.192C8.72533 5.64 8.89067 6.088 8.912 6.536C8.912 6.62133 8.88 6.696 8.816 6.76C8.76267 6.824 8.68267 6.856 8.576 6.856H7.728C7.504 6.856 7.36533 6.75467 7.312 6.552C7.248 6.104 6.99733 5.736 6.56 5.448C6.12267 5.14933 5.57333 5 4.912 5C4.18667 5 3.616 5.13867 3.2 5.416C2.784 5.69333 2.576 6.104 2.576 6.648C2.576 7.01067 2.672 7.30933 2.864 7.544C3.06667 7.77867 3.37067 7.98667 3.776 8.168C4.18133 8.33867 4.77333 8.536 5.552 8.76C6.45867 9.00533 7.17333 9.26133 7.696 9.528C8.21867 9.784 8.608 10.1093 8.864 10.504C9.12 10.888 9.248 11.3787 9.248 11.976C9.248 12.968 8.864 13.7467 8.096 14.312C7.328 14.8773 6.29333 15.16 4.992 15.16ZM14.3851 15C12.6998 15 11.8571 14.0613 11.8571 12.184V7.96H10.6091C10.5025 7.96 10.4118 7.928 10.3371 7.864C10.2731 7.78933 10.2411 7.69867 10.2411 7.592V7.048C10.2411 6.94133 10.2731 6.856 10.3371 6.792C10.4118 6.71733 10.5025 6.68 10.6091 6.68H11.8571V4.008C11.8571 3.90133 11.8891 3.816 11.9531 3.752C12.0278 3.67733 12.1185 3.64 12.2251 3.64H12.9771C13.0838 3.64 13.1691 3.67733 13.2331 3.752C13.3078 3.816 13.3451 3.90133 13.3451 4.008V6.68H15.3291C15.4358 6.68 15.5211 6.71733 15.5851 6.792C15.6598 6.856 15.6971 6.94133 15.6971 7.048V7.592C15.6971 7.69867 15.6598 7.78933 15.5851 7.864C15.5211 7.928 15.4358 7.96 15.3291 7.96H13.3451V12.072C13.3451 12.6053 13.4358 13.0107 13.6171 13.288C13.7985 13.5547 14.0971 13.688 14.5131 13.688H15.4891C15.5958 13.688 15.6811 13.7253 15.7451 13.8C15.8198 13.864 15.8571 13.9493 15.8571 14.056V14.632C15.8571 14.7387 15.8198 14.8293 15.7451 14.904C15.6811 14.968 15.5958 15 15.4891 15H14.3851ZM18.8431 18.04C18.7578 18.04 18.6831 18.008 18.6191 17.944C18.5551 17.88 18.5231 17.8053 18.5231 17.72C18.5231 17.6453 18.5498 17.5493 18.6031 17.432L19.8351 14.504L16.7791 7.288C16.7258 7.14933 16.6991 7.05867 16.6991 7.016C16.6991 6.92 16.7311 6.84 16.7951 6.776C16.8591 6.712 16.9391 6.68 17.0351 6.68H17.8191C17.9898 6.68 18.1178 6.77067 18.2031 6.952L20.6351 12.776L23.1311 6.952C23.2165 6.77067 23.3498 6.68 23.5311 6.68H24.2831C24.3791 6.68 24.4591 6.712 24.5231 6.776C24.5871 6.84 24.6191 6.91467 24.6191 7C24.6191 7.032 24.5925 7.128 24.5391 7.288L19.9951 17.768C19.9098 17.9493 19.7765 18.04 19.5951 18.04H18.8431ZM26.5993 15C26.4926 15 26.4019 14.968 26.3273 14.904C26.2633 14.8293 26.2313 14.7387 26.2313 14.632V4.008C26.2313 3.90133 26.2633 3.816 26.3273 3.752C26.4019 3.67733 26.4926 3.64 26.5993 3.64H27.3513C27.4579 3.64 27.5433 3.67733 27.6073 3.752C27.6819 3.816 27.7193 3.90133 27.7193 4.008V14.632C27.7193 14.7387 27.6819 14.8293 27.6073 14.904C27.5433 14.968 27.4579 15 27.3513 15H26.5993ZM33.2099 15.16C32.1965 15.16 31.4125 14.8347 30.8579 14.184C30.3032 13.5227 30.0259 12.648 30.0259 11.56V7.048C30.0259 6.94133 30.0579 6.856 30.1219 6.792C30.1965 6.71733 30.2872 6.68 30.3939 6.68H31.1939C31.3005 6.68 31.3859 6.71733 31.4499 6.792C31.5245 6.856 31.5619 6.94133 31.5619 7.048V11.48C31.5619 13.0693 32.2552 13.864 33.6419 13.864C34.3139 13.864 34.8472 13.656 35.2419 13.24C35.6365 12.8133 35.8339 12.2267 35.8339 11.48V7.048C35.8339 6.94133 35.8659 6.856 35.9299 6.792C36.0045 6.71733 36.0952 6.68 36.2019 6.68H37.0019C37.1085 6.68 37.1939 6.71733 37.2579 6.792C37.3219 6.856 37.3539 6.94133 37.3539 7.048V14.632C37.3539 14.7387 37.3219 14.8293 37.2579 14.904C37.1939 14.968 37.1085 15 37.0019 15H36.2499C36.1432 15 36.0525 14.968 35.9779 14.904C35.9139 14.8293 35.8819 14.7387 35.8819 14.632V13.928C35.5832 14.3333 35.2205 14.6427 34.7939 14.856C34.3672 15.0587 33.8392 15.16 33.2099 15.16ZM42.6109 15.16C41.8642 15.16 41.2349 15.0427 40.7229 14.808C40.2215 14.5627 39.8429 14.2853 39.5869 13.976C39.3415 13.6667 39.2189 13.4107 39.2189 13.208C39.2189 13.1013 39.2562 13.0213 39.3309 12.968C39.4162 12.904 39.5015 12.872 39.5869 12.872H40.3069C40.4135 12.872 40.5095 12.9253 40.5949 13.032C40.8509 13.3307 41.1282 13.5653 41.4269 13.736C41.7255 13.9067 42.1255 13.992 42.6269 13.992C43.1815 13.992 43.6295 13.8853 43.9709 13.672C44.3229 13.448 44.4989 13.144 44.4989 12.76C44.4989 12.504 44.4242 12.296 44.2749 12.136C44.1362 11.9653 43.8909 11.8213 43.5389 11.704C43.1975 11.576 42.6855 11.4373 42.0029 11.288C41.0749 11.0853 40.4135 10.792 40.0189 10.408C39.6349 10.024 39.4429 9.528 39.4429 8.92C39.4429 8.51467 39.5602 8.13067 39.7949 7.768C40.0402 7.39467 40.3922 7.096 40.8509 6.872C41.3202 6.63733 41.8802 6.52 42.5309 6.52C43.2135 6.52 43.7949 6.632 44.2749 6.856C44.7549 7.08 45.1122 7.34667 45.3469 7.656C45.5922 7.95467 45.7149 8.20533 45.7149 8.408C45.7149 8.504 45.6775 8.584 45.6029 8.648C45.5389 8.712 45.4589 8.744 45.3629 8.744H44.6909C44.5629 8.744 44.4562 8.69067 44.3709 8.584C44.2002 8.38133 44.0509 8.22667 43.9229 8.12C43.8055 8.00267 43.6295 7.90133 43.3949 7.816C43.1709 7.73067 42.8829 7.688 42.5309 7.688C42.0189 7.688 41.6242 7.8 41.3469 8.024C41.0695 8.23733 40.9309 8.52 40.9309 8.872C40.9309 9.096 40.9895 9.288 41.1069 9.448C41.2242 9.59733 41.4482 9.736 41.7789 9.864C42.1202 9.992 42.6109 10.1253 43.2509 10.264C44.2642 10.4773 44.9789 10.7867 45.3949 11.192C45.8215 11.5867 46.0349 12.0933 46.0349 12.712C46.0349 13.1707 45.9015 13.5867 45.6349 13.96C45.3682 14.3333 44.9735 14.6267 44.4509 14.84C43.9389 15.0533 43.3255 15.16 42.6109 15.16Z" fill="#996C84"/>
</svg>
