<svg width="16" height="16" viewBox="0 0 16 16" fill="none" xmlns="http://www.w3.org/2000/svg">
<path fill-rule="evenodd" clip-rule="evenodd" d="M15.3334 12.0001C15.3334 12.7365 14.7365 13.3334 14.0001 13.3334H2.00008C1.2637 13.3334 0.666748 12.7365 0.666748 12.0001V9.92547L0.999597 9.73292C1.61417 9.37742 2.00008 8.72272 2.00008 8.00008C2.00008 7.27744 1.61417 6.62275 0.999597 6.26724L0.666748 6.07469V4.00008C0.666748 3.2637 1.2637 2.66675 2.00008 2.66675H14.0001C14.7365 2.66675 15.3334 3.2637 15.3334 4.00008V6.07469L15.0006 6.26724C14.386 6.62275 14.0001 7.27744 14.0001 8.00008C14.0001 8.72272 14.386 9.37742 15.0006 9.73292L15.3334 9.92547V12.0001ZM12.6667 8.00008C12.6667 6.93308 13.1727 5.95367 14.0001 5.33306V4.00008L10.0001 4.00008C10.0001 4.36827 9.7016 4.66675 9.33341 4.66675C8.96523 4.66675 8.66675 4.36827 8.66675 4.00008L2.00008 4.00008V5.33306C2.82742 5.95367 3.33341 6.93308 3.33341 8.00008C3.33341 9.06709 2.82742 10.0465 2.00008 10.6671V12.0001L8.66675 12.0001C8.66675 11.6319 8.96523 11.3334 9.33341 11.3334C9.7016 11.3334 10.0001 11.6319 10.0001 12.0001L14.0001 12.0001V10.6671C13.1727 10.0465 12.6667 9.06709 12.6667 8.00008ZM9.33341 10.6667C9.7016 10.6667 10.0001 10.3683 10.0001 10.0001C10.0001 9.63189 9.7016 9.33341 9.33341 9.33341C8.96523 9.33341 8.66675 9.63189 8.66675 10.0001C8.66675 10.3683 8.96523 10.6667 9.33341 10.6667ZM10.0001 8.00008C10.0001 8.36827 9.7016 8.66675 9.33341 8.66675C8.96523 8.66675 8.66675 8.36827 8.66675 8.00008C8.66675 7.63189 8.96523 7.33342 9.33341 7.33342C9.7016 7.33342 10.0001 7.63189 10.0001 8.00008ZM9.33341 6.66675C9.7016 6.66675 10.0001 6.36827 10.0001 6.00008C10.0001 5.63189 9.7016 5.33341 9.33341 5.33341C8.96523 5.33341 8.66675 5.63189 8.66675 6.00008C8.66675 6.36827 8.96523 6.66675 9.33341 6.66675Z" fill="#818181"/>
</svg>
