<svg width="16" height="16" viewBox="0 0 16 16" fill="none" xmlns="http://www.w3.org/2000/svg">
<path d="M5.51836 12.3339C5.4385 12.1289 5.35799 11.9222 5.27813 11.7172C5.0871 11.2269 4.89671 10.7382 4.70568 10.2478C4.47377 9.65251 4.24249 9.05883 4.01057 8.46352C3.81251 7.95513 3.61446 7.44673 3.4164 6.93834C3.3212 6.69398 3.22387 6.45141 3.13145 6.20691C3.12492 6.18773 3.1184 6.16855 3.11351 6.14873C3.12392 6.19001 3.13434 6.23129 3.14475 6.27257C3.13831 6.24391 3.13529 6.21675 3.1349 6.18667C3.1337 6.22965 3.13364 6.27313 3.13244 6.31611C3.13355 6.28261 3.13859 6.24947 3.1464 6.21619C3.13459 6.25859 3.12227 6.30213 3.10932 6.34403C3.11941 6.31175 3.13241 6.28211 3.14934 6.25283C3.12613 6.29023 3.10243 6.32877 3.08036 6.36667C3.09842 6.33789 3.11891 6.31289 3.14445 6.28875C3.11363 6.31873 3.08167 6.34821 3.05085 6.3782C3.07275 6.35925 3.09528 6.34195 3.12074 6.32729C3.08331 6.34757 3.04588 6.36785 3.00844 6.38814C3.08331 6.34757 3.16784 6.32213 3.24654 6.2914C3.42688 6.22099 3.60559 6.15122 3.78593 6.08081C4.38272 5.84782 4.97786 5.61546 5.57464 5.38247C6.29439 5.10147 7.01577 4.81983 7.73552 4.53882C8.36181 4.29431 8.98974 4.04915 9.61603 3.80463C9.92098 3.68558 10.2273 3.57258 10.5292 3.4481C10.533 3.44568 10.5374 3.4449 10.5424 3.44298C10.4158 3.44045 10.288 3.43741 10.1614 3.43488C10.2981 3.49487 10.436 3.55537 10.5727 3.61536C10.9008 3.75934 11.23 3.90383 11.5576 4.04895C11.9506 4.22143 12.3436 4.39391 12.7362 4.56753C13.0734 4.71551 13.4094 4.863 13.7461 5.01212C13.8999 5.07961 14.0542 5.14596 14.2075 5.2146C14.2394 5.2286 14.2714 5.24537 14.3013 5.26393C14.264 5.24073 14.2255 5.21704 14.1876 5.19498C14.2451 5.23109 14.2962 5.27255 14.3427 5.32149C14.3127 5.29067 14.2833 5.25871 14.2533 5.22789C14.2975 5.27583 14.3352 5.32911 14.3671 5.38659C14.3468 5.34915 14.3266 5.31171 14.3063 5.27427C14.3346 5.32747 14.3552 5.38273 14.3708 5.43991C14.3604 5.39863 14.35 5.35735 14.3396 5.31607C14.355 5.37995 14.3633 5.44475 14.3632 5.50997C14.3644 5.46699 14.3645 5.42351 14.3657 5.38053C14.3646 5.44803 14.355 5.51317 14.3371 5.57873C14.3489 5.53633 14.3612 5.49279 14.3742 5.45089C14.327 5.61101 14.2444 5.76512 14.1774 5.91788C14.0363 6.23938 13.8957 6.55973 13.7546 6.88122C13.5825 7.27339 13.4099 7.6667 13.2389 8.05937C13.0884 8.40253 12.9373 8.74682 12.7878 9.09047C12.7143 9.25805 12.6373 9.42414 12.5672 9.59322C12.5662 9.5955 12.5652 9.59779 12.5642 9.60007C12.6556 9.5124 12.7476 9.42359 12.839 9.33593C12.5882 9.43386 12.339 9.53116 12.0881 9.62909C11.4881 9.86337 10.888 10.0976 10.288 10.3319C9.56822 10.6129 8.84683 10.8946 8.12709 11.1756C7.50407 11.4188 6.87942 11.6627 6.2564 11.9059C5.95801 12.0224 5.6619 12.1399 5.36287 12.2548C5.3432 12.2624 5.32288 12.2685 5.30257 12.2745C5.34384 12.2641 5.3851 12.2536 5.42637 12.2432C5.39772 12.2497 5.37057 12.2527 5.3405 12.2531C5.38346 12.2543 5.42692 12.2543 5.46988 12.2555C5.43639 12.2544 5.40327 12.2494 5.37001 12.2416C5.41239 12.2534 5.4559 12.2657 5.49777 12.2786C5.46551 12.2685 5.43589 12.2555 5.40664 12.2386C5.44401 12.2618 5.48252 12.2855 5.52039 12.3076C5.49163 12.2895 5.46665 12.269 5.44254 12.2435C5.47249 12.2743 5.50194 12.3063 5.53189 12.3371C5.51297 12.3152 5.49569 12.2927 5.48105 12.2672C5.5013 12.3046 5.52155 12.3421 5.5418 12.3795C5.53277 12.366 5.52475 12.3503 5.51836 12.3339C5.46894 12.2143 5.37411 12.1115 5.2545 12.059C5.14286 12.01 4.98756 12.0017 4.87357 12.0509C4.63097 12.1579 4.48339 12.4385 4.59039 12.6962C4.77515 13.1389 5.26451 13.355 5.71529 13.1885C5.73988 13.1789 5.76447 13.1693 5.78742 13.1603C5.9317 13.104 6.07598 13.0476 6.22026 12.9913C6.78261 12.7718 7.34332 12.5529 7.90567 12.3333C8.64017 12.0465 9.37303 11.7604 10.1075 11.4737C10.7683 11.2157 11.4306 10.9571 12.0913 10.6991C12.4471 10.5602 12.8029 10.4213 13.1587 10.2824C13.2947 10.2293 13.4079 10.1417 13.4729 10.0029C13.49 9.96696 13.5049 9.92998 13.5209 9.8935C13.6175 9.67347 13.714 9.45344 13.8106 9.23341C14.1173 8.53457 14.4228 7.83523 14.7295 7.13639C14.8531 6.8548 14.9767 6.57321 15.1003 6.29162C15.1543 6.16849 15.2134 6.04623 15.2617 5.92061C15.415 5.51879 15.3689 5.07575 15.1235 4.7247C14.9903 4.53299 14.7993 4.38934 14.5868 4.29471C14.4227 4.22272 14.2575 4.15022 14.0935 4.07823C13.4213 3.78327 12.7486 3.48666 12.0765 3.1917C11.582 2.97472 11.0881 2.75661 10.5926 2.53913C10.4581 2.48014 10.3132 2.46683 10.172 2.51909C10.1414 2.53011 10.113 2.54214 10.0819 2.5543C9.92776 2.61447 9.77365 2.67464 9.62117 2.73416C9.04734 2.9582 8.47515 3.18159 7.90132 3.40562C7.16518 3.69303 6.42904 3.98043 5.6929 4.26783C5.04038 4.52259 4.38621 4.77799 3.73369 5.03275C3.39595 5.16461 3.05821 5.29647 2.71883 5.42896C2.56144 5.49041 2.41468 5.58644 2.31524 5.72635C2.13571 5.98066 2.09424 6.28877 2.20618 6.57854C2.25232 6.6994 2.3001 6.81962 2.34674 6.93934C2.57291 7.51989 2.79908 8.10044 3.02524 8.681C3.30955 9.41079 3.59386 10.1406 3.87817 10.8704C4.08517 11.4017 4.29153 11.9314 4.49853 12.4628C4.52856 12.5399 4.55923 12.6186 4.58925 12.6957C4.68381 12.9384 4.98817 13.0869 5.23404 12.9786C5.48155 12.8697 5.6193 12.593 5.51836 12.3339Z" fill="#6D6E71"/>
<path d="M11.089 6.01476C11.0714 6.02066 11.0555 6.02592 11.0374 6.03018C11.0786 6.01974 11.1199 6.0093 11.1612 5.99886C11.1325 6.00532 11.1042 6.00786 11.0741 6.00826C11.1171 6.00944 11.1606 6.00948 11.2035 6.01066C11.1689 6.00906 11.1358 6.00404 11.1019 5.9946C11.1443 6.0064 11.1878 6.0187 11.2296 6.03163C11.2024 6.02242 11.1774 6.01142 11.1522 5.99764C11.1895 6.02084 11.2281 6.04453 11.2659 6.06659C11.236 6.04803 11.2099 6.02706 11.1853 6.00266C11.2152 6.03347 11.2447 6.06543 11.2746 6.09625C11.2546 6.07385 11.2373 6.05131 11.2227 6.02585C11.2429 6.06329 11.2632 6.10073 11.2834 6.13817C11.2662 6.10615 11.2534 6.07335 11.2445 6.03813C11.2549 6.07941 11.2653 6.12069 11.2757 6.16197C11.2693 6.13331 11.2667 6.10501 11.2663 6.07493C11.2651 6.11791 11.2651 6.16139 11.2639 6.20437C11.2655 6.16973 11.2705 6.13659 11.28 6.10267C11.2682 6.14507 11.2559 6.18861 11.2429 6.23052C11.2521 6.20329 11.2631 6.17821 11.2769 6.15299C11.2537 6.19039 11.23 6.22894 11.2079 6.26684C11.2265 6.23692 11.2475 6.21077 11.2719 6.18613C11.2411 6.21612 11.2091 6.2456 11.1783 6.27558C11.2007 6.2555 11.2232 6.2382 11.2487 6.22353C11.2112 6.24382 11.1738 6.2641 11.1364 6.28438C11.1684 6.26716 11.2012 6.25436 11.2364 6.24534C11.1951 6.25578 11.1539 6.26622 11.1126 6.27666C11.1412 6.2702 11.1695 6.26766 11.1996 6.26726C11.1566 6.26608 11.1132 6.26604 11.0702 6.26486C11.1048 6.26646 11.138 6.27148 11.1719 6.28092C11.1295 6.26912 11.086 6.25682 11.0441 6.24389C11.0713 6.2531 11.0964 6.2641 11.1216 6.27788C11.0842 6.25468 11.0457 6.23099 11.0078 6.20893C11.0377 6.22749 11.0638 6.24846 11.0885 6.27286C11.0585 6.24205 11.0291 6.21009 10.9991 6.17927C11.0192 6.20167 11.0364 6.22421 11.0511 6.24967C11.0308 6.21223 11.0106 6.17479 10.9903 6.13735C11.0075 6.16937 11.0203 6.20217 11.0293 6.23739C11.0189 6.19611 11.0085 6.15483 10.9981 6.11355C11.0045 6.14221 11.007 6.17051 11.0074 6.20059C11.0086 6.15761 11.0087 6.11413 11.0099 6.07115C11.0083 6.10579 11.0032 6.13893 10.9938 6.17285C11.0056 6.13045 11.0179 6.08691 11.0309 6.04501C11.0216 6.07223 11.0106 6.09731 10.9968 6.12253C11.02 6.08513 11.0437 6.04658 11.0658 6.00868C11.0472 6.0386 11.0263 6.06475 11.0019 6.08939C11.0327 6.0594 11.0646 6.02992 11.0955 5.99994C11.0731 6.02002 11.0505 6.03732 11.0251 6.05199C11.0625 6.0317 11.0999 6.01142 11.1374 5.99114C11.1211 6.00032 11.1054 6.00836 11.089 6.01476C10.9694 6.06427 10.8666 6.15919 10.8141 6.2789C10.7651 6.39062 10.7566 6.546 10.8058 6.66002C10.9115 6.90218 11.1941 7.05068 11.4506 6.94299C11.5969 6.8821 11.7402 6.78457 11.8299 6.65129C11.9503 6.47298 12.0042 6.29133 11.9974 6.07763C11.9925 5.92181 11.926 5.75125 11.8329 5.62608C11.7368 5.49826 11.5973 5.38267 11.4444 5.33186C11.2466 5.26547 11.058 5.25882 10.8577 5.32187C10.7069 5.3685 10.5617 5.47337 10.4642 5.59645C10.2267 5.89605 10.2202 6.30105 10.421 6.62034C10.5088 6.76084 10.6649 6.88507 10.8209 6.9413C11.0302 7.01547 11.2393 7.01886 11.4494 6.94249C11.6951 6.85318 11.8394 6.53989 11.7326 6.29723C11.6215 6.04587 11.3506 5.92019 11.089 6.01476Z" fill="#6D6E71"/>
</svg>
