<svg width="15" height="15" viewBox="0 0 15 15" fill="none" xmlns="http://www.w3.org/2000/svg">
<path d="M0.882887 9.77312H7.86343C8.35034 9.77312 8.74632 9.37758 8.74632 8.89023V1.77946C8.74632 1.29255 8.35034 0.896572 7.86343 0.896572H6.31838V0.441443C6.31838 0.197767 6.12105 0 5.87694 0C5.63282 0 5.43549 0.197767 5.43549 0.441443V0.896572H3.6141V0.441443C3.6141 0.197767 3.41677 0 3.17265 0C2.92854 0 2.73121 0.197767 2.73121 0.441443V0.896572H0.882887C0.395975 0.896572 0 1.29255 0 1.77946V8.89023C0 9.37758 0.395975 9.77312 0.882887 9.77312ZM0.882887 1.77946H2.73165V2.23459C2.73165 2.47826 2.92898 2.67603 3.17309 2.67603C3.41721 2.67603 3.61454 2.47826 3.61454 2.23459V1.77946H5.43549V2.23459C5.43549 2.47826 5.63282 2.67603 5.87694 2.67603C6.12105 2.67603 6.31838 2.47826 6.31838 2.23459V1.77946H7.86343L7.86387 8.89023H0.882887V1.77946Z" fill="#818181"/>
<rect x="4.1322" y="4.00415" width="9.41477" height="9.41477" fill="white"/>
<path d="M4.48566 14.4841H13.0055C13.5998 14.4841 14.0831 14.0014 14.0831 13.4065V4.72776C14.0831 4.13348 13.5998 3.65019 13.0055 3.65019H11.1197V3.0947C11.1197 2.79728 10.8789 2.55591 10.581 2.55591C10.283 2.55591 10.0422 2.79728 10.0422 3.0947V3.65019H7.81913V3.0947C7.81913 2.79728 7.5783 2.55591 7.28035 2.55591C6.9824 2.55591 6.74156 2.79728 6.74156 3.0947V3.65019H4.48566C3.89137 3.65019 3.40808 4.13348 3.40808 4.72776V13.4065C3.40808 14.0014 3.89137 14.4841 4.48566 14.4841ZM4.48566 4.72776H6.7421V5.28325C6.7421 5.58066 6.98294 5.82204 7.28088 5.82204C7.57883 5.82204 7.81967 5.58066 7.81967 5.28325V4.72776H10.0422V5.28325C10.0422 5.58066 10.283 5.82204 10.581 5.82204C10.8789 5.82204 11.1197 5.58066 11.1197 5.28325V4.72776H13.0055L13.006 13.4065H4.48566V4.72776Z" fill="#818181"/>
<path d="M10.8838 7.45683L7.7561 10.5839L6.63165 9.29194C6.43607 9.06672 6.09556 9.04356 5.87142 9.2386C5.64675 9.43364 5.62304 9.77415 5.81808 9.99883L7.32184 11.7278C7.42044 11.8404 7.56052 11.9067 7.70977 11.9121C7.71623 11.9131 7.72216 11.9131 7.72862 11.9131C7.8714 11.9131 8.00879 11.8566 8.10955 11.7553L11.6456 8.21867C11.8563 8.00801 11.8563 7.66749 11.6456 7.45683C11.4349 7.24616 11.0944 7.24616 10.8838 7.45683Z" fill="#818181"/>
</svg>
