<svg width="24" height="25" viewBox="0 0 24 25" fill="none" xmlns="http://www.w3.org/2000/svg">
<path d="M1.68634 25H15.0194C15.9494 25 16.7057 24.2445 16.7057 23.3136V9.73183C16.7057 8.80181 15.9494 8.04549 15.0194 8.04549H12.0683V7.17618C12.0683 6.71075 11.6914 6.33301 11.2251 6.33301C10.7589 6.33301 10.382 6.71075 10.382 7.17618V8.04549H6.90303V7.17618C6.90303 6.71075 6.52614 6.33301 6.05986 6.33301C5.59359 6.33301 5.21669 6.71075 5.21669 7.17618V8.04549H1.68634C0.756324 8.04549 0 8.80181 0 9.73183V23.3136C0 24.2445 0.756324 25 1.68634 25ZM1.68634 9.73183H5.21754V10.6011C5.21754 11.0666 5.59443 11.4443 6.06071 11.4443C6.52698 11.4443 6.90388 11.0666 6.90388 10.6011V9.73183H10.382V10.6011C10.382 11.0666 10.7589 11.4443 11.2251 11.4443C11.6914 11.4443 12.0683 11.0666 12.0683 10.6011V9.73183H15.0194L15.0202 23.3136H1.68634V9.73183Z" fill="#88305F"/>
<path d="M11.6996 14.0017L6.80496 18.8954L5.04526 16.8735C4.73919 16.521 4.20631 16.4848 3.85555 16.79C3.50395 17.0952 3.46685 17.6281 3.77208 17.9797L6.12536 20.6855C6.27966 20.8617 6.49889 20.9654 6.73245 20.9738C6.74256 20.9755 6.75184 20.9755 6.76196 20.9755C6.9854 20.9755 7.20041 20.887 7.35808 20.7285L12.8918 15.1939C13.2215 14.8642 13.2215 14.3313 12.8918 14.0017C12.5621 13.672 12.0292 13.672 11.6996 14.0017Z" fill="#88305F"/>
<path d="M18.667 1V9.00012" stroke="#88305F" stroke-width="1.5" stroke-linecap="round" stroke-linejoin="round"/>
<path d="M14.667 5.00049H22.6671" stroke="#88305F" stroke-width="1.5" stroke-linecap="round" stroke-linejoin="round"/>
</svg>
