<svg width="15" height="15" viewBox="0 0 15 15" fill="none" xmlns="http://www.w3.org/2000/svg">
<path d="M1.79976 9.77312H8.7803C9.26721 9.77312 9.66319 9.37758 9.66319 8.89023V1.77946C9.66319 1.29255 9.26721 0.896572 8.7803 0.896572H7.23525V0.441443C7.23525 0.197767 7.03792 0 6.79381 0C6.54969 0 6.35236 0.197767 6.35236 0.441443V0.896572H4.53097V0.441443C4.53097 0.197767 4.33364 0 4.08952 0C3.84541 0 3.64808 0.197767 3.64808 0.441443V0.896572H1.79976C1.31284 0.896572 0.91687 1.29255 0.91687 1.77946V8.89023C0.91687 9.37758 1.31284 9.77312 1.79976 9.77312ZM1.79976 1.77946H3.64852V2.23459C3.64852 2.47826 3.84585 2.67603 4.08997 2.67603C4.33408 2.67603 4.53141 2.47826 4.53141 2.23459V1.77946H6.35236V2.23459C6.35236 2.47826 6.54969 2.67603 6.79381 2.67603C7.03792 2.67603 7.23525 2.47826 7.23525 2.23459V1.77946H8.7803L8.78074 8.89023H1.79976V1.77946Z" fill="#996C84"/>
<rect x="5.04907" y="4.00415" width="9.41477" height="9.41477" fill="white"/>
<path d="M5.40253 14.4841H13.9224C14.5167 14.4841 14.9999 14.0014 14.9999 13.4065V4.72776C14.9999 4.13348 14.5167 3.65019 13.9224 3.65019H12.0366V3.0947C12.0366 2.79728 11.7958 2.55591 11.4978 2.55591C11.1999 2.55591 10.959 2.79728 10.959 3.0947V3.65019H8.736V3.0947C8.736 2.79728 8.49517 2.55591 8.19722 2.55591C7.89927 2.55591 7.65843 2.79728 7.65843 3.0947V3.65019H5.40253C4.80824 3.65019 4.32495 4.13348 4.32495 4.72776V13.4065C4.32495 14.0014 4.80824 14.4841 5.40253 14.4841ZM5.40253 4.72776H7.65897V5.28325C7.65897 5.58066 7.89981 5.82204 8.19775 5.82204C8.4957 5.82204 8.73654 5.58066 8.73654 5.28325V4.72776H10.959V5.28325C10.959 5.58066 11.1999 5.82204 11.4978 5.82204C11.7958 5.82204 12.0366 5.58066 12.0366 5.28325V4.72776H13.9224L13.9229 13.4065H5.40253V4.72776Z" fill="#996C84"/>
<path d="M11.8006 7.45683L8.67297 10.5839L7.54852 9.29194C7.35294 9.06672 7.01243 9.04356 6.78829 9.2386C6.56362 9.43364 6.53991 9.77415 6.73495 9.99883L8.23871 11.7278C8.33731 11.8404 8.47739 11.9067 8.62664 11.9121C8.6331 11.9131 8.63903 11.9131 8.64549 11.9131C8.78827 11.9131 8.92566 11.8566 9.02642 11.7553L12.5625 8.21867C12.7731 8.00801 12.7731 7.66749 12.5625 7.45683C12.3518 7.24616 12.0113 7.24616 11.8006 7.45683Z" fill="#996C84"/>
</svg>
