<svg width="82" height="91" viewBox="0 0 82 91" fill="none" xmlns="http://www.w3.org/2000/svg">
<path d="M35.8479 42.1467C38.6314 37.2591 42.0514 31.0539 39.6195 24.2117L38.3262 20.5729L21.9517 26.3928L5.57715 32.2126L6.87045 35.8514C9.30234 42.6937 15.8713 45.3485 21.1152 47.383C25.0031 48.8909 28.3621 50.1945 29.2285 52.6322C30.0949 55.0699 28.3121 58.2011 26.2479 61.8244C23.4644 66.712 20.0444 72.9172 22.4763 79.7594L23.7696 83.3982L40.1441 77.5783L56.5187 71.7584L55.2253 68.1197C52.7935 61.2774 46.2245 58.6226 40.9806 56.5881C37.0927 55.0802 33.7337 53.7766 32.8673 51.3389C32.0009 48.9012 33.7837 45.77 35.8479 42.1467Z" fill="#EDF9FF"/>
<path d="M55.2268 68.1192C52.7949 61.277 46.2259 58.6221 40.9821 56.5876C37.0942 55.0798 33.7352 53.7762 32.8688 51.3384C32.0023 48.9007 33.7851 45.7696 35.8493 42.1463C38.6329 37.2586 42.0528 31.0535 39.6209 24.2112L38.3276 20.5725L21.9531 26.3923L40.1456 77.5779L56.5201 71.758L55.2268 68.1192Z" fill="#C0E1F0"/>
<path d="M37.6757 64.721L35.5756 64.721L27.5209 67.5838C25.8207 71.0268 24.7796 74.7051 26.1162 78.4658L27.4095 82.1046L40.1453 77.578L47.1975 74.8204L43.3888 70.5356C42.0521 66.775 41.1675 66.3186 37.6757 64.721Z" fill="#E7A561"/>
<path d="M37.6765 63.8706L35.5757 64.7209L40.1453 77.5779L47.3039 75.0336L46.0106 71.3948C44.6739 67.6342 40.0315 65.8723 37.6765 63.8706Z" fill="#E28424"/>
<path d="M19.4863 82.8716L22.0729 90.1491L42.0862 83.036L62.0995 75.9228L59.5129 68.6452L39.4996 75.7584L19.4863 82.8716Z" fill="#918291"/>
<path d="M20.0133 20.9339L0 28.0471L2.58661 35.3247L22.5999 28.2115L42.6132 21.0983L40.0266 13.8208L20.0133 20.9339Z" fill="#918291"/>
<path d="M39.498 75.7585L59.5113 68.6454L62.098 75.9229L42.0847 83.0361L39.498 75.7585Z" fill="#685D68"/>
<path d="M20.0127 20.9341L40.026 13.8209L42.6126 21.0985L22.5993 28.2116L20.0127 20.9341Z" fill="#685D68"/>
<path d="M22.5202 43.7867C24.9945 44.7514 27.37 45.6696 29.2643 46.9636C29.917 44.7645 28.748 41.8651 30.0584 39.5552C31.591 36.8644 30.8503 36.4303 31.4867 33.4009L25.2291 35.6106L14.1309 39.5552C16.5363 41.5034 19.6315 42.6663 22.5202 43.7867Z" fill="#E7A561"/>
<path d="M30.252 41.0388C30.7922 38.7007 31.3902 36.2241 31.3435 33.4375L25.2295 35.6106L29.2646 46.9636C29.3454 44.9676 29.7915 43.0466 30.252 41.0388Z" fill="#E28424"/>
<circle cx="66.2348" cy="15.3095" r="15.2348" fill="#EAEAEA"/>
<path d="M49.3784 30.2051L52.6583 18.5585L61.404 28.8678L49.3784 30.2051Z" fill="#EAEAEA"/>
<path d="M66.6641 23.0701C65.6141 23.0342 64.5815 22.7919 63.6252 22.357C62.6689 21.922 61.8076 21.303 61.0905 20.5352C60.3735 19.7674 59.8147 18.8659 59.446 17.8821C59.0773 16.8983 58.906 15.8516 58.9419 14.8016C58.9778 13.7517 59.2201 12.719 59.6551 11.7627C60.09 10.8064 60.709 9.94513 61.4768 9.22806C62.2446 8.51099 63.1462 7.95217 64.1299 7.58351C65.1137 7.21485 66.1604 7.04356 67.2104 7.07944L66.9373 15.0748L66.6641 23.0701Z" fill="#38B3F6"/>
<circle cx="67.0097" cy="15.0096" r="8.05403" transform="rotate(24.6345 67.0097 15.0096)" stroke="#B8B8B8" stroke-width="0.5"/>
</svg>
