<svg width="65" height="76" viewBox="0 0 65 76" fill="none" xmlns="http://www.w3.org/2000/svg">
<g filter="url(#filter0_d)">
<path d="M58.9517 64.386H15V4H49.0629L58.9517 13.8815V64.386Z" fill="#FFF5D1"/>
<path d="M49.1111 4V13.8815H58.9999L49.1111 4Z" fill="#EDBA02"/>
<path d="M15 47.9172H58.9517V67.6802H15V47.9172Z" fill="url(#paint0_linear)"/>
</g>
<path d="M36.532 4H49.0723V13.8353H59V47.9999H36.532V4Z" fill="url(#paint1_linear)"/>
<path d="M36.532 19.9148H51.5107V22.7233H36.532V19.9148Z" fill="url(#paint2_linear)"/>
<path d="M22.4893 19.9148H36.5318V22.7233H22.4893V19.9148Z" fill="#996C84"/>
<path d="M36.532 26.468H51.5107V29.2765H36.532V26.468Z" fill="url(#paint3_linear)"/>
<path d="M22.4893 26.468H36.5318V29.2765H22.4893V26.468Z" fill="#996C84"/>
<path d="M36.532 33.0212H51.5107V35.8297H36.532V33.0212Z" fill="url(#paint4_linear)"/>
<path d="M22.4893 33.0212H36.5318V35.8297H22.4893V33.0212Z" fill="#996C84"/>
<path d="M27.232 53.1242C27.8293 52.7602 28.5247 52.5782 29.318 52.5782C29.8967 52.5782 30.41 52.6762 30.858 52.8722C31.306 53.0682 31.6513 53.3389 31.894 53.6842C32.146 54.0295 32.272 54.4309 32.272 54.8882C32.272 55.3829 32.1553 55.8075 31.922 56.1622C31.698 56.5169 31.3573 56.9275 30.9 57.3942C30.5173 57.7862 30.228 58.1222 30.032 58.4022C29.836 58.6729 29.7147 58.9809 29.668 59.3262L29.612 59.7182H28.576V59.1442C28.576 58.6215 28.6693 58.1829 28.856 57.8282C29.0427 57.4642 29.3133 57.0722 29.668 56.6522C29.9387 56.3349 30.1393 56.0595 30.27 55.8262C30.41 55.5929 30.48 55.3315 30.48 55.0422C30.48 54.7155 30.3633 54.4635 30.13 54.2862C29.906 54.0995 29.5933 54.0062 29.192 54.0062C28.5387 54.0062 27.8853 54.2069 27.232 54.6082V53.1242ZM28.128 60.6982H30.102V62.6582H28.128V60.6982ZM34.5733 53.1242C35.1706 52.7602 35.8659 52.5782 36.6593 52.5782C37.2379 52.5782 37.7513 52.6762 38.1992 52.8722C38.6473 53.0682 38.9926 53.3389 39.2353 53.6842C39.4873 54.0295 39.6133 54.4309 39.6133 54.8882C39.6133 55.3829 39.4966 55.8075 39.2633 56.1622C39.0393 56.5169 38.6986 56.9275 38.2413 57.3942C37.8586 57.7862 37.5693 58.1222 37.3733 58.4022C37.1773 58.6729 37.0559 58.9809 37.0093 59.3262L36.9533 59.7182H35.9173V59.1442C35.9173 58.6215 36.0106 58.1829 36.1973 57.8282C36.3839 57.4642 36.6546 57.0722 37.0093 56.6522C37.2799 56.3349 37.4806 56.0595 37.6113 55.8262C37.7513 55.5929 37.8213 55.3315 37.8213 55.0422C37.8213 54.7155 37.7046 54.4635 37.4713 54.2862C37.2473 54.0995 36.9346 54.0062 36.5333 54.0062C35.8799 54.0062 35.2266 54.2069 34.5733 54.6082V53.1242ZM35.4693 60.6982H37.4433V62.6582H35.4693V60.6982ZM41.9145 53.1242C42.5118 52.7602 43.2072 52.5782 44.0005 52.5782C44.5792 52.5782 45.0925 52.6762 45.5405 52.8722C45.9885 53.0682 46.3338 53.3389 46.5765 53.6842C46.8285 54.0295 46.9545 54.4309 46.9545 54.8882C46.9545 55.3829 46.8378 55.8075 46.6045 56.1622C46.3805 56.5169 46.0398 56.9275 45.5825 57.3942C45.1998 57.7862 44.9105 58.1222 44.7145 58.4022C44.5185 58.6729 44.3972 58.9809 44.3505 59.3262L44.2945 59.7182H43.2585V59.1442C43.2585 58.6215 43.3518 58.1829 43.5385 57.8282C43.7252 57.4642 43.9958 57.0722 44.3505 56.6522C44.6212 56.3349 44.8218 56.0595 44.9525 55.8262C45.0925 55.5929 45.1625 55.3315 45.1625 55.0422C45.1625 54.7155 45.0458 54.4635 44.8125 54.2862C44.5885 54.0995 44.2758 54.0062 43.8745 54.0062C43.2212 54.0062 42.5678 54.2069 41.9145 54.6082V53.1242ZM42.8105 60.6982H44.7845V62.6582H42.8105V60.6982Z" fill="white"/>
<path d="M23.2126 65.886L14.2951 51.3967C13.7867 50.5354 12.8409 50 11.8225 50C10.8041 50 9.85827 50.5354 9.36341 51.3765L0.461077 65.8421C0.158759 66.2897 0 66.8234 0 67.3875C0 68.9751 1.2971 70.2671 2.89144 70.2671H20.7535C22.3479 70.2671 23.645 68.9751 23.645 67.3875C23.645 66.8234 23.4862 66.2897 23.2126 65.886Z" fill="#FBCE2F" fill-opacity="0.9"/>
<path d="M11.8227 67.7341C10.8887 67.7341 10.1338 66.9774 10.1338 66.0451C10.1338 65.1128 10.8887 64.3562 11.8227 64.3562C12.7567 64.3562 13.5116 65.1128 13.5116 66.0451C13.5116 66.9774 12.7567 67.7341 11.8227 67.7341Z" fill="#88305F"/>
<path d="M13.5116 60.9784C13.5116 61.9107 12.7567 62.6673 11.8227 62.6673C10.8887 62.6673 10.1338 61.9107 10.1338 60.9784V55.9116C10.1338 54.9793 10.8887 54.2227 11.8227 54.2227C12.7567 54.2227 13.5116 54.9793 13.5116 55.9116V60.9784Z" fill="#88305F"/>
<path d="M11.8225 50C10.8041 50 9.85826 50.5354 9.36341 51.3765L0.461077 65.8421C0.158759 66.2897 0 66.8234 0 67.3875C0 68.9751 1.2971 70.2671 2.89144 70.2671H11.8225V67.7337C10.8885 67.7337 10.1336 66.9771 10.1336 66.0448C10.1336 65.1125 10.8885 64.3559 11.8225 64.3559V62.667C10.8885 62.667 10.1336 61.9103 10.1336 60.978V55.9112C10.1336 54.979 10.8885 54.2223 11.8225 54.2223V50Z" fill="#FFE852"/>
<path d="M11.8215 64.3562C10.8875 64.3562 10.1326 65.1128 10.1326 66.0451C10.1326 66.9774 10.8875 67.7341 11.8215 67.7341V64.3562Z" fill="#996C84"/>
<path d="M11.8217 54.2227C10.8878 54.2227 10.1328 54.9793 10.1328 55.9116V60.9784C10.1328 61.9107 10.8878 62.6673 11.8217 62.6673V54.2227Z" fill="#996C84"/>
<defs>
<filter id="filter0_d" x="9" y="0" width="55.9999" height="75.6802" filterUnits="userSpaceOnUse" color-interpolation-filters="sRGB">
<feFlood flood-opacity="0" result="BackgroundImageFix"/>
<feColorMatrix in="SourceAlpha" type="matrix" values="0 0 0 0 0 0 0 0 0 0 0 0 0 0 0 0 0 0 127 0"/>
<feOffset dy="2"/>
<feGaussianBlur stdDeviation="3"/>
<feColorMatrix type="matrix" values="0 0 0 0 0 0 0 0 0 0 0 0 0 0 0 0 0 0 0.25 0"/>
<feBlend mode="normal" in2="BackgroundImageFix" result="effect1_dropShadow"/>
<feBlend mode="normal" in="SourceGraphic" in2="effect1_dropShadow" result="shape"/>
</filter>
<linearGradient id="paint0_linear" x1="36.5449" y1="41.9883" x2="36.9075" y2="67.6812" gradientUnits="userSpaceOnUse">
<stop stop-color="#996C84"/>
<stop offset="1" stop-color="#88305F"/>
</linearGradient>
<linearGradient id="paint1_linear" x1="36.532" y1="26" x2="59" y2="26" gradientUnits="userSpaceOnUse">
<stop stop-color="#FFEF5A"/>
<stop offset="1" stop-color="#FBCE2F"/>
</linearGradient>
<linearGradient id="paint2_linear" x1="36.532" y1="21.3191" x2="51.5149" y2="21.1654" gradientUnits="userSpaceOnUse">
<stop stop-color="#996C84"/>
<stop offset="1" stop-color="#882F5E"/>
</linearGradient>
<linearGradient id="paint3_linear" x1="36.532" y1="27.8723" x2="51.5149" y2="27.7187" gradientUnits="userSpaceOnUse">
<stop stop-color="#996C84"/>
<stop offset="1" stop-color="#882F5E"/>
</linearGradient>
<linearGradient id="paint4_linear" x1="36.532" y1="34.4255" x2="51.5149" y2="34.2719" gradientUnits="userSpaceOnUse">
<stop stop-color="#996C84"/>
<stop offset="1" stop-color="#882F5E"/>
</linearGradient>
</defs>
</svg>
