<svg width="27" height="27" viewBox="0 0 27 27" fill="none" xmlns="http://www.w3.org/2000/svg">
<path d="M27 13.5C27 20.9558 20.9558 27 13.5 27C6.04416 27 0 20.9558 0 13.5C0 6.04416 6.04416 0 13.5 0C20.9558 0 27 6.04416 27 13.5Z" fill="#88305F"/>
<path d="M16.6364 20.0013V18.5569C16.6364 17.7907 16.3299 17.0559 15.7843 16.5141C15.2388 15.9723 14.4988 15.668 13.7273 15.668H7.90909C7.13755 15.668 6.39761 15.9723 5.85205 16.5141C5.30649 17.0559 5 17.7907 5 18.5569V20.0013" stroke="url(#paint0_linear)" stroke-linecap="round" stroke-linejoin="round"/>
<path d="M10.8183 12.7778C12.4249 12.7778 13.7274 11.4844 13.7274 9.88889C13.7274 8.2934 12.4249 7 10.8183 7C9.21162 7 7.90918 8.2934 7.90918 9.88889C7.90918 11.4844 9.21162 12.7778 10.8183 12.7778Z" stroke="url(#paint1_linear)" stroke-linecap="round" stroke-linejoin="round"/>
<path d="M21.0002 19.9035V18.4591C20.9997 17.819 20.7852 17.1972 20.3903 16.6913C19.9954 16.1854 19.4425 15.8241 18.8184 15.6641" stroke="url(#paint2_linear)" stroke-linecap="round" stroke-linejoin="round"/>
<path d="M15.9092 7C16.5349 7.15911 17.0896 7.52051 17.4856 8.02722C17.8817 8.53394 18.0967 9.15715 18.0967 9.79861C18.0967 10.4401 17.8817 11.0633 17.4856 11.57C17.0896 12.0767 16.5349 12.4381 15.9092 12.5972" stroke="url(#paint3_linear)" stroke-linecap="round" stroke-linejoin="round"/>
<defs>
<linearGradient id="paint0_linear" x1="10.8182" y1="15.668" x2="10.8182" y2="20.0013" gradientUnits="userSpaceOnUse">
<stop stop-color="#FFEF5A"/>
<stop offset="1" stop-color="#FBCE2F"/>
</linearGradient>
<linearGradient id="paint1_linear" x1="10.8183" y1="7" x2="10.8183" y2="12.7778" gradientUnits="userSpaceOnUse">
<stop stop-color="#FFEF5A"/>
<stop offset="1" stop-color="#FBCE2F"/>
</linearGradient>
<linearGradient id="paint2_linear" x1="19.9093" y1="15.6641" x2="19.9093" y2="19.9035" gradientUnits="userSpaceOnUse">
<stop stop-color="#FFEF5A"/>
<stop offset="1" stop-color="#FBCE2F"/>
</linearGradient>
<linearGradient id="paint3_linear" x1="17.0029" y1="7" x2="17.0029" y2="12.5972" gradientUnits="userSpaceOnUse">
<stop stop-color="#FFEF5A"/>
<stop offset="1" stop-color="#FBCE2F"/>
</linearGradient>
</defs>
</svg>
