<svg width="178" height="263" viewBox="0 0 178 263" fill="none" xmlns="http://www.w3.org/2000/svg">
<g filter="url(#filter0_d)">
<rect x="24" y="216" width="130" height="35" rx="5" fill="url(#paint0_linear)"/>
</g>
<path d="M73.7451 229.336V236.587C73.7402 237.593 73.4229 238.416 72.793 239.055C72.168 239.695 71.3184 240.054 70.2441 240.132L69.8706 240.146C68.7036 240.146 67.7734 239.832 67.0801 239.202C66.3867 238.572 66.0352 237.705 66.0254 236.602V229.336H67.417V236.558C67.417 237.329 67.6294 237.93 68.0542 238.359C68.479 238.784 69.0845 238.997 69.8706 238.997C70.6665 238.997 71.2744 238.784 71.6943 238.359C72.1191 237.935 72.3315 237.336 72.3315 236.565V229.336H73.7451ZM82.4463 236.125C82.4463 237.332 82.1704 238.303 81.6187 239.041C81.0669 239.778 80.3198 240.146 79.3774 240.146C78.4155 240.146 77.6587 239.841 77.1069 239.231V243.047H75.752V232.075H76.9897L77.0557 232.954C77.6074 232.271 78.374 231.929 79.3555 231.929C80.3076 231.929 81.0596 232.288 81.6113 233.005C82.168 233.723 82.4463 234.722 82.4463 236.001V236.125ZM81.0913 235.972C81.0913 235.078 80.9009 234.373 80.52 233.855C80.1392 233.337 79.6167 233.079 78.9526 233.079C78.1323 233.079 77.5171 233.442 77.1069 234.17V237.957C77.5122 238.679 78.1323 239.041 78.9673 239.041C79.6167 239.041 80.1318 238.784 80.5127 238.271C80.8984 237.754 81.0913 236.987 81.0913 235.972ZM85.647 240H84.292V228.75H85.647V240ZM87.4634 235.964C87.4634 235.188 87.6147 234.49 87.9175 233.87C88.2251 233.25 88.6499 232.771 89.1919 232.434C89.7388 232.097 90.3613 231.929 91.0596 231.929C92.1387 231.929 93.0103 232.302 93.6743 233.049C94.3433 233.796 94.6777 234.79 94.6777 236.03V236.125C94.6777 236.897 94.5288 237.59 94.231 238.206C93.938 238.816 93.5156 239.292 92.9639 239.634C92.417 239.976 91.7871 240.146 91.0742 240.146C90 240.146 89.1284 239.773 88.4595 239.026C87.7954 238.279 87.4634 237.29 87.4634 236.06V235.964ZM88.8257 236.125C88.8257 237.004 89.0283 237.71 89.4336 238.242C89.8438 238.774 90.3906 239.041 91.0742 239.041C91.7627 239.041 92.3096 238.772 92.7148 238.235C93.1201 237.693 93.3228 236.936 93.3228 235.964C93.3228 235.095 93.1152 234.392 92.7002 233.855C92.29 233.313 91.7432 233.042 91.0596 233.042C90.3906 233.042 89.8511 233.308 89.4409 233.84C89.0308 234.373 88.8257 235.134 88.8257 236.125ZM101.27 240C101.191 239.844 101.128 239.565 101.079 239.165C100.449 239.819 99.6973 240.146 98.8232 240.146C98.042 240.146 97.3999 239.927 96.897 239.487C96.3989 239.043 96.1499 238.481 96.1499 237.803C96.1499 236.978 96.4624 236.338 97.0874 235.884C97.7173 235.425 98.6011 235.195 99.7388 235.195H101.057V234.573C101.057 234.099 100.916 233.723 100.632 233.445C100.349 233.162 99.9316 233.02 99.3799 233.02C98.8965 233.02 98.4912 233.142 98.1641 233.386C97.8369 233.63 97.6733 233.926 97.6733 234.272H96.311C96.311 233.877 96.4502 233.496 96.7285 233.13C97.0117 232.759 97.3926 232.466 97.8711 232.251C98.3545 232.036 98.8843 231.929 99.4604 231.929C100.374 231.929 101.089 232.158 101.606 232.617C102.124 233.071 102.393 233.699 102.412 234.5V238.147C102.412 238.875 102.505 239.453 102.69 239.883V240H101.27ZM99.021 238.967C99.4458 238.967 99.8486 238.857 100.229 238.638C100.61 238.418 100.886 238.132 101.057 237.781V236.155H99.9951C98.335 236.155 97.5049 236.641 97.5049 237.612C97.5049 238.037 97.6465 238.369 97.9297 238.608C98.2129 238.848 98.5767 238.967 99.021 238.967ZM104.207 235.972C104.207 234.756 104.495 233.779 105.071 233.042C105.647 232.3 106.401 231.929 107.334 231.929C108.262 231.929 108.997 232.246 109.539 232.881V228.75H110.894V240H109.648L109.583 239.15C109.041 239.814 108.286 240.146 107.319 240.146C106.401 240.146 105.652 239.771 105.071 239.019C104.495 238.267 104.207 237.285 104.207 236.074V235.972ZM105.562 236.125C105.562 237.024 105.747 237.727 106.118 238.235C106.489 238.743 107.002 238.997 107.656 238.997C108.516 238.997 109.143 238.611 109.539 237.839V234.199C109.133 233.452 108.511 233.079 107.671 233.079C107.007 233.079 106.489 233.335 106.118 233.848C105.747 234.36 105.562 235.12 105.562 236.125Z" fill="#4B4B4B"/>
<path d="M58.2765 13.125L55.4237 19.2028L48 23.4015V83.5544H75.104L78.3288 50.7852L75.104 13.125H58.2765Z" fill="#FFEDAD"/>
<path d="M75.1035 13.1245H101.352V83.5539H75.1035V13.1245Z" fill="url(#paint1_linear)"/>
<path d="M58.2765 13.125V23.4015H48L58.2765 13.125Z" fill="#FBCE2F"/>
<path d="M75.1034 39.303H57.9622V34.4658H75.1034L76.7158 36.8844L75.1034 39.303Z" fill="#996C84"/>
<path d="M75.1034 49.5809H57.9622V44.7437H75.1034L76.7158 47.1623L75.1034 49.5809Z" fill="#996C84"/>
<path d="M75.1037 59.8572H57.9624V55.02H75.1037L76.7161 57.4386L75.1037 59.8572Z" fill="#996C84"/>
<path d="M75.1038 34.4658H91.3897V39.303H75.1038V34.4658Z" fill="#88305F"/>
<path d="M75.1038 44.7437H91.3897V49.5809H75.1038V44.7437Z" fill="#88305F"/>
<path d="M75.1035 55.02H91.3894V59.8572H75.1035V55.02Z" fill="#88305F"/>
<g filter="url(#filter1_d)">
<path d="M87.4783 1L84.6253 7.07779L77.2017 11.2765V71.4294H104.306L107.531 38.6602L104.306 1H87.4783Z" fill="#FFF5D1"/>
<path d="M104.305 1H130.553V71.4294H104.305V1Z" fill="url(#paint2_linear)"/>
</g>
<path d="M87.4783 1V11.2765H77.2017L87.4783 1Z" fill="#FFEDAD"/>
<path d="M104.306 27.18H87.165V22.3428H104.306L105.919 24.7614L104.306 27.18Z" fill="#996C84"/>
<path d="M104.306 37.4578H87.165V32.6206H104.306L105.919 35.0392L104.306 37.4578Z" fill="#996C84"/>
<path d="M104.306 47.7327H87.165V42.8955H104.306L105.919 45.3141L104.306 47.7327Z" fill="#996C84"/>
<path d="M104.305 22.3428H120.591V27.18H104.305V22.3428Z" fill="url(#paint3_linear)"/>
<path d="M104.305 32.6206H120.591V37.4578H104.305V32.6206Z" fill="url(#paint4_linear)"/>
<path d="M104.305 42.8955H120.591V47.7327H104.305V42.8955Z" fill="url(#paint5_linear)"/>
<path d="M89 200.377H165.724C172.504 200.377 178 194.881 178 188.102V158.554C178.001 155.824 177.09 153.172 175.413 151.019L138.717 103.84C136.392 100.851 132.818 99.1027 129.032 99.1016H48.9684C45.1818 99.1027 41.6077 100.851 39.2828 103.84L2.58714 151.019C0.909749 153.172 -0.000761914 155.824 4.78387e-07 158.554V188.102C4.78387e-07 194.881 5.49609 200.377 12.2759 200.377H89Z" fill="url(#paint6_linear)"/>
<path d="M165.723 160.478L128.896 111.375H49.1027L12.2751 160.478H51.4474C53.7728 160.479 55.8984 161.793 56.9378 163.873L62.7504 175.498C63.7898 177.578 65.9155 178.892 68.2408 178.892H109.758C112.083 178.892 114.209 177.578 115.248 175.498L121.061 163.873C122.1 161.793 124.226 160.479 126.551 160.478H165.723Z" fill="#A06685"/>
<g filter="url(#filter2_d)">
<circle cx="132" cy="99" r="20" fill="url(#paint7_linear)"/>
</g>
<path d="M132 94V104" stroke="#6A6A6A" stroke-width="2" stroke-linecap="round" stroke-linejoin="round"/>
<path d="M127 99H137" stroke="#6A6A6A" stroke-width="2" stroke-linecap="round" stroke-linejoin="round"/>
<defs>
<filter id="filter0_d" x="15" y="208" width="150" height="55" filterUnits="userSpaceOnUse" color-interpolation-filters="sRGB">
<feFlood flood-opacity="0" result="BackgroundImageFix"/>
<feColorMatrix in="SourceAlpha" type="matrix" values="0 0 0 0 0 0 0 0 0 0 0 0 0 0 0 0 0 0 127 0"/>
<feOffset dx="1" dy="2"/>
<feGaussianBlur stdDeviation="5"/>
<feColorMatrix type="matrix" values="0 0 0 0 0.0216884 0 0 0 0 0.00234374 0 0 0 0 0.1875 0 0 0 0.2 0"/>
<feBlend mode="normal" in2="BackgroundImageFix" result="effect1_dropShadow"/>
<feBlend mode="normal" in="SourceGraphic" in2="effect1_dropShadow" result="shape"/>
</filter>
<filter id="filter1_d" x="74.2017" y="0" width="59.3517" height="76.4294" filterUnits="userSpaceOnUse" color-interpolation-filters="sRGB">
<feFlood flood-opacity="0" result="BackgroundImageFix"/>
<feColorMatrix in="SourceAlpha" type="matrix" values="0 0 0 0 0 0 0 0 0 0 0 0 0 0 0 0 0 0 127 0"/>
<feOffset dy="2"/>
<feGaussianBlur stdDeviation="1.5"/>
<feColorMatrix type="matrix" values="0 0 0 0 0 0 0 0 0 0 0 0 0 0 0 0 0 0 0.25 0"/>
<feBlend mode="normal" in2="BackgroundImageFix" result="effect1_dropShadow"/>
<feBlend mode="normal" in="SourceGraphic" in2="effect1_dropShadow" result="shape"/>
</filter>
<filter id="filter2_d" x="103" y="73" width="60" height="60" filterUnits="userSpaceOnUse" color-interpolation-filters="sRGB">
<feFlood flood-opacity="0" result="BackgroundImageFix"/>
<feColorMatrix in="SourceAlpha" type="matrix" values="0 0 0 0 0 0 0 0 0 0 0 0 0 0 0 0 0 0 127 0"/>
<feOffset dx="1" dy="4"/>
<feGaussianBlur stdDeviation="5"/>
<feColorMatrix type="matrix" values="0 0 0 0 0 0 0 0 0 0 0 0 0 0 0 0 0 0 0.1 0"/>
<feBlend mode="normal" in2="BackgroundImageFix" result="effect1_dropShadow"/>
<feBlend mode="normal" in="SourceGraphic" in2="effect1_dropShadow" result="shape"/>
</filter>
<linearGradient id="paint0_linear" x1="89" y1="216" x2="89" y2="251" gradientUnits="userSpaceOnUse">
<stop stop-color="#FFEF5A"/>
<stop offset="1" stop-color="#FBCE2F"/>
</linearGradient>
<linearGradient id="paint1_linear" x1="75.1035" y1="48.3392" x2="101.352" y2="48.3392" gradientUnits="userSpaceOnUse">
<stop stop-color="#FFEF5A"/>
<stop offset="1" stop-color="#FBCE2F"/>
</linearGradient>
<linearGradient id="paint2_linear" x1="104.305" y1="36.2147" x2="130.553" y2="36.2147" gradientUnits="userSpaceOnUse">
<stop stop-color="#FFEF5A"/>
<stop offset="1" stop-color="#FBCE2F"/>
</linearGradient>
<linearGradient id="paint3_linear" x1="104.305" y1="24.7614" x2="120.596" y2="24.6559" gradientUnits="userSpaceOnUse">
<stop stop-color="#996C84"/>
<stop offset="1" stop-color="#882F5E"/>
</linearGradient>
<linearGradient id="paint4_linear" x1="104.305" y1="35.0392" x2="120.596" y2="34.9338" gradientUnits="userSpaceOnUse">
<stop stop-color="#996C84"/>
<stop offset="1" stop-color="#882F5E"/>
</linearGradient>
<linearGradient id="paint5_linear" x1="104.305" y1="45.3141" x2="120.596" y2="45.2087" gradientUnits="userSpaceOnUse">
<stop stop-color="#996C84"/>
<stop offset="1" stop-color="#882F5E"/>
</linearGradient>
<linearGradient id="paint6_linear" x1="87.2549" y1="68.7188" x2="89.6057" y2="200.367" gradientUnits="userSpaceOnUse">
<stop stop-color="#996C84"/>
<stop offset="1" stop-color="#88305F"/>
</linearGradient>
<linearGradient id="paint7_linear" x1="132" y1="79" x2="132" y2="119" gradientUnits="userSpaceOnUse">
<stop stop-color="#FFEF5A"/>
<stop offset="1" stop-color="#FBCE2F"/>
</linearGradient>
</defs>
</svg>
