<svg width="18" height="20" viewBox="0 0 18 20" fill="none" xmlns="http://www.w3.org/2000/svg">
<path fill-rule="evenodd" clip-rule="evenodd" d="M8.43352 10.7766C7.22001 10.7558 6.23844 10.3293 5.5178 9.51336C3.92326 7.71588 4.18833 4.6345 4.21732 4.34044C4.32086 2.11638 5.38112 1.06026 6.25087 0.567405C7.11647 0.0745496 8.01935 0 8.47907 0H8.50392H8.52049H8.54948C9.38609 0.0165666 10.1357 0.215366 10.7777 0.583972C11.6391 1.07683 12.6828 2.13295 12.7864 4.34044C12.8154 4.6345 13.0804 7.71588 11.4859 9.51336C10.7611 10.3293 9.77955 10.7558 8.56605 10.7766H8.52463H8.49978H8.43352ZM17.0109 15.8873C17.015 16.1027 17.0191 17.2085 16.8121 17.7594C16.7706 17.8671 16.692 17.9582 16.5967 18.0203L16.5949 18.0214C16.4468 18.1153 13.4732 20 8.51221 20C3.52981 20 0.551966 18.1031 0.427717 18.0203C0.328317 17.9582 0.253768 17.8671 0.212351 17.7594C-0.00715598 17.2044 -0.00301444 16.0986 0.00112721 15.8832V15.8708C0.00526885 15.8376 0.00526895 15.8045 0.00526895 15.7672L0.00545913 15.761C0.0304039 14.9416 0.0885314 13.0322 1.88143 12.4166L1.88146 12.4166C1.89388 12.4125 1.9063 12.4084 1.92285 12.4042C3.79902 11.9279 5.34385 10.8511 5.36041 10.8387C5.61306 10.6606 5.96095 10.7227 6.13904 10.9754C6.16656 11.0144 6.18835 11.0557 6.20458 11.0983C8.30164 12.0645 10.0164 11.5932 10.7963 11.1345C10.8132 11.0806 10.8386 11.0283 10.8729 10.9795C11.051 10.7269 11.3989 10.6647 11.6516 10.8428C11.6681 10.8552 13.2213 11.9321 15.0891 12.4084C15.0954 12.4104 15.1026 12.4125 15.1098 12.4146C15.1171 12.4166 15.1243 12.4187 15.1306 12.4208C16.9237 13.0323 16.9816 14.9422 17.0065 15.7655L17.0067 15.7714C17.0067 15.7906 17.0078 15.8087 17.0089 15.8262C17.0099 15.8428 17.0109 15.8588 17.0109 15.8749V15.8873Z" fill="#818181"/>
</svg>
