<svg width="65" height="13" viewBox="0 0 65 13" fill="none" xmlns="http://www.w3.org/2000/svg">
<path d="M4.616 12.16C3.24 12.16 2.17333 11.792 1.416 11.056C0.669333 10.3093 0.296 9.184 0.296 7.68V1.184C0.296 1.06667 0.328 0.976 0.392 0.912C0.466667 0.837333 0.557333 0.799999 0.664 0.799999H1.48C1.59733 0.799999 1.688 0.837333 1.752 0.912C1.82667 0.976 1.864 1.06667 1.864 1.184V7.712C1.864 8.736 2.104 9.504 2.584 10.016C3.064 10.528 3.74133 10.784 4.616 10.784C5.49067 10.784 6.168 10.528 6.648 10.016C7.128 9.504 7.368 8.736 7.368 7.712V1.184C7.368 1.06667 7.4 0.976 7.464 0.912C7.53867 0.837333 7.62933 0.799999 7.736 0.799999H8.568C8.67467 0.799999 8.76 0.837333 8.824 0.912C8.89867 0.986666 8.936 1.07733 8.936 1.184V7.68C8.936 9.184 8.55733 10.3093 7.8 11.056C7.05333 11.792 5.992 12.16 4.616 12.16ZM11.7708 12C11.6641 12 11.5734 11.968 11.4988 11.904C11.4348 11.8293 11.4028 11.7387 11.4028 11.632V4.048C11.4028 3.94133 11.4348 3.856 11.4988 3.792C11.5734 3.71733 11.6641 3.68 11.7708 3.68H12.4908C12.5974 3.68 12.6828 3.71733 12.7468 3.792C12.8214 3.856 12.8588 3.94133 12.8588 4.048V4.608C13.4134 3.88267 14.1868 3.52 15.1788 3.52C16.3628 3.52 17.2001 4.01067 17.6908 4.992C17.9468 4.544 18.3094 4.18667 18.7788 3.92C19.2481 3.65333 19.7761 3.52 20.3628 3.52C21.2374 3.52 21.9521 3.81867 22.5068 4.416C23.0614 5.01333 23.3388 5.87733 23.3388 7.008V11.632C23.3388 11.7387 23.3014 11.8293 23.2268 11.904C23.1628 11.968 23.0774 12 22.9708 12H22.2188C22.1121 12 22.0214 11.968 21.9468 11.904C21.8828 11.8293 21.8508 11.7387 21.8508 11.632V7.152C21.8508 6.32 21.6748 5.72267 21.3228 5.36C20.9814 4.99733 20.5281 4.816 19.9628 4.816C19.4614 4.816 19.0294 5.00267 18.6667 5.376C18.3041 5.73867 18.1228 6.33067 18.1228 7.152V11.632C18.1228 11.7387 18.0854 11.8293 18.0108 11.904C17.9468 11.968 17.8614 12 17.7548 12H17.0028C16.8961 12 16.8054 11.968 16.7308 11.904C16.6668 11.8293 16.6348 11.7387 16.6348 11.632V7.152C16.6348 6.32 16.4534 5.72267 16.0908 5.36C15.7388 4.99733 15.2908 4.816 14.7468 4.816C14.2454 4.816 13.8134 5.00267 13.4508 5.376C13.0881 5.73867 12.9068 6.32533 12.9068 7.136V11.632C12.9068 11.7387 12.8694 11.8293 12.7948 11.904C12.7308 11.968 12.6454 12 12.5388 12H11.7708ZM29.7335 12.16C28.5815 12.16 27.7068 11.76 27.1095 10.96V11.632C27.1095 11.7387 27.0722 11.8293 26.9975 11.904C26.9335 11.968 26.8482 12 26.7415 12H26.0055C25.8988 12 25.8082 11.968 25.7335 11.904C25.6695 11.8293 25.6375 11.7387 25.6375 11.632V1.008C25.6375 0.901333 25.6695 0.816 25.7335 0.752C25.8082 0.677333 25.8988 0.639999 26.0055 0.639999H26.7895C26.8962 0.639999 26.9815 0.677333 27.0455 0.752C27.1095 0.816 27.1415 0.901333 27.1415 1.008V4.688C27.7708 3.90933 28.6348 3.52 29.7335 3.52C30.8428 3.52 31.6802 3.888 32.2455 4.624C32.8108 5.34933 33.1148 6.26133 33.1575 7.36C33.1682 7.47733 33.1735 7.63733 33.1735 7.84C33.1735 8.04267 33.1682 8.20267 33.1575 8.32C33.1148 9.42933 32.8108 10.3467 32.2455 11.072C31.6802 11.7973 30.8428 12.16 29.7335 12.16ZM29.3975 10.864C30.1548 10.864 30.7042 10.6293 31.0455 10.16C31.3975 9.69067 31.5895 9.072 31.6215 8.304C31.6322 8.19733 31.6375 8.04267 31.6375 7.84C31.6375 5.824 30.8908 4.816 29.3975 4.816C28.6828 4.816 28.1335 5.05067 27.7495 5.52C27.3655 5.98933 27.1628 6.53867 27.1415 7.168L27.1255 7.792L27.1415 8.4C27.1735 9.072 27.3708 9.65333 27.7335 10.144C28.1068 10.624 28.6615 10.864 29.3975 10.864ZM35.5051 12C35.3985 12 35.3078 11.968 35.2331 11.904C35.1691 11.8293 35.1371 11.7387 35.1371 11.632V4.064C35.1371 3.95733 35.1691 3.86667 35.2331 3.792C35.3078 3.71733 35.3985 3.68 35.5051 3.68H36.2411C36.3478 3.68 36.4385 3.71733 36.5131 3.792C36.5878 3.86667 36.6251 3.95733 36.6251 4.064V4.768C37.0625 4.04267 37.8091 3.68 38.8651 3.68H39.4891C39.5958 3.68 39.6811 3.71733 39.7451 3.792C39.8198 3.856 39.8571 3.94133 39.8571 4.048V4.704C39.8571 4.81067 39.8198 4.896 39.7451 4.96C39.6811 5.024 39.5958 5.056 39.4891 5.056H38.5291C37.9531 5.056 37.4998 5.22667 37.1691 5.568C36.8385 5.89867 36.6731 6.352 36.6731 6.928V11.632C36.6731 11.7387 36.6358 11.8293 36.5611 11.904C36.4865 11.968 36.3958 12 36.2891 12H35.5051ZM44.387 12.16C43.2883 12.16 42.4083 11.824 41.747 11.152C41.0963 10.4693 40.739 9.54133 40.675 8.368L40.659 7.824L40.675 7.296C40.7497 6.144 41.1123 5.22667 41.763 4.544C42.4243 3.86133 43.2937 3.52 44.371 3.52C45.555 3.52 46.4723 3.89867 47.123 4.656C47.7737 5.40267 48.099 6.416 48.099 7.696V7.968C48.099 8.07467 48.0617 8.16533 47.987 8.24C47.923 8.304 47.8377 8.336 47.731 8.336H42.195V8.48C42.227 9.17333 42.435 9.76533 42.819 10.256C43.2137 10.736 43.731 10.976 44.371 10.976C44.8617 10.976 45.2617 10.88 45.571 10.688C45.891 10.4853 46.1257 10.2773 46.275 10.064C46.371 9.936 46.4403 9.86133 46.483 9.84C46.5363 9.808 46.627 9.792 46.755 9.792H47.539C47.635 9.792 47.715 9.81867 47.779 9.872C47.843 9.92533 47.875 10 47.875 10.096C47.875 10.3307 47.7257 10.6133 47.427 10.944C47.139 11.2747 46.7283 11.5627 46.195 11.808C45.6723 12.0427 45.0697 12.16 44.387 12.16ZM46.579 7.232V7.184C46.579 6.448 46.3763 5.85067 45.971 5.392C45.5763 4.92267 45.043 4.688 44.371 4.688C43.699 4.688 43.1657 4.92267 42.771 5.392C42.387 5.85067 42.195 6.448 42.195 7.184V7.232H46.579ZM50.3961 12C50.2895 12 50.1988 11.968 50.1241 11.904C50.0601 11.8293 50.0281 11.7387 50.0281 11.632V1.008C50.0281 0.901333 50.0601 0.816 50.1241 0.752C50.1988 0.677333 50.2895 0.639999 50.3961 0.639999H51.1481C51.2548 0.639999 51.3401 0.677333 51.4041 0.752C51.4788 0.816 51.5161 0.901333 51.5161 1.008V11.632C51.5161 11.7387 51.4788 11.8293 51.4041 11.904C51.3401 11.968 51.2548 12 51.1481 12H50.3961ZM54.2868 12C54.1801 12 54.0894 11.968 54.0148 11.904C53.9508 11.8293 53.9188 11.7387 53.9188 11.632V1.008C53.9188 0.901333 53.9508 0.816 54.0148 0.752C54.0894 0.677333 54.1801 0.639999 54.2868 0.639999H55.0388C55.1454 0.639999 55.2308 0.677333 55.2948 0.752C55.3694 0.816 55.4068 0.901333 55.4068 1.008V11.632C55.4068 11.7387 55.3694 11.8293 55.2948 11.904C55.2308 11.968 55.1454 12 55.0388 12H54.2868ZM60.1134 12.16C59.5907 12.16 59.1054 12.0533 58.6574 11.84C58.2094 11.6267 57.852 11.3387 57.5854 10.976C57.3294 10.6027 57.2014 10.192 57.2014 9.744C57.2014 9.04 57.4894 8.464 58.0654 8.016C58.652 7.55733 59.4414 7.25867 60.4334 7.12L62.8174 6.784V6.32C62.8174 5.232 62.1934 4.688 60.9454 4.688C60.476 4.688 60.092 4.78933 59.7934 4.992C59.4947 5.184 59.2707 5.41333 59.1214 5.68C59.0894 5.776 59.0467 5.84533 58.9934 5.888C58.9507 5.93067 58.8867 5.952 58.8014 5.952H58.1134C58.0174 5.952 57.932 5.92 57.8574 5.856C57.7934 5.78133 57.7614 5.696 57.7614 5.6C57.772 5.344 57.8894 5.056 58.1134 4.736C58.348 4.40533 58.7054 4.12267 59.1854 3.888C59.6654 3.64267 60.2574 3.52 60.9614 3.52C62.156 3.52 63.0147 3.80267 63.5374 4.368C64.06 4.92267 64.3214 5.616 64.3214 6.448V11.632C64.3214 11.7387 64.284 11.8293 64.2094 11.904C64.1454 11.968 64.06 12 63.9534 12H63.2174C63.1107 12 63.02 11.968 62.9454 11.904C62.8814 11.8293 62.8494 11.7387 62.8494 11.632V10.944C62.6147 11.2853 62.2734 11.5733 61.8254 11.808C61.3774 12.0427 60.8067 12.16 60.1134 12.16ZM60.4494 10.96C61.1427 10.96 61.708 10.736 62.1454 10.288C62.5934 9.82933 62.8174 9.17333 62.8174 8.32V7.872L60.9614 8.144C60.204 8.25067 59.6334 8.432 59.2494 8.688C58.8654 8.93333 58.6734 9.248 58.6734 9.632C58.6734 10.0587 58.8494 10.3893 59.2014 10.624C59.5534 10.848 59.9694 10.96 60.4494 10.96Z" fill="#88305F"/>
</svg>
