<svg width="59" height="59" viewBox="0 0 59 59" fill="none" xmlns="http://www.w3.org/2000/svg">
<path d="M59 17.6214V0H41.3786L33.5469 25.4531L59 17.6214Z" fill="#E28424"/>
<path d="M41.377 21.5373V0H29.4989L25.583 21.5373H41.377Z" fill="#2D9CDB"/>
<path d="M29.4995 0H0V17.6214L29.4995 21.5373V0Z" fill="#4CB2EC"/>
<path d="M29.5005 17.6216L17.7529 38.3104L29.5005 58.9993H59.0001V17.6216H29.5005Z" fill="#ACD5DF"/>
<path d="M0 17.6216H29.4995V58.9993H0V17.6216Z" fill="#C4F3FF"/>
<path d="M48.2285 6.85254H52.1444V10.7684H48.2285V6.85254Z" fill="white"/>
<path d="M51.1683 25.4531H29.5005L17.7529 38.3102L29.5005 51.1673H51.1683V25.4531Z" fill="#E28424"/>
<path d="M7.83203 25.4531H29.4998V51.1673H7.83203V25.4531Z" fill="#E7A561"/>
</svg>
