<svg width="60" height="60" viewBox="0 0 60 60" fill="none" xmlns="http://www.w3.org/2000/svg">
<path d="M52.9688 7.03125H7.03125L33.5156 60H52.9688V7.03125Z" fill="#228CC8"/>
<path d="M0 7.03125H33.5156V60H0V7.03125Z" fill="#46A4DA"/>
<path d="M60 15.8203V0H44.1797L37.1484 22.8516L60 15.8203Z" fill="#E28424"/>
<path d="M44.1797 19.3359V0H33.5156L30 19.3359H44.1797Z" fill="#2D9CDB"/>
<path d="M33.5156 0H7.03125V15.8203L33.5156 19.3359V0Z" fill="#4CB2EC"/>
<path d="M33.5155 15.8203L22.9688 34.3945L33.5155 52.9688H60V15.8203H33.5155Z" fill="#ACD5DF"/>
<path d="M7.03125 15.8203H33.5156V52.9688H7.03125V15.8203Z" fill="#C4F3FF"/>
<path d="M50.3311 6.15234H53.8467V9.66797H50.3311V6.15234Z" fill="white"/>
<path d="M52.9688 22.8516H33.5155L22.9688 34.3945L33.5155 45.9375H52.9688V22.8516Z" fill="#E28424"/>
<path d="M14.0625 22.8516H33.5156V45.9375H14.0625V22.8516Z" fill="#E7A561"/>
</svg>
